<?xml version="1.0" encoding="UTF-8" ?>
<svg version="1.1" width="75" height="75" xmlns="http://www.w3.org/2000/svg" shape-rendering="crispEdges">
<rect x="31" y="5" width="9" height="1" fill="#2C1503" />
<rect x="27" y="6" width="11" height="1" fill="#2C1503" />
<rect x="26" y="7" width="11" height="1" fill="#2C1503" />
<rect x="23" y="8" width="12" height="1" fill="#2C1503" />
<rect x="21" y="9" width="11" height="1" fill="#2C1503" />
<rect x="19" y="10" width="12" height="2" fill="#2C1503" />
<rect x="17" y="12" width="11" height="1" fill="#2C1503" />
<rect x="16" y="13" width="11" height="3" fill="#2C1503" />
<rect x="15" y="14" width="1" height="47" fill="#2C1503" />
<rect x="13" y="16" width="2" height="43" fill="#2C1503" />
<rect x="16" y="16" width="9" height="2" fill="#2C1503" />
<rect x="12" y="17" width="1" height="41" fill="#2C1503" />
<rect x="10" y="18" width="2" height="38" fill="#2C1503" />
<rect x="16" y="18" width="8" height="3" fill="#2C1503" />
<rect x="9" y="21" width="1" height="33" fill="#2C1503" />
<rect x="16" y="21" width="7" height="41" fill="#2C1503" />
<rect x="8" y="23" width="1" height="29" fill="#2C1503" />
<rect x="6" y="27" width="2" height="21" fill="#2C1503" />
<rect x="5" y="31" width="1" height="13" fill="#2C1503" />
<rect x="69" y="35" width="1" height="9" fill="#2C1503" />
<rect x="23" y="36" width="1" height="31" fill="#2C1503" />
<rect x="68" y="38" width="1" height="10" fill="#2C1503" />
<rect x="24" y="39" width="1" height="28" fill="#2C1503" />
<rect x="67" y="40" width="1" height="12" fill="#2C1503" />
<rect x="66" y="41" width="1" height="11" fill="#2C1503" />
<rect x="25" y="42" width="2" height="25" fill="#2C1503" />
<rect x="65" y="43" width="1" height="11" fill="#2C1503" />
<rect x="27" y="44" width="1" height="25" fill="#2C1503" />
<rect x="64" y="45" width="1" height="11" fill="#2C1503" />
<rect x="28" y="46" width="1" height="23" fill="#2C1503" />
<rect x="62" y="46" width="2" height="12" fill="#2C1503" />
<rect x="29" y="47" width="3" height="22" fill="#2C1503" />
<rect x="61" y="47" width="1" height="12" fill="#2C1503" />
<rect x="32" y="48" width="2" height="22" fill="#2C1503" />
<rect x="60" y="48" width="1" height="13" fill="#2C1503" />
<rect x="59" y="49" width="1" height="13" fill="#2C1503" />
<rect x="34" y="50" width="2" height="20" fill="#2C1503" />
<rect x="55" y="50" width="4" height="12" fill="#2C1503" />
<rect x="36" y="51" width="3" height="19" fill="#2C1503" />
<rect x="54" y="51" width="1" height="14" fill="#2C1503" />
<rect x="39" y="52" width="15" height="14" fill="#2C1503" />
<rect x="17" y="62" width="6" height="1" fill="#2C1503" />
<rect x="55" y="62" width="3" height="1" fill="#2C1503" />
<rect x="19" y="63" width="4" height="2" fill="#2C1503" />
<rect x="55" y="63" width="2" height="2" fill="#2C1503" />
<rect x="21" y="65" width="2" height="1" fill="#2C1503" />
<rect x="39" y="66" width="14" height="1" fill="#2C1503" />
<rect x="39" y="67" width="10" height="2" fill="#2C1503" />
<rect x="31" y="69" width="1" height="1" fill="#2C1503" />
<rect x="39" y="69" width="5" height="1" fill="#2C1503" />
</svg>