<?xml version="1.0" encoding="UTF-8" ?>
<svg version="1.1" width="75" height="75" xmlns="http://www.w3.org/2000/svg" shape-rendering="crispEdges">
<rect x="12" y="17" width="4" height="1" fill="#280C00" />
<rect x="28" y="17" width="1" height="2" fill="#161817" />
<rect x="45" y="17" width="1" height="2" fill="#161817" />
<rect x="58" y="17" width="4" height="1" fill="#280C00" />
<rect x="11" y="18" width="2" height="2" fill="#280C00" />
<rect x="13" y="18" width="2" height="1" fill="#B4B97F" />
<rect x="15" y="18" width="3" height="1" fill="#280C00" />
<rect x="56" y="18" width="3" height="1" fill="#280C00" />
<rect x="59" y="18" width="2" height="1" fill="#B4B97F" />
<rect x="61" y="18" width="2" height="2" fill="#280C00" />
<rect x="13" y="19" width="2" height="2" fill="#280C00" />
<rect x="15" y="19" width="1" height="1" fill="#B4B97F" />
<rect x="16" y="19" width="4" height="1" fill="#280C00" />
<rect x="29" y="19" width="1" height="1" fill="#161817" />
<rect x="44" y="19" width="1" height="1" fill="#161817" />
<rect x="54" y="19" width="4" height="1" fill="#280C00" />
<rect x="58" y="19" width="1" height="1" fill="#B4B97F" />
<rect x="59" y="19" width="2" height="2" fill="#280C00" />
<rect x="11" y="20" width="1" height="6" fill="#280C00" />
<rect x="12" y="20" width="1" height="2" fill="#B4B97F" />
<rect x="15" y="20" width="2" height="2" fill="#280C00" />
<rect x="17" y="20" width="2" height="1" fill="#B4B97F" />
<rect x="19" y="20" width="2" height="2" fill="#280C00" />
<rect x="30" y="20" width="1" height="2" fill="#161817" />
<rect x="43" y="20" width="1" height="2" fill="#161817" />
<rect x="53" y="20" width="2" height="2" fill="#280C00" />
<rect x="55" y="20" width="2" height="1" fill="#B4B97F" />
<rect x="57" y="20" width="2" height="2" fill="#280C00" />
<rect x="61" y="20" width="1" height="2" fill="#B4B97F" />
<rect x="62" y="20" width="1" height="6" fill="#280C00" />
<rect x="13" y="21" width="2" height="2" fill="#B4B97F" />
<rect x="17" y="21" width="2" height="2" fill="#280C00" />
<rect x="21" y="21" width="1" height="1" fill="#280C00" />
<rect x="52" y="21" width="1" height="1" fill="#280C00" />
<rect x="55" y="21" width="2" height="2" fill="#280C00" />
<rect x="59" y="21" width="2" height="2" fill="#B4B97F" />
<rect x="12" y="22" width="1" height="2" fill="#280C00" />
<rect x="15" y="22" width="1" height="1" fill="#B4B97F" />
<rect x="16" y="22" width="1" height="2" fill="#280C00" />
<rect x="19" y="22" width="3" height="1" fill="#B4B97F" />
<rect x="22" y="22" width="2" height="1" fill="#888454" />
<rect x="31" y="22" width="1" height="1" fill="#161817" />
<rect x="42" y="22" width="1" height="1" fill="#161817" />
<rect x="50" y="22" width="2" height="1" fill="#888454" />
<rect x="52" y="22" width="3" height="1" fill="#B4B97F" />
<rect x="57" y="22" width="1" height="2" fill="#280C00" />
<rect x="58" y="22" width="1" height="1" fill="#B4B97F" />
<rect x="61" y="22" width="1" height="2" fill="#280C00" />
<rect x="13" y="23" width="1" height="2" fill="#280C00" />
<rect x="14" y="23" width="1" height="1" fill="#B4B97F" />
<rect x="15" y="23" width="1" height="7" fill="#280C00" />
<rect x="17" y="23" width="2" height="2" fill="#B4B97F" />
<rect x="19" y="23" width="2" height="1" fill="#888454" />
<rect x="21" y="23" width="3" height="1" fill="#B4B97F" />
<rect x="24" y="23" width="1" height="1" fill="#888454" />
<rect x="32" y="23" width="1" height="3" fill="#161817" />
<rect x="41" y="23" width="1" height="3" fill="#161817" />
<rect x="49" y="23" width="1" height="1" fill="#888454" />
<rect x="50" y="23" width="3" height="1" fill="#B4B97F" />
<rect x="53" y="23" width="2" height="1" fill="#888454" />
<rect x="55" y="23" width="2" height="2" fill="#B4B97F" />
<rect x="58" y="23" width="1" height="7" fill="#280C00" />
<rect x="59" y="23" width="1" height="1" fill="#B4B97F" />
<rect x="60" y="23" width="1" height="2" fill="#280C00" />
<rect x="12" y="24" width="1" height="1" fill="#B4B97F" />
<rect x="14" y="24" width="1" height="4" fill="#280C00" />
<rect x="16" y="24" width="1" height="1" fill="#B4B97F" />
<rect x="19" y="24" width="2" height="2" fill="#B4B97F" />
<rect x="21" y="24" width="2" height="1" fill="#888454" />
<rect x="23" y="24" width="2" height="1" fill="#B4B97F" />
<rect x="25" y="24" width="1" height="1" fill="#888454" />
<rect x="48" y="24" width="1" height="1" fill="#888454" />
<rect x="49" y="24" width="2" height="1" fill="#B4B97F" />
<rect x="51" y="24" width="2" height="1" fill="#888454" />
<rect x="53" y="24" width="2" height="2" fill="#B4B97F" />
<rect x="57" y="24" width="1" height="1" fill="#B4B97F" />
<rect x="59" y="24" width="1" height="4" fill="#280C00" />
<rect x="61" y="24" width="1" height="1" fill="#B4B97F" />
<rect x="12" y="25" width="1" height="6" fill="#280C00" />
<rect x="13" y="25" width="1" height="1" fill="#B4B97F" />
<rect x="16" y="25" width="2" height="1" fill="#888454" />
<rect x="18" y="25" width="1" height="1" fill="#B4B97F" />
<rect x="21" y="25" width="2" height="2" fill="#B4B97F" />
<rect x="23" y="25" width="1" height="1" fill="#888454" />
<rect x="24" y="25" width="2" height="1" fill="#B4B97F" />
<rect x="26" y="25" width="1" height="1" fill="#888454" />
<rect x="47" y="25" width="1" height="1" fill="#888454" />
<rect x="48" y="25" width="2" height="1" fill="#B4B97F" />
<rect x="50" y="25" width="1" height="1" fill="#888454" />
<rect x="51" y="25" width="2" height="2" fill="#B4B97F" />
<rect x="55" y="25" width="1" height="1" fill="#B4B97F" />
<rect x="56" y="25" width="2" height="1" fill="#888454" />
<rect x="60" y="25" width="1" height="1" fill="#B4B97F" />
<rect x="61" y="25" width="1" height="6" fill="#280C00" />
<rect x="13" y="26" width="1" height="1" fill="#280C00" />
<rect x="16" y="26" width="2" height="1" fill="#B4B97F" />
<rect x="18" y="26" width="2" height="1" fill="#888454" />
<rect x="20" y="26" width="1" height="1" fill="#B4B97F" />
<rect x="23" y="26" width="4" height="1" fill="#280C00" />
<rect x="27" y="26" width="1" height="1" fill="#888454" />
<rect x="33" y="26" width="1" height="3" fill="#161817" />
<rect x="40" y="26" width="1" height="3" fill="#161817" />
<rect x="46" y="26" width="1" height="1" fill="#888454" />
<rect x="47" y="26" width="4" height="1" fill="#280C00" />
<rect x="53" y="26" width="1" height="1" fill="#B4B97F" />
<rect x="54" y="26" width="2" height="1" fill="#888454" />
<rect x="56" y="26" width="2" height="1" fill="#B4B97F" />
<rect x="60" y="26" width="1" height="1" fill="#280C00" />
<rect x="13" y="27" width="1" height="2" fill="#B4B97F" />
<rect x="16" y="27" width="1" height="1" fill="#280C00" />
<rect x="17" y="27" width="3" height="3" fill="#B4B97F" />
<rect x="20" y="27" width="1" height="1" fill="#888454" />
<rect x="21" y="27" width="1" height="1" fill="#B4B97F" />
<rect x="22" y="27" width="3" height="1" fill="#280C00" />
<rect x="25" y="27" width="3" height="4" fill="#B4B97F" />
<rect x="28" y="27" width="1" height="1" fill="#888454" />
<rect x="45" y="27" width="1" height="1" fill="#888454" />
<rect x="46" y="27" width="3" height="4" fill="#B4B97F" />
<rect x="49" y="27" width="3" height="1" fill="#280C00" />
<rect x="52" y="27" width="1" height="1" fill="#B4B97F" />
<rect x="53" y="27" width="1" height="1" fill="#888454" />
<rect x="54" y="27" width="3" height="3" fill="#B4B97F" />
<rect x="57" y="27" width="1" height="1" fill="#280C00" />
<rect x="60" y="27" width="1" height="2" fill="#B4B97F" />
<rect x="14" y="28" width="1" height="1" fill="#B4B97F" />
<rect x="16" y="28" width="1" height="1" fill="#B4B97F" />
<rect x="20" y="28" width="1" height="4" fill="#B4B97F" />
<rect x="21" y="28" width="1" height="1" fill="#888454" />
<rect x="22" y="28" width="2" height="1" fill="#280C00" />
<rect x="24" y="28" width="1" height="2" fill="#B4B97F" />
<rect x="28" y="28" width="1" height="5" fill="#B4B97F" />
<rect x="29" y="28" width="1" height="2" fill="#888454" />
<rect x="44" y="28" width="1" height="2" fill="#888454" />
<rect x="45" y="28" width="1" height="5" fill="#B4B97F" />
<rect x="49" y="28" width="1" height="2" fill="#B4B97F" />
<rect x="50" y="28" width="2" height="1" fill="#280C00" />
<rect x="52" y="28" width="1" height="1" fill="#888454" />
<rect x="53" y="28" width="1" height="4" fill="#B4B97F" />
<rect x="57" y="28" width="1" height="1" fill="#B4B97F" />
<rect x="59" y="28" width="1" height="1" fill="#B4B97F" />
<rect x="13" y="29" width="2" height="1" fill="#280C00" />
<rect x="16" y="29" width="1" height="1" fill="#888454" />
<rect x="21" y="29" width="1" height="3" fill="#B4B97F" />
<rect x="22" y="29" width="1" height="1" fill="#888454" />
<rect x="23" y="29" width="1" height="1" fill="#B4B97F" />
<rect x="30" y="29" width="1" height="2" fill="#888454" />
<rect x="34" y="29" width="1" height="2" fill="#161817" />
<rect x="39" y="29" width="1" height="2" fill="#161817" />
<rect x="43" y="29" width="1" height="2" fill="#888454" />
<rect x="50" y="29" width="1" height="1" fill="#B4B97F" />
<rect x="51" y="29" width="1" height="1" fill="#888454" />
<rect x="52" y="29" width="1" height="3" fill="#B4B97F" />
<rect x="57" y="29" width="1" height="1" fill="#888454" />
<rect x="59" y="29" width="2" height="1" fill="#280C00" />
<rect x="13" y="30" width="1" height="4" fill="#280C00" />
<rect x="14" y="30" width="3" height="2" fill="#B4B97F" />
<rect x="17" y="30" width="2" height="1" fill="#888454" />
<rect x="19" y="30" width="1" height="1" fill="#B4B97F" />
<rect x="22" y="30" width="1" height="2" fill="#B4B97F" />
<rect x="23" y="30" width="2" height="1" fill="#888454" />
<rect x="29" y="30" width="1" height="3" fill="#B4B97F" />
<rect x="31" y="30" width="1" height="2" fill="#888454" />
<rect x="42" y="30" width="1" height="2" fill="#888454" />
<rect x="44" y="30" width="1" height="3" fill="#B4B97F" />
<rect x="49" y="30" width="2" height="1" fill="#888454" />
<rect x="51" y="30" width="1" height="2" fill="#B4B97F" />
<rect x="54" y="30" width="1" height="1" fill="#B4B97F" />
<rect x="55" y="30" width="2" height="1" fill="#888454" />
<rect x="57" y="30" width="3" height="2" fill="#B4B97F" />
<rect x="60" y="30" width="1" height="4" fill="#280C00" />
<rect x="17" y="31" width="2" height="2" fill="#B4B97F" />
<rect x="19" y="31" width="1" height="1" fill="#888454" />
<rect x="23" y="31" width="2" height="1" fill="#B4B97F" />
<rect x="25" y="31" width="1" height="1" fill="#888454" />
<rect x="26" y="31" width="2" height="1" fill="#B4B97F" />
<rect x="30" y="31" width="1" height="3" fill="#B4B97F" />
<rect x="32" y="31" width="1" height="2" fill="#888454" />
<rect x="35" y="31" width="1" height="2" fill="#161817" />
<rect x="38" y="31" width="1" height="2" fill="#161817" />
<rect x="41" y="31" width="1" height="2" fill="#888454" />
<rect x="43" y="31" width="1" height="3" fill="#B4B97F" />
<rect x="46" y="31" width="2" height="1" fill="#B4B97F" />
<rect x="48" y="31" width="1" height="1" fill="#888454" />
<rect x="49" y="31" width="2" height="1" fill="#B4B97F" />
<rect x="54" y="31" width="1" height="1" fill="#888454" />
<rect x="55" y="31" width="2" height="2" fill="#B4B97F" />
<rect x="14" y="32" width="1" height="1" fill="#280C00" />
<rect x="15" y="32" width="2" height="1" fill="#888454" />
<rect x="19" y="32" width="1" height="1" fill="#B4B97F" />
<rect x="20" y="32" width="4" height="1" fill="#888454" />
<rect x="24" y="32" width="2" height="1" fill="#B4B97F" />
<rect x="26" y="32" width="2" height="2" fill="#888454" />
<rect x="31" y="32" width="1" height="3" fill="#B4B97F" />
<rect x="42" y="32" width="1" height="3" fill="#B4B97F" />
<rect x="46" y="32" width="2" height="2" fill="#888454" />
<rect x="48" y="32" width="2" height="1" fill="#B4B97F" />
<rect x="50" y="32" width="4" height="1" fill="#888454" />
<rect x="54" y="32" width="1" height="1" fill="#B4B97F" />
<rect x="57" y="32" width="2" height="1" fill="#888454" />
<rect x="59" y="32" width="1" height="1" fill="#280C00" />
<rect x="14" y="33" width="3" height="3" fill="#B4B97F" />
<rect x="17" y="33" width="3" height="1" fill="#888454" />
<rect x="20" y="33" width="4" height="1" fill="#B4B97F" />
<rect x="24" y="33" width="2" height="1" fill="#888454" />
<rect x="28" y="33" width="2" height="1" fill="#888454" />
<rect x="32" y="33" width="1" height="2" fill="#B4B97F" />
<rect x="33" y="33" width="1" height="1" fill="#888454" />
<rect x="36" y="33" width="2" height="19" fill="#161817" />
<rect x="40" y="33" width="1" height="1" fill="#888454" />
<rect x="41" y="33" width="1" height="2" fill="#B4B97F" />
<rect x="44" y="33" width="2" height="1" fill="#888454" />
<rect x="48" y="33" width="2" height="1" fill="#888454" />
<rect x="50" y="33" width="4" height="1" fill="#B4B97F" />
<rect x="54" y="33" width="3" height="1" fill="#888454" />
<rect x="57" y="33" width="3" height="3" fill="#B4B97F" />
<rect x="13" y="34" width="1" height="2" fill="#B4B97F" />
<rect x="17" y="34" width="3" height="2" fill="#B4B97F" />
<rect x="20" y="34" width="2" height="1" fill="#888454" />
<rect x="22" y="34" width="8" height="1" fill="#B4B97F" />
<rect x="30" y="34" width="1" height="2" fill="#888454" />
<rect x="33" y="34" width="1" height="2" fill="#B4B97F" />
<rect x="34" y="34" width="1" height="1" fill="#888454" />
<rect x="39" y="34" width="1" height="1" fill="#888454" />
<rect x="40" y="34" width="1" height="2" fill="#B4B97F" />
<rect x="43" y="34" width="1" height="2" fill="#888454" />
<rect x="44" y="34" width="8" height="1" fill="#B4B97F" />
<rect x="52" y="34" width="2" height="1" fill="#888454" />
<rect x="54" y="34" width="3" height="2" fill="#B4B97F" />
<rect x="60" y="34" width="1" height="2" fill="#B4B97F" />
<rect x="20" y="35" width="2" height="1" fill="#B4B97F" />
<rect x="22" y="35" width="8" height="1" fill="#888454" />
<rect x="31" y="35" width="2" height="1" fill="#888454" />
<rect x="34" y="35" width="1" height="2" fill="#B4B97F" />
<rect x="35" y="35" width="1" height="8" fill="#161817" />
<rect x="38" y="35" width="1" height="8" fill="#161817" />
<rect x="39" y="35" width="1" height="2" fill="#B4B97F" />
<rect x="41" y="35" width="2" height="1" fill="#888454" />
<rect x="44" y="35" width="8" height="1" fill="#888454" />
<rect x="52" y="35" width="2" height="1" fill="#B4B97F" />
<rect x="14" y="36" width="7" height="1" fill="#888454" />
<rect x="21" y="36" width="12" height="1" fill="#B4B97F" />
<rect x="33" y="36" width="1" height="1" fill="#888454" />
<rect x="40" y="36" width="1" height="1" fill="#888454" />
<rect x="41" y="36" width="12" height="1" fill="#B4B97F" />
<rect x="53" y="36" width="7" height="1" fill="#888454" />
<rect x="16" y="37" width="5" height="1" fill="#B4B97F" />
<rect x="21" y="37" width="7" height="1" fill="#888454" />
<rect x="28" y="37" width="6" height="1" fill="#B4B97F" />
<rect x="34" y="37" width="1" height="5" fill="#161817" />
<rect x="39" y="37" width="1" height="5" fill="#161817" />
<rect x="40" y="37" width="6" height="1" fill="#B4B97F" />
<rect x="46" y="37" width="7" height="1" fill="#888454" />
<rect x="53" y="37" width="5" height="1" fill="#B4B97F" />
<rect x="21" y="38" width="7" height="1" fill="#B4B97F" />
<rect x="28" y="38" width="6" height="1" fill="#888454" />
<rect x="40" y="38" width="6" height="1" fill="#888454" />
<rect x="46" y="38" width="7" height="1" fill="#B4B97F" />
<rect x="18" y="39" width="4" height="1" fill="#B4B97F" />
<rect x="22" y="39" width="3" height="1" fill="#888454" />
<rect x="25" y="39" width="9" height="1" fill="#B4B97F" />
<rect x="40" y="39" width="9" height="1" fill="#B4B97F" />
<rect x="49" y="39" width="3" height="1" fill="#888454" />
<rect x="52" y="39" width="4" height="1" fill="#B4B97F" />
<rect x="17" y="40" width="2" height="1" fill="#B4B97F" />
<rect x="19" y="40" width="3" height="1" fill="#888454" />
<rect x="22" y="40" width="3" height="4" fill="#B4B97F" />
<rect x="25" y="40" width="3" height="1" fill="#888454" />
<rect x="28" y="40" width="4" height="1" fill="#B4B97F" />
<rect x="32" y="40" width="2" height="1" fill="#888454" />
<rect x="40" y="40" width="2" height="1" fill="#888454" />
<rect x="42" y="40" width="4" height="1" fill="#B4B97F" />
<rect x="46" y="40" width="3" height="1" fill="#888454" />
<rect x="49" y="40" width="3" height="4" fill="#B4B97F" />
<rect x="52" y="40" width="3" height="1" fill="#888454" />
<rect x="55" y="40" width="2" height="1" fill="#B4B97F" />
<rect x="16" y="41" width="1" height="1" fill="#B4B97F" />
<rect x="17" y="41" width="2" height="1" fill="#888454" />
<rect x="19" y="41" width="3" height="6" fill="#B4B97F" />
<rect x="25" y="41" width="3" height="2" fill="#B4B97F" />
<rect x="28" y="41" width="4" height="1" fill="#888454" />
<rect x="32" y="41" width="2" height="2" fill="#B4B97F" />
<rect x="40" y="41" width="2" height="2" fill="#B4B97F" />
<rect x="42" y="41" width="4" height="1" fill="#888454" />
<rect x="46" y="41" width="3" height="2" fill="#B4B97F" />
<rect x="52" y="41" width="3" height="6" fill="#B4B97F" />
<rect x="55" y="41" width="2" height="1" fill="#888454" />
<rect x="57" y="41" width="1" height="1" fill="#B4B97F" />
<rect x="15" y="42" width="2" height="1" fill="#888454" />
<rect x="17" y="42" width="2" height="3" fill="#B4B97F" />
<rect x="28" y="42" width="2" height="1" fill="#888454" />
<rect x="30" y="42" width="2" height="2" fill="#B4B97F" />
<rect x="34" y="42" width="1" height="1" fill="#888454" />
<rect x="39" y="42" width="1" height="1" fill="#888454" />
<rect x="42" y="42" width="2" height="2" fill="#B4B97F" />
<rect x="44" y="42" width="2" height="1" fill="#888454" />
<rect x="55" y="42" width="2" height="3" fill="#B4B97F" />
<rect x="57" y="42" width="2" height="1" fill="#888454" />
<rect x="14" y="43" width="1" height="2" fill="#280C00" />
<rect x="15" y="43" width="2" height="1" fill="#B4B97F" />
<rect x="25" y="43" width="1" height="1" fill="#B4B97F" />
<rect x="26" y="43" width="2" height="1" fill="#888454" />
<rect x="28" y="43" width="2" height="2" fill="#B4B97F" />
<rect x="32" y="43" width="2" height="1" fill="#888454" />
<rect x="34" y="43" width="2" height="3" fill="#B4B97F" />
<rect x="38" y="43" width="2" height="3" fill="#B4B97F" />
<rect x="40" y="43" width="2" height="1" fill="#888454" />
<rect x="44" y="43" width="2" height="2" fill="#B4B97F" />
<rect x="46" y="43" width="2" height="1" fill="#888454" />
<rect x="48" y="43" width="1" height="1" fill="#B4B97F" />
<rect x="57" y="43" width="2" height="1" fill="#B4B97F" />
<rect x="59" y="43" width="1" height="2" fill="#280C00" />
<rect x="13" y="44" width="1" height="6" fill="#280C00" />
<rect x="15" y="44" width="2" height="1" fill="#280C00" />
<rect x="22" y="44" width="2" height="1" fill="#B4B97F" />
<rect x="24" y="44" width="2" height="1" fill="#888454" />
<rect x="26" y="44" width="2" height="3" fill="#B4B97F" />
<rect x="30" y="44" width="1" height="1" fill="#B4B97F" />
<rect x="31" y="44" width="1" height="1" fill="#888454" />
<rect x="32" y="44" width="1" height="1" fill="#B4B97F" />
<rect x="33" y="44" width="1" height="1" fill="#888454" />
<rect x="40" y="44" width="1" height="1" fill="#888454" />
<rect x="41" y="44" width="1" height="1" fill="#B4B97F" />
<rect x="42" y="44" width="1" height="1" fill="#888454" />
<rect x="43" y="44" width="1" height="1" fill="#B4B97F" />
<rect x="46" y="44" width="2" height="3" fill="#B4B97F" />
<rect x="48" y="44" width="2" height="1" fill="#888454" />
<rect x="50" y="44" width="2" height="1" fill="#B4B97F" />
<rect x="57" y="44" width="2" height="1" fill="#280C00" />
<rect x="60" y="44" width="1" height="6" fill="#280C00" />
<rect x="14" y="45" width="3" height="2" fill="#B4B97F" />
<rect x="17" y="45" width="1" height="2" fill="#280C00" />
<rect x="18" y="45" width="1" height="4" fill="#B4B97F" />
<rect x="22" y="45" width="1" height="1" fill="#B4B97F" />
<rect x="23" y="45" width="1" height="1" fill="#888454" />
<rect x="24" y="45" width="2" height="3" fill="#B4B97F" />
<rect x="28" y="45" width="1" height="1" fill="#B4B97F" />
<rect x="29" y="45" width="2" height="1" fill="#888454" />
<rect x="31" y="45" width="1" height="1" fill="#B4B97F" />
<rect x="32" y="45" width="1" height="1" fill="#888454" />
<rect x="33" y="45" width="1" height="5" fill="#B4B97F" />
<rect x="40" y="45" width="1" height="5" fill="#B4B97F" />
<rect x="41" y="45" width="1" height="1" fill="#888454" />
<rect x="42" y="45" width="1" height="1" fill="#B4B97F" />
<rect x="43" y="45" width="2" height="1" fill="#888454" />
<rect x="45" y="45" width="1" height="1" fill="#B4B97F" />
<rect x="48" y="45" width="2" height="3" fill="#B4B97F" />
<rect x="50" y="45" width="1" height="1" fill="#888454" />
<rect x="51" y="45" width="1" height="1" fill="#B4B97F" />
<rect x="55" y="45" width="1" height="4" fill="#B4B97F" />
<rect x="56" y="45" width="1" height="2" fill="#280C00" />
<rect x="57" y="45" width="3" height="2" fill="#B4B97F" />
<rect x="22" y="46" width="1" height="1" fill="#888454" />
<rect x="23" y="46" width="1" height="4" fill="#B4B97F" />
<rect x="28" y="46" width="1" height="1" fill="#888454" />
<rect x="29" y="46" width="2" height="1" fill="#B4B97F" />
<rect x="31" y="46" width="1" height="1" fill="#888454" />
<rect x="32" y="46" width="1" height="5" fill="#B4B97F" />
<rect x="34" y="46" width="1" height="2" fill="#B4B97F" />
<rect x="39" y="46" width="1" height="2" fill="#B4B97F" />
<rect x="41" y="46" width="1" height="5" fill="#B4B97F" />
<rect x="42" y="46" width="1" height="1" fill="#888454" />
<rect x="43" y="46" width="2" height="1" fill="#B4B97F" />
<rect x="45" y="46" width="1" height="1" fill="#888454" />
<rect x="50" y="46" width="1" height="4" fill="#B4B97F" />
<rect x="51" y="46" width="1" height="1" fill="#888454" />
<rect x="14" y="47" width="2" height="1" fill="#B4B97F" />
<rect x="16" y="47" width="1" height="1" fill="#280C00" />
<rect x="17" y="47" width="1" height="1" fill="#B4B97F" />
<rect x="19" y="47" width="2" height="1" fill="#B4B97F" />
<rect x="21" y="47" width="1" height="1" fill="#888454" />
<rect x="22" y="47" width="1" height="3" fill="#B4B97F" />
<rect x="26" y="47" width="1" height="1" fill="#B4B97F" />
<rect x="27" y="47" width="1" height="1" fill="#888454" />
<rect x="28" y="47" width="2" height="2" fill="#B4B97F" />
<rect x="30" y="47" width="1" height="2" fill="#888454" />
<rect x="31" y="47" width="1" height="6" fill="#B4B97F" />
<rect x="42" y="47" width="1" height="6" fill="#B4B97F" />
<rect x="43" y="47" width="1" height="2" fill="#888454" />
<rect x="44" y="47" width="2" height="2" fill="#B4B97F" />
<rect x="46" y="47" width="1" height="1" fill="#888454" />
<rect x="47" y="47" width="1" height="1" fill="#B4B97F" />
<rect x="51" y="47" width="1" height="3" fill="#B4B97F" />
<rect x="52" y="47" width="1" height="1" fill="#888454" />
<rect x="53" y="47" width="2" height="1" fill="#B4B97F" />
<rect x="56" y="47" width="1" height="1" fill="#B4B97F" />
<rect x="57" y="47" width="1" height="1" fill="#280C00" />
<rect x="58" y="47" width="2" height="1" fill="#B4B97F" />
<rect x="14" y="48" width="2" height="1" fill="#280C00" />
<rect x="16" y="48" width="1" height="3" fill="#B4B97F" />
<rect x="17" y="48" width="1" height="1" fill="#280C00" />
<rect x="19" y="48" width="1" height="1" fill="#B4B97F" />
<rect x="20" y="48" width="1" height="1" fill="#888454" />
<rect x="21" y="48" width="1" height="3" fill="#B4B97F" />
<rect x="24" y="48" width="1" height="1" fill="#B4B97F" />
<rect x="25" y="48" width="2" height="1" fill="#888454" />
<rect x="27" y="48" width="1" height="4" fill="#B4B97F" />
<rect x="46" y="48" width="1" height="4" fill="#B4B97F" />
<rect x="47" y="48" width="2" height="1" fill="#888454" />
<rect x="49" y="48" width="1" height="1" fill="#B4B97F" />
<rect x="52" y="48" width="1" height="3" fill="#B4B97F" />
<rect x="53" y="48" width="1" height="1" fill="#888454" />
<rect x="54" y="48" width="1" height="1" fill="#B4B97F" />
<rect x="56" y="48" width="1" height="1" fill="#280C00" />
<rect x="57" y="48" width="1" height="3" fill="#B4B97F" />
<rect x="58" y="48" width="2" height="1" fill="#280C00" />
<rect x="14" y="49" width="1" height="2" fill="#280C00" />
<rect x="15" y="49" width="1" height="2" fill="#B4B97F" />
<rect x="17" y="49" width="1" height="2" fill="#B4B97F" />
<rect x="18" y="49" width="1" height="2" fill="#280C00" />
<rect x="19" y="49" width="1" height="1" fill="#888454" />
<rect x="20" y="49" width="1" height="3" fill="#B4B97F" />
<rect x="24" y="49" width="1" height="1" fill="#888454" />
<rect x="25" y="49" width="2" height="4" fill="#B4B97F" />
<rect x="28" y="49" width="1" height="1" fill="#B4B97F" />
<rect x="29" y="49" width="1" height="1" fill="#888454" />
<rect x="30" y="49" width="1" height="5" fill="#B4B97F" />
<rect x="43" y="49" width="1" height="5" fill="#B4B97F" />
<rect x="44" y="49" width="1" height="1" fill="#888454" />
<rect x="45" y="49" width="1" height="1" fill="#B4B97F" />
<rect x="47" y="49" width="2" height="4" fill="#B4B97F" />
<rect x="49" y="49" width="1" height="1" fill="#888454" />
<rect x="53" y="49" width="1" height="3" fill="#B4B97F" />
<rect x="54" y="49" width="1" height="1" fill="#888454" />
<rect x="55" y="49" width="1" height="2" fill="#280C00" />
<rect x="56" y="49" width="1" height="2" fill="#B4B97F" />
<rect x="58" y="49" width="1" height="2" fill="#B4B97F" />
<rect x="59" y="49" width="1" height="2" fill="#280C00" />
<rect x="19" y="50" width="1" height="1" fill="#B4B97F" />
<rect x="22" y="50" width="2" height="1" fill="#888454" />
<rect x="24" y="50" width="1" height="6" fill="#B4B97F" />
<rect x="28" y="50" width="1" height="2" fill="#888454" />
<rect x="29" y="50" width="1" height="5" fill="#B4B97F" />
<rect x="44" y="50" width="1" height="5" fill="#B4B97F" />
<rect x="45" y="50" width="1" height="2" fill="#888454" />
<rect x="49" y="50" width="1" height="6" fill="#B4B97F" />
<rect x="50" y="50" width="2" height="1" fill="#888454" />
<rect x="54" y="50" width="1" height="1" fill="#B4B97F" />
<rect x="15" y="51" width="3" height="1" fill="#280C00" />
<rect x="18" y="51" width="1" height="3" fill="#B4B97F" />
<rect x="19" y="51" width="1" height="1" fill="#280C00" />
<rect x="21" y="51" width="1" height="1" fill="#888454" />
<rect x="22" y="51" width="2" height="3" fill="#B4B97F" />
<rect x="50" y="51" width="2" height="3" fill="#B4B97F" />
<rect x="52" y="51" width="1" height="1" fill="#888454" />
<rect x="54" y="51" width="1" height="1" fill="#280C00" />
<rect x="55" y="51" width="1" height="3" fill="#B4B97F" />
<rect x="56" y="51" width="3" height="1" fill="#280C00" />
<rect x="15" y="52" width="2" height="1" fill="#280C00" />
<rect x="17" y="52" width="1" height="2" fill="#B4B97F" />
<rect x="19" y="52" width="1" height="2" fill="#B4B97F" />
<rect x="20" y="52" width="1" height="3" fill="#280C00" />
<rect x="21" y="52" width="1" height="2" fill="#B4B97F" />
<rect x="27" y="52" width="1" height="1" fill="#888454" />
<rect x="28" y="52" width="1" height="4" fill="#B4B97F" />
<rect x="45" y="52" width="1" height="4" fill="#B4B97F" />
<rect x="46" y="52" width="1" height="1" fill="#888454" />
<rect x="52" y="52" width="1" height="2" fill="#B4B97F" />
<rect x="53" y="52" width="1" height="3" fill="#280C00" />
<rect x="54" y="52" width="1" height="2" fill="#B4B97F" />
<rect x="56" y="52" width="1" height="2" fill="#B4B97F" />
<rect x="57" y="52" width="2" height="1" fill="#280C00" />
<rect x="16" y="53" width="1" height="1" fill="#280C00" />
<rect x="25" y="53" width="1" height="1" fill="#B4B97F" />
<rect x="26" y="53" width="1" height="1" fill="#888454" />
<rect x="27" y="53" width="1" height="3" fill="#B4B97F" />
<rect x="46" y="53" width="1" height="3" fill="#B4B97F" />
<rect x="47" y="53" width="1" height="1" fill="#888454" />
<rect x="48" y="53" width="1" height="1" fill="#B4B97F" />
<rect x="57" y="53" width="1" height="1" fill="#280C00" />
<rect x="17" y="54" width="3" height="1" fill="#280C00" />
<rect x="21" y="54" width="3" height="1" fill="#280C00" />
<rect x="25" y="54" width="1" height="2" fill="#888454" />
<rect x="26" y="54" width="1" height="3" fill="#B4B97F" />
<rect x="47" y="54" width="1" height="3" fill="#B4B97F" />
<rect x="48" y="54" width="1" height="2" fill="#888454" />
<rect x="50" y="54" width="3" height="1" fill="#280C00" />
<rect x="54" y="54" width="3" height="1" fill="#280C00" />
<rect x="18" y="55" width="2" height="1" fill="#280C00" />
<rect x="20" y="55" width="3" height="1" fill="#B4B97F" />
<rect x="23" y="55" width="1" height="2" fill="#280C00" />
<rect x="50" y="55" width="1" height="2" fill="#280C00" />
<rect x="51" y="55" width="3" height="1" fill="#B4B97F" />
<rect x="54" y="55" width="2" height="1" fill="#280C00" />
<rect x="20" y="56" width="3" height="1" fill="#280C00" />
<rect x="24" y="56" width="1" height="1" fill="#888454" />
<rect x="25" y="56" width="1" height="1" fill="#B4B97F" />
<rect x="48" y="56" width="1" height="1" fill="#B4B97F" />
<rect x="49" y="56" width="1" height="1" fill="#888454" />
<rect x="51" y="56" width="3" height="1" fill="#280C00" />
</svg>