<?xml version="1.0" encoding="UTF-8" ?>
<svg version="1.1" width="75" height="75" xmlns="http://www.w3.org/2000/svg" shape-rendering="crispEdges">
<rect x="6" y="14" width="3" height="2" fill="#140E09" />
<rect x="9" y="14" width="6" height="1" fill="#130D06" />
<rect x="15" y="14" width="1" height="2" fill="#140E09" />
<rect x="59" y="14" width="10" height="2" fill="#140E09" />
<rect x="9" y="15" width="6" height="1" fill="#140E09" />
<rect x="4" y="16" width="4" height="2" fill="#140E09" />
<rect x="8" y="16" width="2" height="1" fill="#F2F2F2" />
<rect x="10" y="16" width="1" height="1" fill="#120F09" />
<rect x="11" y="16" width="4" height="1" fill="#140E09" />
<rect x="15" y="16" width="1" height="1" fill="#140E07" />
<rect x="16" y="16" width="1" height="1" fill="#120C05" />
<rect x="17" y="16" width="1" height="3" fill="#140E09" />
<rect x="57" y="16" width="8" height="2" fill="#140E09" />
<rect x="65" y="16" width="2" height="2" fill="#F2F2F2" />
<rect x="67" y="16" width="4" height="2" fill="#140E09" />
<rect x="8" y="17" width="1" height="1" fill="#F0F0EE" />
<rect x="9" y="17" width="1" height="1" fill="#F2F2F2" />
<rect x="10" y="17" width="1" height="1" fill="#140F05" />
<rect x="11" y="17" width="1" height="1" fill="#160D07" />
<rect x="12" y="17" width="1" height="1" fill="#160D09" />
<rect x="13" y="17" width="1" height="1" fill="#140D0B" />
<rect x="14" y="17" width="3" height="1" fill="#140E09" />
<rect x="4" y="18" width="2" height="6" fill="#140E09" />
<rect x="6" y="18" width="2" height="2" fill="#F2F2F2" />
<rect x="8" y="18" width="2" height="2" fill="#140E09" />
<rect x="10" y="18" width="4" height="2" fill="#F19F49" />
<rect x="14" y="18" width="1" height="1" fill="#120F09" />
<rect x="15" y="18" width="2" height="1" fill="#140E09" />
<rect x="18" y="18" width="1" height="1" fill="#140E09" />
<rect x="19" y="18" width="2" height="1" fill="#140E07" />
<rect x="21" y="18" width="1" height="3" fill="#140E09" />
<rect x="27" y="18" width="1" height="2" fill="#140E09" />
<rect x="28" y="18" width="1" height="1" fill="#140D04" />
<rect x="45" y="18" width="2" height="2" fill="#140E09" />
<rect x="53" y="18" width="8" height="2" fill="#140E09" />
<rect x="61" y="18" width="4" height="2" fill="#F19F49" />
<rect x="65" y="18" width="2" height="2" fill="#140E09" />
<rect x="67" y="18" width="2" height="2" fill="#F2F2F2" />
<rect x="69" y="18" width="2" height="6" fill="#140E09" />
<rect x="14" y="19" width="1" height="1" fill="#140E07" />
<rect x="15" y="19" width="1" height="1" fill="#160D0B" />
<rect x="16" y="19" width="1" height="2" fill="#140E09" />
<rect x="17" y="19" width="2" height="1" fill="#150F0C" />
<rect x="19" y="19" width="2" height="1" fill="#140E09" />
<rect x="28" y="19" width="1" height="1" fill="#140E09" />
<rect x="6" y="20" width="2" height="4" fill="#140E09" />
<rect x="8" y="20" width="4" height="2" fill="#F19F49" />
<rect x="12" y="20" width="2" height="2" fill="#140E09" />
<rect x="14" y="20" width="2" height="2" fill="#F2F2F2" />
<rect x="17" y="20" width="1" height="4" fill="#140E09" />
<rect x="18" y="20" width="2" height="2" fill="#F2F2F2" />
<rect x="20" y="20" width="1" height="1" fill="#140E09" />
<rect x="22" y="20" width="2" height="1" fill="#140E09" />
<rect x="29" y="20" width="1" height="2" fill="#140E09" />
<rect x="30" y="20" width="1" height="1" fill="#160D07" />
<rect x="43" y="20" width="2" height="2" fill="#140E09" />
<rect x="51" y="20" width="4" height="1" fill="#140E09" />
<rect x="55" y="20" width="2" height="2" fill="#F2F2F2" />
<rect x="57" y="20" width="1" height="1" fill="#140E07" />
<rect x="58" y="20" width="1" height="4" fill="#140E09" />
<rect x="59" y="20" width="2" height="2" fill="#F2F2F2" />
<rect x="61" y="20" width="2" height="2" fill="#140E09" />
<rect x="63" y="20" width="4" height="2" fill="#F19F49" />
<rect x="67" y="20" width="2" height="8" fill="#140E09" />
<rect x="16" y="21" width="1" height="1" fill="#120F09" />
<rect x="20" y="21" width="1" height="1" fill="#150F0A" />
<rect x="21" y="21" width="1" height="1" fill="#150F08" />
<rect x="22" y="21" width="1" height="1" fill="#140E07" />
<rect x="23" y="21" width="1" height="5" fill="#140E09" />
<rect x="30" y="21" width="1" height="1" fill="#140E09" />
<rect x="51" y="21" width="3" height="1" fill="#140E09" />
<rect x="54" y="21" width="1" height="1" fill="#140E07" />
<rect x="57" y="21" width="1" height="1" fill="#140E09" />
<rect x="8" y="22" width="2" height="2" fill="#F19F49" />
<rect x="10" y="22" width="2" height="2" fill="#140E09" />
<rect x="12" y="22" width="2" height="2" fill="#F2F2F2" />
<rect x="14" y="22" width="3" height="2" fill="#140E09" />
<rect x="18" y="22" width="2" height="7" fill="#140E09" />
<rect x="20" y="22" width="2" height="2" fill="#F2F2F2" />
<rect x="22" y="22" width="1" height="1" fill="#140E09" />
<rect x="24" y="22" width="1" height="10" fill="#140E09" />
<rect x="31" y="22" width="1" height="4" fill="#140E09" />
<rect x="32" y="22" width="1" height="1" fill="#150F08" />
<rect x="41" y="22" width="2" height="1" fill="#140E09" />
<rect x="49" y="22" width="3" height="1" fill="#140E09" />
<rect x="52" y="22" width="1" height="1" fill="#140E07" />
<rect x="53" y="22" width="2" height="2" fill="#F2F2F2" />
<rect x="55" y="22" width="2" height="4" fill="#140E09" />
<rect x="57" y="22" width="1" height="1" fill="#140D0B" />
<rect x="59" y="22" width="2" height="4" fill="#140E09" />
<rect x="61" y="22" width="2" height="2" fill="#F2F2F2" />
<rect x="63" y="22" width="2" height="2" fill="#140E09" />
<rect x="65" y="22" width="2" height="2" fill="#F19F49" />
<rect x="22" y="23" width="1" height="1" fill="#120F09" />
<rect x="32" y="23" width="1" height="2" fill="#120F09" />
<rect x="41" y="23" width="1" height="3" fill="#140E09" />
<rect x="42" y="23" width="1" height="1" fill="#160D09" />
<rect x="49" y="23" width="1" height="1" fill="#140E09" />
<rect x="50" y="23" width="3" height="1" fill="#150F08" />
<rect x="57" y="23" width="1" height="1" fill="#140E09" />
<rect x="6" y="24" width="1" height="1" fill="#120E0B" />
<rect x="7" y="24" width="3" height="2" fill="#140E09" />
<rect x="10" y="24" width="2" height="2" fill="#F2F2F2" />
<rect x="12" y="24" width="4" height="2" fill="#140E09" />
<rect x="16" y="24" width="2" height="2" fill="#F19F49" />
<rect x="20" y="24" width="3" height="2" fill="#140E09" />
<rect x="25" y="24" width="2" height="4" fill="#140E09" />
<rect x="42" y="24" width="1" height="2" fill="#140E09" />
<rect x="47" y="24" width="1" height="4" fill="#140E09" />
<rect x="48" y="24" width="1" height="1" fill="#110E08" />
<rect x="49" y="24" width="1" height="1" fill="#140E07" />
<rect x="50" y="24" width="3" height="2" fill="#140E09" />
<rect x="53" y="24" width="1" height="1" fill="#130D08" />
<rect x="54" y="24" width="1" height="1" fill="#140C08" />
<rect x="57" y="24" width="2" height="1" fill="#F19F49" />
<rect x="61" y="24" width="2" height="8" fill="#140E09" />
<rect x="63" y="24" width="2" height="2" fill="#F2F2F2" />
<rect x="65" y="24" width="2" height="4" fill="#140E09" />
<rect x="6" y="25" width="1" height="3" fill="#140E09" />
<rect x="32" y="25" width="1" height="1" fill="#140E09" />
<rect x="48" y="25" width="2" height="3" fill="#140E09" />
<rect x="53" y="25" width="2" height="1" fill="#140E09" />
<rect x="57" y="25" width="1" height="1" fill="#F1A045" />
<rect x="58" y="25" width="1" height="1" fill="#F19F49" />
<rect x="7" y="26" width="2" height="1" fill="#140E09" />
<rect x="9" y="26" width="1" height="1" fill="#120F09" />
<rect x="10" y="26" width="1" height="1" fill="#110E08" />
<rect x="11" y="26" width="3" height="2" fill="#140E09" />
<rect x="14" y="26" width="1" height="1" fill="#ECA141" />
<rect x="15" y="26" width="1" height="1" fill="#F39B40" />
<rect x="16" y="26" width="1" height="1" fill="#F0812C" />
<rect x="17" y="26" width="1" height="6" fill="#EE8128" />
<rect x="20" y="26" width="4" height="2" fill="#F19F49" />
<rect x="27" y="26" width="1" height="1" fill="#160D07" />
<rect x="28" y="26" width="1" height="1" fill="#160E05" />
<rect x="33" y="26" width="2" height="2" fill="#140E09" />
<rect x="39" y="26" width="2" height="2" fill="#140E09" />
<rect x="45" y="26" width="2" height="4" fill="#140E09" />
<rect x="50" y="26" width="1" height="1" fill="#140D0B" />
<rect x="51" y="26" width="3" height="2" fill="#F19F49" />
<rect x="54" y="26" width="1" height="1" fill="#EBA145" />
<rect x="55" y="26" width="1" height="2" fill="#110E08" />
<rect x="56" y="26" width="1" height="4" fill="#140E09" />
<rect x="57" y="26" width="1" height="1" fill="#EF7F2E" />
<rect x="58" y="26" width="1" height="6" fill="#EE8128" />
<rect x="59" y="26" width="1" height="1" fill="#EB9F40" />
<rect x="60" y="26" width="1" height="4" fill="#F19F49" />
<rect x="63" y="26" width="2" height="2" fill="#140E09" />
<rect x="7" y="27" width="1" height="1" fill="#140E09" />
<rect x="8" y="27" width="1" height="1" fill="#150F0A" />
<rect x="9" y="27" width="2" height="1" fill="#140E09" />
<rect x="14" y="27" width="1" height="3" fill="#ECA043" />
<rect x="15" y="27" width="1" height="1" fill="#F59B40" />
<rect x="16" y="27" width="1" height="1" fill="#ED832A" />
<rect x="27" y="27" width="2" height="3" fill="#140E09" />
<rect x="50" y="27" width="1" height="1" fill="#120F09" />
<rect x="54" y="27" width="1" height="1" fill="#EEA041" />
<rect x="57" y="27" width="1" height="5" fill="#EE8128" />
<rect x="59" y="27" width="1" height="2" fill="#F19F49" />
<rect x="8" y="28" width="2" height="6" fill="#140E09" />
<rect x="10" y="28" width="2" height="2" fill="#F2F2F2" />
<rect x="12" y="28" width="2" height="4" fill="#140E09" />
<rect x="15" y="28" width="1" height="1" fill="#F59D45" />
<rect x="16" y="28" width="1" height="3" fill="#EE8128" />
<rect x="20" y="28" width="1" height="1" fill="#EE812A" />
<rect x="21" y="28" width="1" height="1" fill="#EC812A" />
<rect x="22" y="28" width="1" height="1" fill="#EC812C" />
<rect x="23" y="28" width="1" height="4" fill="#EE8128" />
<rect x="25" y="28" width="2" height="2" fill="#F19F49" />
<rect x="29" y="28" width="2" height="4" fill="#140E09" />
<rect x="35" y="28" width="4" height="1" fill="#140E09" />
<rect x="43" y="28" width="1" height="1" fill="#160D0B" />
<rect x="44" y="28" width="1" height="4" fill="#140E09" />
<rect x="47" y="28" width="2" height="2" fill="#F19F49" />
<rect x="49" y="28" width="1" height="1" fill="#160D07" />
<rect x="50" y="28" width="1" height="1" fill="#120F07" />
<rect x="51" y="28" width="1" height="1" fill="#EC812A" />
<rect x="52" y="28" width="1" height="1" fill="#EE812A" />
<rect x="53" y="28" width="1" height="1" fill="#EC8228" />
<rect x="54" y="28" width="1" height="1" fill="#EC812A" />
<rect x="55" y="28" width="1" height="1" fill="#110F09" />
<rect x="63" y="28" width="2" height="2" fill="#F2F2F2" />
<rect x="65" y="28" width="1" height="1" fill="#120F09" />
<rect x="66" y="28" width="1" height="6" fill="#140E09" />
<rect x="15" y="29" width="1" height="1" fill="#F79C45" />
<rect x="18" y="29" width="1" height="1" fill="#160D09" />
<rect x="19" y="29" width="1" height="1" fill="#140E09" />
<rect x="20" y="29" width="1" height="1" fill="#EF822A" />
<rect x="21" y="29" width="2" height="1" fill="#EE8128" />
<rect x="35" y="29" width="3" height="14" fill="#140E09" />
<rect x="38" y="29" width="1" height="1" fill="#140E07" />
<rect x="43" y="29" width="1" height="2" fill="#130D08" />
<rect x="49" y="29" width="1" height="1" fill="#140E07" />
<rect x="50" y="29" width="1" height="1" fill="#160D07" />
<rect x="51" y="29" width="2" height="3" fill="#EE8128" />
<rect x="53" y="29" width="1" height="1" fill="#EB7F26" />
<rect x="54" y="29" width="1" height="1" fill="#EC8027" />
<rect x="55" y="29" width="1" height="1" fill="#130D08" />
<rect x="59" y="29" width="1" height="1" fill="#EFA143" />
<rect x="65" y="29" width="1" height="5" fill="#140E09" />
<rect x="10" y="30" width="2" height="4" fill="#140E09" />
<rect x="14" y="30" width="2" height="4" fill="#140E09" />
<rect x="18" y="30" width="2" height="2" fill="#EE8128" />
<rect x="20" y="30" width="1" height="1" fill="#140D0B" />
<rect x="21" y="30" width="1" height="2" fill="#140E09" />
<rect x="22" y="30" width="1" height="1" fill="#EE8128" />
<rect x="25" y="30" width="1" height="4" fill="#EE8128" />
<rect x="26" y="30" width="1" height="1" fill="#EC7F29" />
<rect x="27" y="30" width="2" height="2" fill="#F19F49" />
<rect x="31" y="30" width="2" height="4" fill="#140E09" />
<rect x="38" y="30" width="1" height="23" fill="#140E09" />
<rect x="41" y="30" width="1" height="4" fill="#140E09" />
<rect x="42" y="30" width="1" height="1" fill="#160D07" />
<rect x="45" y="30" width="2" height="2" fill="#F19F49" />
<rect x="47" y="30" width="2" height="3" fill="#EE8128" />
<rect x="49" y="30" width="1" height="1" fill="#160D07" />
<rect x="50" y="30" width="1" height="4" fill="#140E09" />
<rect x="53" y="30" width="1" height="1" fill="#151006" />
<rect x="54" y="30" width="1" height="1" fill="#130C0A" />
<rect x="55" y="30" width="2" height="2" fill="#EE8128" />
<rect x="59" y="30" width="2" height="4" fill="#140E09" />
<rect x="63" y="30" width="2" height="2" fill="#140E09" />
<rect x="16" y="31" width="1" height="1" fill="#EF8028" />
<rect x="20" y="31" width="1" height="1" fill="#150F0C" />
<rect x="22" y="31" width="1" height="1" fill="#EF8028" />
<rect x="26" y="31" width="1" height="3" fill="#EE8128" />
<rect x="42" y="31" width="2" height="1" fill="#140E09" />
<rect x="49" y="31" width="1" height="3" fill="#140E09" />
<rect x="53" y="31" width="1" height="1" fill="#140C06" />
<rect x="54" y="31" width="1" height="1" fill="#140B0A" />
<rect x="12" y="32" width="2" height="2" fill="#F2F2F2" />
<rect x="16" y="32" width="4" height="2" fill="#140E09" />
<rect x="20" y="32" width="1" height="1" fill="#EF802A" />
<rect x="21" y="32" width="1" height="2" fill="#EE8128" />
<rect x="22" y="32" width="2" height="2" fill="#140E09" />
<rect x="24" y="32" width="1" height="1" fill="#120F09" />
<rect x="27" y="32" width="1" height="1" fill="#EC8228" />
<rect x="28" y="32" width="1" height="1" fill="#EF822C" />
<rect x="29" y="32" width="2" height="2" fill="#F19F49" />
<rect x="33" y="32" width="2" height="4" fill="#140E09" />
<rect x="39" y="32" width="2" height="8" fill="#140E09" />
<rect x="42" y="32" width="1" height="1" fill="#140E09" />
<rect x="43" y="32" width="2" height="2" fill="#F19F49" />
<rect x="45" y="32" width="1" height="1" fill="#ED832C" />
<rect x="46" y="32" width="1" height="3" fill="#EE8128" />
<rect x="51" y="32" width="2" height="2" fill="#140E09" />
<rect x="53" y="32" width="1" height="1" fill="#EB7F2D" />
<rect x="54" y="32" width="1" height="1" fill="#EC812C" />
<rect x="55" y="32" width="4" height="2" fill="#140E09" />
<rect x="61" y="32" width="2" height="2" fill="#F2F2F2" />
<rect x="63" y="32" width="1" height="1" fill="#120F09" />
<rect x="64" y="32" width="1" height="4" fill="#140E09" />
<rect x="20" y="33" width="1" height="2" fill="#EE8128" />
<rect x="24" y="33" width="1" height="1" fill="#140E09" />
<rect x="27" y="33" width="1" height="1" fill="#EF8124" />
<rect x="28" y="33" width="1" height="3" fill="#EE8128" />
<rect x="42" y="33" width="1" height="1" fill="#160D07" />
<rect x="45" y="33" width="1" height="1" fill="#ED832A" />
<rect x="47" y="33" width="1" height="1" fill="#F0812A" />
<rect x="48" y="33" width="1" height="1" fill="#EE8128" />
<rect x="53" y="33" width="1" height="1" fill="#EA8328" />
<rect x="54" y="33" width="1" height="1" fill="#EF8126" />
<rect x="63" y="33" width="1" height="3" fill="#140E09" />
<rect x="10" y="34" width="1" height="2" fill="#140E09" />
<rect x="11" y="34" width="1" height="1" fill="#130D08" />
<rect x="12" y="34" width="1" height="1" fill="#120F09" />
<rect x="13" y="34" width="2" height="4" fill="#140E09" />
<rect x="15" y="34" width="5" height="1" fill="#EE8128" />
<rect x="21" y="34" width="1" height="1" fill="#EC8228" />
<rect x="22" y="34" width="3" height="1" fill="#EE8128" />
<rect x="25" y="34" width="2" height="2" fill="#140E09" />
<rect x="27" y="34" width="1" height="2" fill="#EE8128" />
<rect x="29" y="34" width="1" height="1" fill="#EF822C" />
<rect x="30" y="34" width="1" height="1" fill="#EC812A" />
<rect x="31" y="34" width="2" height="4" fill="#F19F49" />
<rect x="41" y="34" width="2" height="4" fill="#F19F49" />
<rect x="43" y="34" width="1" height="1" fill="#EE812A" />
<rect x="44" y="34" width="2" height="2" fill="#EE8128" />
<rect x="47" y="34" width="2" height="2" fill="#140E09" />
<rect x="49" y="34" width="1" height="1" fill="#EC812C" />
<rect x="50" y="34" width="9" height="2" fill="#EE8128" />
<rect x="59" y="34" width="1" height="4" fill="#140E09" />
<rect x="60" y="34" width="1" height="1" fill="#140D0B" />
<rect x="61" y="34" width="2" height="4" fill="#140E09" />
<rect x="11" y="35" width="2" height="1" fill="#140E09" />
<rect x="15" y="35" width="1" height="1" fill="#EE8128" />
<rect x="16" y="35" width="1" height="1" fill="#EF822A" />
<rect x="17" y="35" width="4" height="1" fill="#EF8126" />
<rect x="21" y="35" width="1" height="1" fill="#EF8028" />
<rect x="22" y="35" width="2" height="1" fill="#EC8228" />
<rect x="24" y="35" width="1" height="1" fill="#EE8128" />
<rect x="29" y="35" width="1" height="3" fill="#EE8128" />
<rect x="30" y="35" width="1" height="1" fill="#ED832A" />
<rect x="43" y="35" width="1" height="1" fill="#EF8028" />
<rect x="46" y="35" width="1" height="1" fill="#F18026" />
<rect x="49" y="35" width="1" height="1" fill="#EC812A" />
<rect x="60" y="35" width="1" height="3" fill="#140E09" />
<rect x="12" y="36" width="1" height="2" fill="#140E09" />
<rect x="15" y="36" width="1" height="1" fill="#130D08" />
<rect x="16" y="36" width="6" height="2" fill="#140E09" />
<rect x="22" y="36" width="1" height="1" fill="#EF822A" />
<rect x="23" y="36" width="1" height="1" fill="#ED832A" />
<rect x="24" y="36" width="2" height="1" fill="#EF822A" />
<rect x="26" y="36" width="1" height="1" fill="#EE8128" />
<rect x="27" y="36" width="1" height="2" fill="#140E09" />
<rect x="28" y="36" width="1" height="1" fill="#130D08" />
<rect x="30" y="36" width="1" height="1" fill="#ED832C" />
<rect x="33" y="36" width="1" height="4" fill="#140E09" />
<rect x="34" y="36" width="1" height="1" fill="#120F09" />
<rect x="43" y="36" width="1" height="2" fill="#EE812A" />
<rect x="44" y="36" width="1" height="2" fill="#EE8128" />
<rect x="45" y="36" width="2" height="2" fill="#140E09" />
<rect x="47" y="36" width="1" height="1" fill="#EC812A" />
<rect x="48" y="36" width="1" height="1" fill="#EE8128" />
<rect x="49" y="36" width="1" height="1" fill="#EE8126" />
<rect x="50" y="36" width="3" height="1" fill="#EE8128" />
<rect x="53" y="36" width="6" height="2" fill="#140E09" />
<rect x="15" y="37" width="1" height="1" fill="#140E09" />
<rect x="22" y="37" width="1" height="1" fill="#EF822C" />
<rect x="23" y="37" width="1" height="1" fill="#F0812A" />
<rect x="24" y="37" width="1" height="1" fill="#EF822A" />
<rect x="25" y="37" width="1" height="1" fill="#ED832A" />
<rect x="26" y="37" width="1" height="1" fill="#EF8328" />
<rect x="28" y="37" width="1" height="1" fill="#140E09" />
<rect x="30" y="37" width="1" height="1" fill="#EE8128" />
<rect x="34" y="37" width="1" height="11" fill="#140E09" />
<rect x="47" y="37" width="1" height="1" fill="#EF822A" />
<rect x="48" y="37" width="1" height="1" fill="#EF8028" />
<rect x="49" y="37" width="1" height="1" fill="#EF8126" />
<rect x="50" y="37" width="1" height="1" fill="#EE8126" />
<rect x="51" y="37" width="2" height="1" fill="#EE8128" />
<rect x="16" y="38" width="2" height="2" fill="#140E09" />
<rect x="18" y="38" width="2" height="2" fill="#F2F2F2" />
<rect x="20" y="38" width="5" height="2" fill="#140E09" />
<rect x="25" y="38" width="4" height="2" fill="#C04711" />
<rect x="29" y="38" width="4" height="2" fill="#140E09" />
<rect x="41" y="38" width="4" height="2" fill="#140E09" />
<rect x="45" y="38" width="4" height="2" fill="#C04711" />
<rect x="49" y="38" width="6" height="2" fill="#140E09" />
<rect x="55" y="38" width="2" height="2" fill="#F2F2F2" />
<rect x="57" y="38" width="2" height="2" fill="#140E09" />
<rect x="14" y="40" width="1" height="1" fill="#110E06" />
<rect x="15" y="40" width="1" height="4" fill="#140E09" />
<rect x="16" y="40" width="2" height="2" fill="#F2F2F2" />
<rect x="18" y="40" width="3" height="2" fill="#140E09" />
<rect x="21" y="40" width="6" height="2" fill="#C04711" />
<rect x="27" y="40" width="1" height="2" fill="#140E09" />
<rect x="28" y="40" width="1" height="1" fill="#0D0C06" />
<rect x="29" y="40" width="5" height="2" fill="#C04711" />
<rect x="39" y="40" width="1" height="6" fill="#140E09" />
<rect x="40" y="40" width="5" height="2" fill="#C04711" />
<rect x="45" y="40" width="2" height="2" fill="#140E09" />
<rect x="47" y="40" width="6" height="2" fill="#C04711" />
<rect x="53" y="40" width="4" height="2" fill="#140E09" />
<rect x="57" y="40" width="2" height="2" fill="#F2F2F2" />
<rect x="59" y="40" width="2" height="3" fill="#140E09" />
<rect x="14" y="41" width="1" height="1" fill="#130D08" />
<rect x="28" y="41" width="1" height="1" fill="#0F0C04" />
<rect x="12" y="42" width="1" height="1" fill="#120F07" />
<rect x="13" y="42" width="1" height="1" fill="#120F09" />
<rect x="14" y="42" width="1" height="2" fill="#140E09" />
<rect x="16" y="42" width="4" height="1" fill="#140E09" />
<rect x="20" y="42" width="2" height="2" fill="#C04711" />
<rect x="22" y="42" width="3" height="1" fill="#EF8328" />
<rect x="25" y="42" width="2" height="2" fill="#140E09" />
<rect x="27" y="42" width="4" height="2" fill="#EF8328" />
<rect x="31" y="42" width="3" height="2" fill="#140E09" />
<rect x="40" y="42" width="3" height="2" fill="#140E09" />
<rect x="43" y="42" width="4" height="1" fill="#EF8328" />
<rect x="47" y="42" width="2" height="2" fill="#140E09" />
<rect x="49" y="42" width="4" height="1" fill="#EF8328" />
<rect x="53" y="42" width="2" height="2" fill="#C0480F" />
<rect x="55" y="42" width="4" height="1" fill="#140E09" />
<rect x="61" y="42" width="2" height="6" fill="#140E09" />
<rect x="12" y="43" width="2" height="5" fill="#140E09" />
<rect x="16" y="43" width="1" height="3" fill="#140E09" />
<rect x="17" y="43" width="1" height="1" fill="#13100A" />
<rect x="18" y="43" width="1" height="1" fill="#120F09" />
<rect x="19" y="43" width="1" height="1" fill="#140E09" />
<rect x="22" y="43" width="1" height="1" fill="#EF822A" />
<rect x="23" y="43" width="2" height="1" fill="#EF8328" />
<rect x="35" y="43" width="1" height="11" fill="#140E09" />
<rect x="36" y="43" width="1" height="1" fill="#120F09" />
<rect x="37" y="43" width="1" height="1" fill="#140E09" />
<rect x="43" y="43" width="1" height="1" fill="#EB802B" />
<rect x="44" y="43" width="1" height="1" fill="#EE8224" />
<rect x="45" y="43" width="1" height="1" fill="#EE812A" />
<rect x="46" y="43" width="1" height="1" fill="#EA822C" />
<rect x="49" y="43" width="1" height="1" fill="#E9802D" />
<rect x="50" y="43" width="3" height="1" fill="#EC8226" />
<rect x="55" y="43" width="1" height="1" fill="#120E0B" />
<rect x="56" y="43" width="3" height="1" fill="#140E09" />
<rect x="59" y="43" width="1" height="1" fill="#140E07" />
<rect x="60" y="43" width="1" height="1" fill="#140E09" />
<rect x="14" y="44" width="2" height="2" fill="#F2F2F2" />
<rect x="17" y="44" width="1" height="2" fill="#140E09" />
<rect x="18" y="44" width="2" height="2" fill="#C04711" />
<rect x="20" y="44" width="4" height="2" fill="#EF8328" />
<rect x="24" y="44" width="1" height="1" fill="#120E0B" />
<rect x="25" y="44" width="1" height="2" fill="#140E09" />
<rect x="26" y="44" width="3" height="2" fill="#EF8328" />
<rect x="29" y="44" width="2" height="2" fill="#140E09" />
<rect x="31" y="44" width="1" height="2" fill="#EF8328" />
<rect x="32" y="44" width="1" height="1" fill="#EF8326" />
<rect x="33" y="44" width="1" height="1" fill="#BF490F" />
<rect x="36" y="44" width="1" height="10" fill="#140E09" />
<rect x="37" y="44" width="1" height="1" fill="#120F09" />
<rect x="40" y="44" width="1" height="1" fill="#C2470D" />
<rect x="41" y="44" width="1" height="1" fill="#EF802A" />
<rect x="42" y="44" width="1" height="1" fill="#EF822A" />
<rect x="43" y="44" width="1" height="1" fill="#131008" />
<rect x="44" y="44" width="1" height="1" fill="#120F05" />
<rect x="45" y="44" width="1" height="1" fill="#EB7F2D" />
<rect x="46" y="44" width="1" height="1" fill="#EE8128" />
<rect x="47" y="44" width="1" height="1" fill="#EC8228" />
<rect x="48" y="44" width="1" height="1" fill="#EE8126" />
<rect x="49" y="44" width="2" height="2" fill="#140E09" />
<rect x="51" y="44" width="1" height="2" fill="#EE8128" />
<rect x="52" y="44" width="2" height="2" fill="#EF822A" />
<rect x="54" y="44" width="1" height="1" fill="#EF822C" />
<rect x="55" y="44" width="2" height="2" fill="#C0480F" />
<rect x="57" y="44" width="2" height="2" fill="#140E09" />
<rect x="59" y="44" width="2" height="2" fill="#F2F2F2" />
<rect x="24" y="45" width="1" height="1" fill="#140E09" />
<rect x="32" y="45" width="1" height="1" fill="#F0812A" />
<rect x="33" y="45" width="1" height="1" fill="#BF4811" />
<rect x="37" y="45" width="1" height="1" fill="#140E09" />
<rect x="40" y="45" width="1" height="1" fill="#BF490F" />
<rect x="41" y="45" width="1" height="1" fill="#F17F28" />
<rect x="42" y="45" width="1" height="1" fill="#EE8126" />
<rect x="43" y="45" width="1" height="1" fill="#130C0A" />
<rect x="44" y="45" width="1" height="1" fill="#140E09" />
<rect x="45" y="45" width="1" height="1" fill="#E98129" />
<rect x="46" y="45" width="1" height="1" fill="#EF8028" />
<rect x="47" y="45" width="1" height="1" fill="#EE8128" />
<rect x="48" y="45" width="1" height="1" fill="#EF8028" />
<rect x="54" y="45" width="1" height="1" fill="#ED832A" />
<rect x="10" y="46" width="1" height="1" fill="#140E07" />
<rect x="11" y="46" width="1" height="1" fill="#140D0B" />
<rect x="14" y="46" width="2" height="3" fill="#140E09" />
<rect x="16" y="46" width="2" height="5" fill="#C04711" />
<rect x="18" y="46" width="6" height="2" fill="#140E09" />
<rect x="24" y="46" width="1" height="4" fill="#EF8328" />
<rect x="25" y="46" width="1" height="1" fill="#EE802C" />
<rect x="26" y="46" width="1" height="1" fill="#EF8126" />
<rect x="27" y="46" width="2" height="2" fill="#140E09" />
<rect x="29" y="46" width="1" height="2" fill="#EF8328" />
<rect x="30" y="46" width="1" height="1" fill="#EC812A" />
<rect x="31" y="46" width="2" height="2" fill="#C0480F" />
<rect x="33" y="46" width="1" height="2" fill="#140E09" />
<rect x="37" y="46" width="1" height="1" fill="#120F09" />
<rect x="39" y="46" width="1" height="1" fill="#12110A" />
<rect x="40" y="46" width="1" height="1" fill="#150F0C" />
<rect x="41" y="46" width="2" height="2" fill="#C0480F" />
<rect x="43" y="46" width="1" height="1" fill="#EB7F24" />
<rect x="44" y="46" width="1" height="1" fill="#EC8027" />
<rect x="45" y="46" width="1" height="1" fill="#1A0D06" />
<rect x="46" y="46" width="1" height="1" fill="#160C0D" />
<rect x="47" y="46" width="1" height="1" fill="#F17F28" />
<rect x="48" y="46" width="1" height="1" fill="#EE8128" />
<rect x="49" y="46" width="1" height="1" fill="#EE812A" />
<rect x="50" y="46" width="1" height="1" fill="#EF8028" />
<rect x="51" y="46" width="1" height="1" fill="#140D0B" />
<rect x="52" y="46" width="1" height="1" fill="#170E0A" />
<rect x="53" y="46" width="2" height="1" fill="#160D09" />
<rect x="55" y="46" width="1" height="2" fill="#170F08" />
<rect x="56" y="46" width="1" height="1" fill="#170E0A" />
<rect x="57" y="46" width="2" height="2" fill="#C0480F" />
<rect x="59" y="46" width="2" height="6" fill="#140E09" />
<rect x="63" y="46" width="2" height="6" fill="#140E09" />
<rect x="10" y="47" width="1" height="1" fill="#160D07" />
<rect x="11" y="47" width="1" height="1" fill="#140E07" />
<rect x="25" y="47" width="1" height="1" fill="#F0832D" />
<rect x="26" y="47" width="1" height="1" fill="#E98129" />
<rect x="30" y="47" width="1" height="1" fill="#EF8126" />
<rect x="37" y="47" width="1" height="7" fill="#140E09" />
<rect x="39" y="47" width="2" height="1" fill="#130D08" />
<rect x="43" y="47" width="1" height="1" fill="#EF802A" />
<rect x="44" y="47" width="1" height="1" fill="#F0812A" />
<rect x="45" y="47" width="1" height="1" fill="#1A0C01" />
<rect x="46" y="47" width="1" height="1" fill="#140C06" />
<rect x="47" y="47" width="1" height="1" fill="#EB8127" />
<rect x="48" y="47" width="1" height="1" fill="#EB8029" />
<rect x="49" y="47" width="1" height="1" fill="#EC812A" />
<rect x="50" y="47" width="1" height="1" fill="#EF822C" />
<rect x="51" y="47" width="1" height="1" fill="#160C04" />
<rect x="52" y="47" width="1" height="1" fill="#140D04" />
<rect x="53" y="47" width="1" height="1" fill="#140E07" />
<rect x="54" y="47" width="1" height="1" fill="#140E09" />
<rect x="56" y="47" width="1" height="1" fill="#160C04" />
<rect x="10" y="48" width="1" height="1" fill="#120F07" />
<rect x="11" y="48" width="1" height="4" fill="#140E09" />
<rect x="12" y="48" width="2" height="1" fill="#F2F2F2" />
<rect x="18" y="48" width="2" height="1" fill="#EF8328" />
<rect x="20" y="48" width="1" height="1" fill="#150F08" />
<rect x="21" y="48" width="1" height="2" fill="#140E09" />
<rect x="22" y="48" width="1" height="1" fill="#EF8028" />
<rect x="23" y="48" width="1" height="4" fill="#EF8328" />
<rect x="25" y="48" width="2" height="2" fill="#140E09" />
<rect x="27" y="48" width="2" height="1" fill="#EF8328" />
<rect x="29" y="48" width="2" height="3" fill="#C0480F" />
<rect x="31" y="48" width="2" height="3" fill="#140E09" />
<rect x="41" y="48" width="2" height="2" fill="#140E09" />
<rect x="43" y="48" width="2" height="4" fill="#C0480F" />
<rect x="45" y="48" width="1" height="1" fill="#F18026" />
<rect x="46" y="48" width="1" height="1" fill="#F0812A" />
<rect x="47" y="48" width="2" height="2" fill="#140E09" />
<rect x="49" y="48" width="1" height="1" fill="#EA822C" />
<rect x="50" y="48" width="1" height="1" fill="#ED832A" />
<rect x="51" y="48" width="1" height="1" fill="#EF8126" />
<rect x="52" y="48" width="1" height="1" fill="#EE8128" />
<rect x="53" y="48" width="1" height="1" fill="#160D07" />
<rect x="54" y="48" width="1" height="1" fill="#140D0B" />
<rect x="55" y="48" width="1" height="1" fill="#EC8228" />
<rect x="56" y="48" width="1" height="1" fill="#EF8028" />
<rect x="57" y="48" width="1" height="2" fill="#C2470F" />
<rect x="58" y="48" width="1" height="4" fill="#C0480F" />
<rect x="61" y="48" width="2" height="2" fill="#F2F2F2" />
<rect x="10" y="49" width="1" height="1" fill="#140E07" />
<rect x="12" y="49" width="1" height="1" fill="#F2F2F2" />
<rect x="13" y="49" width="1" height="1" fill="#F9F4F4" />
<rect x="14" y="49" width="1" height="1" fill="#120F09" />
<rect x="15" y="49" width="1" height="3" fill="#140E09" />
<rect x="18" y="49" width="1" height="1" fill="#F0832F" />
<rect x="19" y="49" width="1" height="1" fill="#EF8328" />
<rect x="20" y="49" width="1" height="1" fill="#150F0C" />
<rect x="22" y="49" width="1" height="2" fill="#EF8328" />
<rect x="27" y="49" width="1" height="1" fill="#EF8328" />
<rect x="28" y="49" width="1" height="1" fill="#EF822C" />
<rect x="45" y="49" width="1" height="1" fill="#EC7F2B" />
<rect x="46" y="49" width="1" height="1" fill="#EC7F29" />
<rect x="49" y="49" width="1" height="1" fill="#E9812B" />
<rect x="50" y="49" width="1" height="1" fill="#EF8028" />
<rect x="51" y="49" width="1" height="1" fill="#EE8128" />
<rect x="52" y="49" width="1" height="2" fill="#ED832A" />
<rect x="53" y="49" width="1" height="1" fill="#170F06" />
<rect x="54" y="49" width="1" height="1" fill="#130B07" />
<rect x="55" y="49" width="1" height="1" fill="#EF8028" />
<rect x="56" y="49" width="1" height="1" fill="#EE812A" />
<rect x="10" y="50" width="1" height="1" fill="#120F07" />
<rect x="12" y="50" width="3" height="2" fill="#140E09" />
<rect x="18" y="50" width="1" height="3" fill="#160D09" />
<rect x="19" y="50" width="1" height="6" fill="#140E09" />
<rect x="20" y="50" width="2" height="4" fill="#EF8328" />
<rect x="24" y="50" width="1" height="1" fill="#140C08" />
<rect x="25" y="50" width="1" height="2" fill="#140E09" />
<rect x="26" y="50" width="1" height="1" fill="#EF822A" />
<rect x="27" y="50" width="2" height="2" fill="#140E09" />
<rect x="41" y="50" width="1" height="2" fill="#140E09" />
<rect x="42" y="50" width="1" height="1" fill="#120F09" />
<rect x="45" y="50" width="2" height="4" fill="#140E09" />
<rect x="47" y="50" width="1" height="1" fill="#EC8228" />
<rect x="48" y="50" width="1" height="1" fill="#EC832C" />
<rect x="49" y="50" width="2" height="2" fill="#140E09" />
<rect x="51" y="50" width="1" height="1" fill="#EC8228" />
<rect x="53" y="50" width="1" height="1" fill="#EC8228" />
<rect x="54" y="50" width="1" height="1" fill="#ED832C" />
<rect x="55" y="50" width="2" height="3" fill="#140E09" />
<rect x="57" y="50" width="1" height="1" fill="#C0480D" />
<rect x="61" y="50" width="2" height="3" fill="#140E09" />
<rect x="10" y="51" width="1" height="1" fill="#140F05" />
<rect x="16" y="51" width="1" height="1" fill="#BF490F" />
<rect x="17" y="51" width="1" height="1" fill="#C04711" />
<rect x="22" y="51" width="1" height="1" fill="#EA822C" />
<rect x="24" y="51" width="1" height="1" fill="#140D04" />
<rect x="26" y="51" width="1" height="1" fill="#EE8128" />
<rect x="29" y="51" width="1" height="1" fill="#C0480F" />
<rect x="30" y="51" width="1" height="1" fill="#BF4811" />
<rect x="31" y="51" width="1" height="1" fill="#140E09" />
<rect x="32" y="51" width="1" height="1" fill="#140E07" />
<rect x="42" y="51" width="1" height="1" fill="#140E09" />
<rect x="47" y="51" width="1" height="2" fill="#ED832A" />
<rect x="48" y="51" width="1" height="1" fill="#F17F28" />
<rect x="51" y="51" width="1" height="1" fill="#EA822A" />
<rect x="52" y="51" width="1" height="1" fill="#ED832C" />
<rect x="53" y="51" width="1" height="1" fill="#EC812A" />
<rect x="54" y="51" width="1" height="1" fill="#EF822C" />
<rect x="57" y="51" width="1" height="1" fill="#C0480F" />
<rect x="12" y="52" width="2" height="4" fill="#140E09" />
<rect x="14" y="52" width="1" height="1" fill="#EFEFEF" />
<rect x="15" y="52" width="1" height="2" fill="#F2F2F2" />
<rect x="16" y="52" width="1" height="1" fill="#130D08" />
<rect x="17" y="52" width="1" height="1" fill="#140C08" />
<rect x="22" y="52" width="2" height="6" fill="#140E09" />
<rect x="24" y="52" width="1" height="3" fill="#EE8128" />
<rect x="25" y="52" width="2" height="1" fill="#EF822A" />
<rect x="27" y="52" width="1" height="2" fill="#140E09" />
<rect x="28" y="52" width="1" height="1" fill="#160D07" />
<rect x="29" y="52" width="1" height="1" fill="#130D08" />
<rect x="30" y="52" width="1" height="1" fill="#120E0B" />
<rect x="43" y="52" width="2" height="4" fill="#140E09" />
<rect x="48" y="52" width="2" height="1" fill="#EE8128" />
<rect x="50" y="52" width="1" height="1" fill="#EF802A" />
<rect x="51" y="52" width="2" height="6" fill="#140E09" />
<rect x="53" y="52" width="1" height="2" fill="#F0812C" />
<rect x="54" y="52" width="1" height="1" fill="#ED8328" />
<rect x="57" y="52" width="2" height="4" fill="#140E09" />
<rect x="59" y="52" width="2" height="2" fill="#F2F2F2" />
<rect x="14" y="53" width="1" height="1" fill="#F1EFEE" />
<rect x="16" y="53" width="1" height="1" fill="#140D0B" />
<rect x="17" y="53" width="2" height="2" fill="#140E09" />
<rect x="25" y="53" width="2" height="1" fill="#F0812A" />
<rect x="28" y="53" width="3" height="1" fill="#140E09" />
<rect x="38" y="53" width="1" height="1" fill="#160D07" />
<rect x="47" y="53" width="1" height="1" fill="#EF822A" />
<rect x="48" y="53" width="1" height="1" fill="#EE8128" />
<rect x="49" y="53" width="1" height="1" fill="#EC8226" />
<rect x="50" y="53" width="1" height="1" fill="#F0812C" />
<rect x="54" y="53" width="1" height="1" fill="#EF8328" />
<rect x="55" y="53" width="1" height="3" fill="#140E09" />
<rect x="56" y="53" width="1" height="2" fill="#140E07" />
<rect x="61" y="53" width="1" height="3" fill="#140E09" />
<rect x="62" y="53" width="1" height="1" fill="#140D0B" />
<rect x="14" y="54" width="3" height="4" fill="#140E09" />
<rect x="20" y="54" width="1" height="1" fill="#C0480D" />
<rect x="21" y="54" width="1" height="2" fill="#C04711" />
<rect x="25" y="54" width="1" height="2" fill="#EF8328" />
<rect x="26" y="54" width="1" height="2" fill="#C04711" />
<rect x="27" y="54" width="1" height="1" fill="#C14910" />
<rect x="28" y="54" width="1" height="1" fill="#C04A0E" />
<rect x="29" y="54" width="2" height="2" fill="#140E09" />
<rect x="45" y="54" width="4" height="2" fill="#C0480F" />
<rect x="49" y="54" width="1" height="1" fill="#EE8128" />
<rect x="50" y="54" width="1" height="1" fill="#EF822C" />
<rect x="53" y="54" width="1" height="1" fill="#C2470F" />
<rect x="54" y="54" width="1" height="1" fill="#BF490F" />
<rect x="59" y="54" width="2" height="4" fill="#140E09" />
<rect x="62" y="54" width="1" height="2" fill="#140E09" />
<rect x="17" y="55" width="1" height="5" fill="#140E09" />
<rect x="18" y="55" width="1" height="1" fill="#150F0A" />
<rect x="20" y="55" width="1" height="1" fill="#C04711" />
<rect x="24" y="55" width="1" height="1" fill="#EE812A" />
<rect x="27" y="55" width="1" height="1" fill="#BF490D" />
<rect x="28" y="55" width="1" height="1" fill="#BF4B13" />
<rect x="49" y="55" width="1" height="1" fill="#EE8126" />
<rect x="50" y="55" width="1" height="1" fill="#F0812A" />
<rect x="53" y="55" width="1" height="1" fill="#C24B16" />
<rect x="54" y="55" width="1" height="1" fill="#C14912" />
<rect x="56" y="55" width="1" height="1" fill="#140E09" />
<rect x="18" y="56" width="1" height="1" fill="#EFEFEF" />
<rect x="19" y="56" width="1" height="2" fill="#F2F2F2" />
<rect x="20" y="56" width="1" height="2" fill="#140E09" />
<rect x="21" y="56" width="1" height="1" fill="#140D0B" />
<rect x="24" y="56" width="2" height="2" fill="#C04711" />
<rect x="26" y="56" width="1" height="1" fill="#C0480F" />
<rect x="27" y="56" width="2" height="4" fill="#140E09" />
<rect x="45" y="56" width="2" height="4" fill="#140E09" />
<rect x="47" y="56" width="2" height="4" fill="#C0480F" />
<rect x="49" y="56" width="1" height="1" fill="#BF490F" />
<rect x="50" y="56" width="1" height="2" fill="#C0480F" />
<rect x="53" y="56" width="1" height="5" fill="#140E09" />
<rect x="54" y="56" width="1" height="1" fill="#120F07" />
<rect x="55" y="56" width="2" height="2" fill="#F2F2F2" />
<rect x="57" y="56" width="1" height="2" fill="#140E07" />
<rect x="58" y="56" width="1" height="4" fill="#140E09" />
<rect x="18" y="57" width="1" height="1" fill="#F3F1ED" />
<rect x="21" y="57" width="1" height="1" fill="#110E08" />
<rect x="26" y="57" width="1" height="1" fill="#C04711" />
<rect x="49" y="57" width="1" height="1" fill="#C0480F" />
<rect x="54" y="57" width="1" height="3" fill="#140E09" />
<rect x="16" y="58" width="1" height="2" fill="#140E09" />
<rect x="18" y="58" width="1" height="1" fill="#140E07" />
<rect x="19" y="58" width="1" height="4" fill="#140E09" />
<rect x="20" y="58" width="1" height="1" fill="#120F09" />
<rect x="21" y="58" width="1" height="6" fill="#140E09" />
<rect x="22" y="58" width="1" height="1" fill="#EFEFEF" />
<rect x="23" y="58" width="1" height="2" fill="#F2F2F2" />
<rect x="24" y="58" width="1" height="1" fill="#120F09" />
<rect x="25" y="58" width="1" height="2" fill="#C04711" />
<rect x="26" y="58" width="1" height="1" fill="#C0480F" />
<rect x="49" y="58" width="2" height="6" fill="#140E09" />
<rect x="51" y="58" width="2" height="2" fill="#F2F2F2" />
<rect x="55" y="58" width="3" height="2" fill="#140E09" />
<rect x="18" y="59" width="1" height="3" fill="#140E09" />
<rect x="20" y="59" width="1" height="5" fill="#140E09" />
<rect x="22" y="59" width="1" height="1" fill="#F2F2F2" />
<rect x="24" y="59" width="1" height="2" fill="#140E09" />
<rect x="26" y="59" width="1" height="1" fill="#BA4A13" />
<rect x="22" y="60" width="1" height="1" fill="#160D09" />
<rect x="23" y="60" width="1" height="4" fill="#140E09" />
<rect x="25" y="60" width="2" height="2" fill="#140E09" />
<rect x="47" y="60" width="2" height="2" fill="#140E09" />
<rect x="51" y="60" width="2" height="4" fill="#140E09" />
<rect x="54" y="60" width="1" height="1" fill="#120F09" />
<rect x="55" y="60" width="2" height="2" fill="#140E09" />
<rect x="22" y="61" width="1" height="3" fill="#140E09" />
<rect x="24" y="61" width="1" height="1" fill="#120F09" />
<rect x="53" y="61" width="1" height="1" fill="#120F09" />
<rect x="54" y="61" width="1" height="3" fill="#140E09" />
<rect x="24" y="62" width="1" height="2" fill="#140E09" />
<rect x="53" y="62" width="1" height="2" fill="#140E09" />
</svg>