<?xml version="1.0" encoding="UTF-8" ?>
<svg version="1.1" width="75" height="75" xmlns="http://www.w3.org/2000/svg" shape-rendering="crispEdges">
<rect x="23" y="14" width="3" height="1" fill="#11100B" />
<rect x="48" y="14" width="3" height="1" fill="#11100B" />
<rect x="26" y="15" width="3" height="1" fill="#11100B" />
<rect x="45" y="15" width="3" height="1" fill="#11100B" />
<rect x="29" y="16" width="1" height="1" fill="#11100B" />
<rect x="44" y="16" width="1" height="1" fill="#11100B" />
<rect x="30" y="17" width="1" height="1" fill="#11100B" />
<rect x="43" y="17" width="1" height="1" fill="#11100B" />
<rect x="31" y="18" width="1" height="2" fill="#11100B" />
<rect x="42" y="18" width="1" height="2" fill="#11100B" />
<rect x="32" y="20" width="1" height="1" fill="#11100B" />
<rect x="41" y="20" width="1" height="1" fill="#11100B" />
<rect x="33" y="21" width="1" height="1" fill="#11100B" />
<rect x="40" y="21" width="1" height="1" fill="#11100B" />
<rect x="34" y="22" width="1" height="1" fill="#11100B" />
<rect x="39" y="22" width="1" height="1" fill="#11100B" />
<rect x="35" y="23" width="1" height="1" fill="#11100B" />
<rect x="38" y="23" width="1" height="1" fill="#11100B" />
<rect x="36" y="24" width="2" height="22" fill="#11100B" />
<rect x="11" y="25" width="21" height="1" fill="#4C3D2A" />
<rect x="42" y="25" width="21" height="1" fill="#4C3D2A" />
<rect x="8" y="26" width="13" height="1" fill="#4C3D2A" />
<rect x="21" y="26" width="1" height="1" fill="#3C734B" />
<rect x="22" y="26" width="1" height="1" fill="#638838" />
<rect x="23" y="26" width="1" height="1" fill="#3C734B" />
<rect x="24" y="26" width="1" height="1" fill="#6C7E1B" />
<rect x="25" y="26" width="3" height="1" fill="#45803E" />
<rect x="28" y="26" width="2" height="1" fill="#3F4B19" />
<rect x="30" y="26" width="1" height="1" fill="#3F353E" />
<rect x="31" y="26" width="4" height="1" fill="#4C3D2A" />
<rect x="35" y="26" width="1" height="19" fill="#11100B" />
<rect x="38" y="26" width="1" height="19" fill="#11100B" />
<rect x="39" y="26" width="4" height="1" fill="#4C3D2A" />
<rect x="43" y="26" width="1" height="1" fill="#3F353E" />
<rect x="44" y="26" width="2" height="1" fill="#3F4B19" />
<rect x="46" y="26" width="3" height="1" fill="#45803E" />
<rect x="49" y="26" width="1" height="1" fill="#6C7E1B" />
<rect x="50" y="26" width="1" height="1" fill="#3C734B" />
<rect x="51" y="26" width="1" height="1" fill="#638838" />
<rect x="52" y="26" width="1" height="1" fill="#3C734B" />
<rect x="53" y="26" width="13" height="1" fill="#4C3D2A" />
<rect x="5" y="27" width="14" height="1" fill="#4C3D2A" />
<rect x="19" y="27" width="1" height="1" fill="#3F353E" />
<rect x="20" y="27" width="1" height="1" fill="#3C734B" />
<rect x="21" y="27" width="1" height="1" fill="#638838" />
<rect x="22" y="27" width="1" height="2" fill="#4C5111" />
<rect x="23" y="27" width="1" height="2" fill="#6C7E1B" />
<rect x="24" y="27" width="2" height="1" fill="#45803E" />
<rect x="26" y="27" width="1" height="1" fill="#638838" />
<rect x="27" y="27" width="1" height="1" fill="#6C7E1B" />
<rect x="28" y="27" width="1" height="2" fill="#45803E" />
<rect x="29" y="27" width="2" height="3" fill="#3F4B19" />
<rect x="31" y="27" width="2" height="1" fill="#394A54" />
<rect x="33" y="27" width="1" height="2" fill="#251E14" />
<rect x="34" y="27" width="1" height="2" fill="#4C3D2A" />
<rect x="39" y="27" width="1" height="2" fill="#4C3D2A" />
<rect x="40" y="27" width="1" height="2" fill="#251E14" />
<rect x="41" y="27" width="2" height="1" fill="#394A54" />
<rect x="43" y="27" width="2" height="3" fill="#3F4B19" />
<rect x="45" y="27" width="1" height="2" fill="#45803E" />
<rect x="46" y="27" width="1" height="1" fill="#6C7E1B" />
<rect x="47" y="27" width="1" height="1" fill="#638838" />
<rect x="48" y="27" width="2" height="1" fill="#45803E" />
<rect x="50" y="27" width="1" height="2" fill="#6C7E1B" />
<rect x="51" y="27" width="1" height="2" fill="#4C5111" />
<rect x="52" y="27" width="1" height="1" fill="#638838" />
<rect x="53" y="27" width="1" height="1" fill="#3C734B" />
<rect x="54" y="27" width="1" height="1" fill="#3F353E" />
<rect x="55" y="27" width="14" height="1" fill="#4C3D2A" />
<rect x="4" y="28" width="9" height="1" fill="#4C3D2A" />
<rect x="13" y="28" width="2" height="1" fill="#6C3926" />
<rect x="15" y="28" width="4" height="1" fill="#3F353E" />
<rect x="19" y="28" width="1" height="4" fill="#3C734B" />
<rect x="20" y="28" width="1" height="1" fill="#638838" />
<rect x="21" y="28" width="1" height="1" fill="#6C7E1B" />
<rect x="24" y="28" width="1" height="1" fill="#4A5B0D" />
<rect x="25" y="28" width="1" height="1" fill="#638838" />
<rect x="26" y="28" width="1" height="3" fill="#6C7E1B" />
<rect x="27" y="28" width="1" height="1" fill="#3B7960" />
<rect x="31" y="28" width="2" height="1" fill="#251E14" />
<rect x="41" y="28" width="2" height="1" fill="#251E14" />
<rect x="46" y="28" width="1" height="1" fill="#3B7960" />
<rect x="47" y="28" width="1" height="3" fill="#6C7E1B" />
<rect x="48" y="28" width="1" height="1" fill="#638838" />
<rect x="49" y="28" width="1" height="1" fill="#4A5B0D" />
<rect x="52" y="28" width="1" height="1" fill="#6C7E1B" />
<rect x="53" y="28" width="1" height="1" fill="#638838" />
<rect x="54" y="28" width="1" height="4" fill="#3C734B" />
<rect x="55" y="28" width="4" height="1" fill="#3F353E" />
<rect x="59" y="28" width="2" height="1" fill="#6C3926" />
<rect x="61" y="28" width="9" height="1" fill="#4C3D2A" />
<rect x="2" y="29" width="10" height="1" fill="#4C3D2A" />
<rect x="12" y="29" width="2" height="1" fill="#C5570A" />
<rect x="14" y="29" width="1" height="2" fill="#6C3926" />
<rect x="15" y="29" width="2" height="1" fill="#394A54" />
<rect x="17" y="29" width="1" height="2" fill="#3B7960" />
<rect x="18" y="29" width="1" height="1" fill="#394A54" />
<rect x="20" y="29" width="1" height="2" fill="#7A6D07" />
<rect x="21" y="29" width="4" height="1" fill="#834306" />
<rect x="25" y="29" width="1" height="1" fill="#4A5B0D" />
<rect x="27" y="29" width="1" height="2" fill="#638838" />
<rect x="28" y="29" width="1" height="1" fill="#3F4B19" />
<rect x="31" y="29" width="1" height="1" fill="#251E14" />
<rect x="32" y="29" width="1" height="1" fill="#394A54" />
<rect x="33" y="29" width="1" height="1" fill="#3F4B19" />
<rect x="34" y="29" width="1" height="11" fill="#11100B" />
<rect x="39" y="29" width="1" height="11" fill="#11100B" />
<rect x="40" y="29" width="1" height="1" fill="#3F4B19" />
<rect x="41" y="29" width="1" height="1" fill="#394A54" />
<rect x="42" y="29" width="1" height="1" fill="#251E14" />
<rect x="45" y="29" width="1" height="1" fill="#3F4B19" />
<rect x="46" y="29" width="1" height="2" fill="#638838" />
<rect x="48" y="29" width="1" height="1" fill="#4A5B0D" />
<rect x="49" y="29" width="4" height="1" fill="#834306" />
<rect x="53" y="29" width="1" height="2" fill="#7A6D07" />
<rect x="55" y="29" width="1" height="1" fill="#394A54" />
<rect x="56" y="29" width="1" height="2" fill="#3B7960" />
<rect x="57" y="29" width="2" height="1" fill="#394A54" />
<rect x="59" y="29" width="1" height="2" fill="#6C3926" />
<rect x="60" y="29" width="2" height="1" fill="#C5570A" />
<rect x="62" y="29" width="10" height="1" fill="#4C3D2A" />
<rect x="2" y="30" width="8" height="1" fill="#4C3D2A" />
<rect x="10" y="30" width="1" height="1" fill="#371605" />
<rect x="11" y="30" width="1" height="1" fill="#4C3D2A" />
<rect x="12" y="30" width="1" height="1" fill="#C5570A" />
<rect x="13" y="30" width="1" height="1" fill="#6C3926" />
<rect x="15" y="30" width="1" height="2" fill="#6C3926" />
<rect x="16" y="30" width="1" height="1" fill="#3B7960" />
<rect x="18" y="30" width="1" height="5" fill="#3B7960" />
<rect x="21" y="30" width="3" height="1" fill="#834306" />
<rect x="24" y="30" width="1" height="1" fill="#7A6D07" />
<rect x="25" y="30" width="1" height="1" fill="#6C7E1B" />
<rect x="28" y="30" width="1" height="1" fill="#6C7E1B" />
<rect x="29" y="30" width="1" height="1" fill="#4C5111" />
<rect x="30" y="30" width="1" height="1" fill="#3F4B19" />
<rect x="31" y="30" width="1" height="1" fill="#6A602B" />
<rect x="32" y="30" width="1" height="1" fill="#3F4B19" />
<rect x="33" y="30" width="1" height="1" fill="#251E14" />
<rect x="40" y="30" width="1" height="1" fill="#251E14" />
<rect x="41" y="30" width="1" height="1" fill="#3F4B19" />
<rect x="42" y="30" width="1" height="1" fill="#6A602B" />
<rect x="43" y="30" width="1" height="1" fill="#3F4B19" />
<rect x="44" y="30" width="1" height="1" fill="#4C5111" />
<rect x="45" y="30" width="1" height="1" fill="#6C7E1B" />
<rect x="48" y="30" width="1" height="1" fill="#6C7E1B" />
<rect x="49" y="30" width="1" height="1" fill="#7A6D07" />
<rect x="50" y="30" width="3" height="1" fill="#834306" />
<rect x="55" y="30" width="1" height="5" fill="#3B7960" />
<rect x="57" y="30" width="1" height="1" fill="#3B7960" />
<rect x="58" y="30" width="1" height="2" fill="#6C3926" />
<rect x="60" y="30" width="1" height="1" fill="#6C3926" />
<rect x="61" y="30" width="1" height="1" fill="#C5570A" />
<rect x="62" y="30" width="1" height="1" fill="#4C3D2A" />
<rect x="63" y="30" width="1" height="1" fill="#371605" />
<rect x="64" y="30" width="8" height="1" fill="#4C3D2A" />
<rect x="1" y="31" width="8" height="1" fill="#4C3D2A" />
<rect x="9" y="31" width="1" height="1" fill="#371605" />
<rect x="10" y="31" width="1" height="1" fill="#A29E9F" />
<rect x="11" y="31" width="1" height="2" fill="#371605" />
<rect x="12" y="31" width="1" height="1" fill="#4C3D2A" />
<rect x="13" y="31" width="2" height="1" fill="#C5570A" />
<rect x="16" y="31" width="2" height="1" fill="#4D3D47" />
<rect x="20" y="31" width="1" height="1" fill="#3C734B" />
<rect x="21" y="31" width="3" height="1" fill="#7A6D07" />
<rect x="24" y="31" width="1" height="1" fill="#3B7960" />
<rect x="25" y="31" width="1" height="1" fill="#7A6D07" />
<rect x="26" y="31" width="2" height="1" fill="#3F4B19" />
<rect x="28" y="31" width="1" height="1" fill="#5C520B" />
<rect x="29" y="31" width="1" height="1" fill="#6C7E1B" />
<rect x="30" y="31" width="1" height="1" fill="#5C520B" />
<rect x="31" y="31" width="1" height="1" fill="#3F4B19" />
<rect x="32" y="31" width="1" height="1" fill="#251E14" />
<rect x="33" y="31" width="1" height="2" fill="#68430E" />
<rect x="40" y="31" width="1" height="2" fill="#68430E" />
<rect x="41" y="31" width="1" height="1" fill="#251E14" />
<rect x="42" y="31" width="1" height="1" fill="#3F4B19" />
<rect x="43" y="31" width="1" height="1" fill="#5C520B" />
<rect x="44" y="31" width="1" height="1" fill="#6C7E1B" />
<rect x="45" y="31" width="1" height="1" fill="#5C520B" />
<rect x="46" y="31" width="2" height="1" fill="#3F4B19" />
<rect x="48" y="31" width="1" height="1" fill="#7A6D07" />
<rect x="49" y="31" width="1" height="1" fill="#3B7960" />
<rect x="50" y="31" width="3" height="1" fill="#7A6D07" />
<rect x="53" y="31" width="1" height="1" fill="#3C734B" />
<rect x="56" y="31" width="2" height="1" fill="#4D3D47" />
<rect x="59" y="31" width="2" height="1" fill="#C5570A" />
<rect x="61" y="31" width="1" height="1" fill="#4C3D2A" />
<rect x="62" y="31" width="1" height="2" fill="#371605" />
<rect x="63" y="31" width="1" height="1" fill="#A29E9F" />
<rect x="64" y="31" width="1" height="1" fill="#371605" />
<rect x="65" y="31" width="8" height="1" fill="#4C3D2A" />
<rect x="1" y="32" width="7" height="2" fill="#4C3D2A" />
<rect x="8" y="32" width="2" height="1" fill="#C5570A" />
<rect x="10" y="32" width="1" height="2" fill="#371605" />
<rect x="12" y="32" width="2" height="1" fill="#C5570A" />
<rect x="14" y="32" width="1" height="4" fill="#6C3926" />
<rect x="15" y="32" width="1" height="1" fill="#4D3D47" />
<rect x="16" y="32" width="1" height="1" fill="#394A54" />
<rect x="17" y="32" width="1" height="1" fill="#3B7960" />
<rect x="19" y="32" width="1" height="3" fill="#3B7960" />
<rect x="20" y="32" width="1" height="1" fill="#6C7E1B" />
<rect x="21" y="32" width="1" height="1" fill="#834306" />
<rect x="22" y="32" width="1" height="1" fill="#7A6D07" />
<rect x="23" y="32" width="1" height="1" fill="#4C5111" />
<rect x="24" y="32" width="1" height="1" fill="#834306" />
<rect x="25" y="32" width="1" height="1" fill="#4C5111" />
<rect x="26" y="32" width="1" height="1" fill="#5C520B" />
<rect x="27" y="32" width="1" height="2" fill="#7A6D07" />
<rect x="28" y="32" width="1" height="1" fill="#638838" />
<rect x="29" y="32" width="1" height="1" fill="#3F4B19" />
<rect x="30" y="32" width="1" height="1" fill="#6A602B" />
<rect x="31" y="32" width="1" height="1" fill="#251E14" />
<rect x="32" y="32" width="1" height="2" fill="#68430E" />
<rect x="41" y="32" width="1" height="2" fill="#68430E" />
<rect x="42" y="32" width="1" height="1" fill="#251E14" />
<rect x="43" y="32" width="1" height="1" fill="#6A602B" />
<rect x="44" y="32" width="1" height="1" fill="#3F4B19" />
<rect x="45" y="32" width="1" height="1" fill="#638838" />
<rect x="46" y="32" width="1" height="2" fill="#7A6D07" />
<rect x="47" y="32" width="1" height="1" fill="#5C520B" />
<rect x="48" y="32" width="1" height="1" fill="#4C5111" />
<rect x="49" y="32" width="1" height="1" fill="#834306" />
<rect x="50" y="32" width="1" height="1" fill="#4C5111" />
<rect x="51" y="32" width="1" height="1" fill="#7A6D07" />
<rect x="52" y="32" width="1" height="1" fill="#834306" />
<rect x="53" y="32" width="1" height="1" fill="#6C7E1B" />
<rect x="54" y="32" width="1" height="3" fill="#3B7960" />
<rect x="56" y="32" width="1" height="1" fill="#3B7960" />
<rect x="57" y="32" width="1" height="1" fill="#394A54" />
<rect x="58" y="32" width="1" height="1" fill="#4D3D47" />
<rect x="59" y="32" width="1" height="4" fill="#6C3926" />
<rect x="60" y="32" width="2" height="1" fill="#C5570A" />
<rect x="63" y="32" width="1" height="2" fill="#371605" />
<rect x="64" y="32" width="2" height="1" fill="#C5570A" />
<rect x="66" y="32" width="7" height="2" fill="#4C3D2A" />
<rect x="8" y="33" width="1" height="8" fill="#4C3D2A" />
<rect x="9" y="33" width="1" height="1" fill="#C5570A" />
<rect x="11" y="33" width="1" height="1" fill="#A29E9F" />
<rect x="12" y="33" width="1" height="1" fill="#371605" />
<rect x="13" y="33" width="1" height="2" fill="#4C3D2A" />
<rect x="15" y="33" width="2" height="1" fill="#6C3926" />
<rect x="17" y="33" width="1" height="1" fill="#4D3D47" />
<rect x="20" y="33" width="1" height="1" fill="#3C734B" />
<rect x="21" y="33" width="1" height="1" fill="#638838" />
<rect x="22" y="33" width="1" height="1" fill="#3B7960" />
<rect x="23" y="33" width="4" height="1" fill="#7A6D07" />
<rect x="28" y="33" width="1" height="1" fill="#6C7E1B" />
<rect x="29" y="33" width="1" height="1" fill="#6A602B" />
<rect x="30" y="33" width="1" height="1" fill="#251E14" />
<rect x="31" y="33" width="1" height="3" fill="#68430E" />
<rect x="33" y="33" width="1" height="1" fill="#251E14" />
<rect x="40" y="33" width="1" height="1" fill="#251E14" />
<rect x="42" y="33" width="1" height="3" fill="#68430E" />
<rect x="43" y="33" width="1" height="1" fill="#251E14" />
<rect x="44" y="33" width="1" height="1" fill="#6A602B" />
<rect x="45" y="33" width="1" height="1" fill="#6C7E1B" />
<rect x="47" y="33" width="4" height="1" fill="#7A6D07" />
<rect x="51" y="33" width="1" height="1" fill="#3B7960" />
<rect x="52" y="33" width="1" height="1" fill="#638838" />
<rect x="53" y="33" width="1" height="1" fill="#3C734B" />
<rect x="56" y="33" width="1" height="1" fill="#4D3D47" />
<rect x="57" y="33" width="2" height="1" fill="#6C3926" />
<rect x="60" y="33" width="1" height="2" fill="#4C3D2A" />
<rect x="61" y="33" width="1" height="1" fill="#371605" />
<rect x="62" y="33" width="1" height="1" fill="#A29E9F" />
<rect x="64" y="33" width="1" height="1" fill="#C5570A" />
<rect x="65" y="33" width="1" height="8" fill="#4C3D2A" />
<rect x="2" y="34" width="6" height="1" fill="#4C3D2A" />
<rect x="9" y="34" width="1" height="9" fill="#4C3D2A" />
<rect x="10" y="34" width="1" height="2" fill="#C5570A" />
<rect x="11" y="34" width="1" height="1" fill="#371605" />
<rect x="12" y="34" width="1" height="1" fill="#4C3D2A" />
<rect x="15" y="34" width="1" height="1" fill="#6C3926" />
<rect x="16" y="34" width="1" height="1" fill="#4D3D47" />
<rect x="17" y="34" width="1" height="1" fill="#3F353E" />
<rect x="20" y="34" width="2" height="1" fill="#3B7960" />
<rect x="22" y="34" width="2" height="1" fill="#6C7E1B" />
<rect x="24" y="34" width="2" height="1" fill="#7A6D07" />
<rect x="26" y="34" width="2" height="1" fill="#6C7E1B" />
<rect x="28" y="34" width="1" height="1" fill="#6A602B" />
<rect x="29" y="34" width="1" height="1" fill="#251E14" />
<rect x="30" y="34" width="1" height="4" fill="#68430E" />
<rect x="32" y="34" width="1" height="2" fill="#251E14" />
<rect x="33" y="34" width="1" height="2" fill="#7A8C76" />
<rect x="40" y="34" width="1" height="2" fill="#7A8C76" />
<rect x="41" y="34" width="1" height="2" fill="#251E14" />
<rect x="43" y="34" width="1" height="4" fill="#68430E" />
<rect x="44" y="34" width="1" height="1" fill="#251E14" />
<rect x="45" y="34" width="1" height="1" fill="#6A602B" />
<rect x="46" y="34" width="2" height="1" fill="#6C7E1B" />
<rect x="48" y="34" width="2" height="1" fill="#7A6D07" />
<rect x="50" y="34" width="2" height="1" fill="#6C7E1B" />
<rect x="52" y="34" width="2" height="1" fill="#3B7960" />
<rect x="56" y="34" width="1" height="1" fill="#3F353E" />
<rect x="57" y="34" width="1" height="1" fill="#4D3D47" />
<rect x="58" y="34" width="1" height="1" fill="#6C3926" />
<rect x="61" y="34" width="1" height="1" fill="#4C3D2A" />
<rect x="62" y="34" width="1" height="1" fill="#371605" />
<rect x="63" y="34" width="1" height="2" fill="#C5570A" />
<rect x="64" y="34" width="1" height="9" fill="#4C3D2A" />
<rect x="66" y="34" width="6" height="1" fill="#4C3D2A" />
<rect x="3" y="35" width="5" height="2" fill="#4C3D2A" />
<rect x="11" y="35" width="1" height="1" fill="#C5570A" />
<rect x="12" y="35" width="2" height="2" fill="#6C3926" />
<rect x="15" y="35" width="1" height="1" fill="#4D3D47" />
<rect x="16" y="35" width="1" height="1" fill="#3F353E" />
<rect x="17" y="35" width="4" height="1" fill="#394A54" />
<rect x="21" y="35" width="2" height="1" fill="#3B7960" />
<rect x="23" y="35" width="4" height="1" fill="#6C7E1B" />
<rect x="27" y="35" width="1" height="1" fill="#394A54" />
<rect x="28" y="35" width="1" height="1" fill="#251E14" />
<rect x="29" y="35" width="1" height="5" fill="#68430E" />
<rect x="44" y="35" width="1" height="5" fill="#68430E" />
<rect x="45" y="35" width="1" height="1" fill="#251E14" />
<rect x="46" y="35" width="1" height="1" fill="#394A54" />
<rect x="47" y="35" width="4" height="1" fill="#6C7E1B" />
<rect x="51" y="35" width="2" height="1" fill="#3B7960" />
<rect x="53" y="35" width="4" height="1" fill="#394A54" />
<rect x="57" y="35" width="1" height="1" fill="#3F353E" />
<rect x="58" y="35" width="1" height="1" fill="#4D3D47" />
<rect x="60" y="35" width="2" height="2" fill="#6C3926" />
<rect x="62" y="35" width="1" height="1" fill="#C5570A" />
<rect x="66" y="35" width="5" height="2" fill="#4C3D2A" />
<rect x="10" y="36" width="2" height="7" fill="#4C3D2A" />
<rect x="14" y="36" width="3" height="8" fill="#4C3D2A" />
<rect x="17" y="36" width="1" height="2" fill="#3F353E" />
<rect x="18" y="36" width="3" height="1" fill="#394A54" />
<rect x="21" y="36" width="1" height="4" fill="#3B7960" />
<rect x="22" y="36" width="2" height="1" fill="#638838" />
<rect x="24" y="36" width="1" height="1" fill="#6C7E1B" />
<rect x="25" y="36" width="1" height="1" fill="#3C734B" />
<rect x="26" y="36" width="1" height="1" fill="#394A54" />
<rect x="27" y="36" width="1" height="1" fill="#251E14" />
<rect x="28" y="36" width="1" height="5" fill="#68430E" />
<rect x="31" y="36" width="1" height="2" fill="#251E14" />
<rect x="32" y="36" width="1" height="2" fill="#7A8C76" />
<rect x="33" y="36" width="1" height="14" fill="#221910" />
<rect x="40" y="36" width="1" height="14" fill="#221910" />
<rect x="41" y="36" width="1" height="2" fill="#7A8C76" />
<rect x="42" y="36" width="1" height="2" fill="#251E14" />
<rect x="45" y="36" width="1" height="5" fill="#68430E" />
<rect x="46" y="36" width="1" height="1" fill="#251E14" />
<rect x="47" y="36" width="1" height="1" fill="#394A54" />
<rect x="48" y="36" width="1" height="1" fill="#3C734B" />
<rect x="49" y="36" width="1" height="1" fill="#6C7E1B" />
<rect x="50" y="36" width="2" height="1" fill="#638838" />
<rect x="52" y="36" width="1" height="4" fill="#3B7960" />
<rect x="53" y="36" width="3" height="1" fill="#394A54" />
<rect x="56" y="36" width="1" height="2" fill="#3F353E" />
<rect x="57" y="36" width="3" height="8" fill="#4C3D2A" />
<rect x="62" y="36" width="2" height="7" fill="#4C3D2A" />
<rect x="4" y="37" width="4" height="1" fill="#4C3D2A" />
<rect x="12" y="37" width="2" height="7" fill="#4C3D2A" />
<rect x="18" y="37" width="1" height="3" fill="#3F353E" />
<rect x="19" y="37" width="2" height="2" fill="#394A54" />
<rect x="22" y="37" width="1" height="1" fill="#3B7960" />
<rect x="23" y="37" width="1" height="3" fill="#394A54" />
<rect x="24" y="37" width="1" height="1" fill="#3C734B" />
<rect x="25" y="37" width="1" height="1" fill="#394A54" />
<rect x="26" y="37" width="1" height="1" fill="#251E14" />
<rect x="27" y="37" width="1" height="4" fill="#68430E" />
<rect x="46" y="37" width="1" height="4" fill="#68430E" />
<rect x="47" y="37" width="1" height="1" fill="#251E14" />
<rect x="48" y="37" width="1" height="1" fill="#394A54" />
<rect x="49" y="37" width="1" height="1" fill="#3C734B" />
<rect x="50" y="37" width="1" height="3" fill="#394A54" />
<rect x="51" y="37" width="1" height="1" fill="#3B7960" />
<rect x="53" y="37" width="2" height="2" fill="#394A54" />
<rect x="55" y="37" width="1" height="3" fill="#3F353E" />
<rect x="60" y="37" width="2" height="7" fill="#4C3D2A" />
<rect x="66" y="37" width="4" height="1" fill="#4C3D2A" />
<rect x="5" y="38" width="3" height="1" fill="#4C3D2A" />
<rect x="17" y="38" width="1" height="7" fill="#4C3D2A" />
<rect x="22" y="38" width="1" height="1" fill="#394A54" />
<rect x="24" y="38" width="1" height="1" fill="#394A54" />
<rect x="25" y="38" width="1" height="1" fill="#251E14" />
<rect x="26" y="38" width="1" height="4" fill="#68430E" />
<rect x="30" y="38" width="1" height="2" fill="#251E14" />
<rect x="31" y="38" width="1" height="2" fill="#7A8C76" />
<rect x="32" y="38" width="1" height="1" fill="#68430E" />
<rect x="41" y="38" width="1" height="1" fill="#68430E" />
<rect x="42" y="38" width="1" height="2" fill="#7A8C76" />
<rect x="43" y="38" width="1" height="2" fill="#251E14" />
<rect x="47" y="38" width="1" height="4" fill="#68430E" />
<rect x="48" y="38" width="1" height="1" fill="#251E14" />
<rect x="49" y="38" width="1" height="1" fill="#394A54" />
<rect x="51" y="38" width="1" height="1" fill="#394A54" />
<rect x="56" y="38" width="1" height="7" fill="#4C3D2A" />
<rect x="66" y="38" width="3" height="1" fill="#4C3D2A" />
<rect x="7" y="39" width="1" height="1" fill="#4C3D2A" />
<rect x="19" y="39" width="1" height="2" fill="#3F353E" />
<rect x="20" y="39" width="1" height="2" fill="#394A54" />
<rect x="22" y="39" width="1" height="1" fill="#3F353E" />
<rect x="24" y="39" width="1" height="1" fill="#251E14" />
<rect x="25" y="39" width="1" height="3" fill="#68430E" />
<rect x="32" y="39" width="1" height="12" fill="#221910" />
<rect x="41" y="39" width="1" height="12" fill="#221910" />
<rect x="48" y="39" width="1" height="3" fill="#68430E" />
<rect x="49" y="39" width="1" height="1" fill="#251E14" />
<rect x="51" y="39" width="1" height="1" fill="#3F353E" />
<rect x="53" y="39" width="1" height="2" fill="#394A54" />
<rect x="54" y="39" width="1" height="2" fill="#3F353E" />
<rect x="66" y="39" width="1" height="1" fill="#4C3D2A" />
<rect x="18" y="40" width="1" height="5" fill="#4C3D2A" />
<rect x="21" y="40" width="1" height="1" fill="#3F353E" />
<rect x="22" y="40" width="1" height="1" fill="#394A54" />
<rect x="23" y="40" width="1" height="1" fill="#251E14" />
<rect x="24" y="40" width="1" height="2" fill="#68430E" />
<rect x="29" y="40" width="1" height="2" fill="#251E14" />
<rect x="30" y="40" width="1" height="2" fill="#7A8C76" />
<rect x="31" y="40" width="1" height="3" fill="#68430E" />
<rect x="34" y="40" width="1" height="8" fill="#221910" />
<rect x="39" y="40" width="1" height="8" fill="#221910" />
<rect x="42" y="40" width="1" height="3" fill="#68430E" />
<rect x="43" y="40" width="1" height="2" fill="#7A8C76" />
<rect x="44" y="40" width="1" height="2" fill="#251E14" />
<rect x="49" y="40" width="1" height="2" fill="#68430E" />
<rect x="50" y="40" width="1" height="1" fill="#251E14" />
<rect x="51" y="40" width="1" height="1" fill="#394A54" />
<rect x="52" y="40" width="1" height="1" fill="#3F353E" />
<rect x="55" y="40" width="1" height="5" fill="#4C3D2A" />
<rect x="19" y="41" width="1" height="1" fill="#394A54" />
<rect x="20" y="41" width="1" height="1" fill="#3F353E" />
<rect x="21" y="41" width="1" height="1" fill="#394A54" />
<rect x="22" y="41" width="1" height="1" fill="#251E14" />
<rect x="23" y="41" width="1" height="3" fill="#68430E" />
<rect x="27" y="41" width="2" height="1" fill="#251E14" />
<rect x="45" y="41" width="2" height="1" fill="#251E14" />
<rect x="50" y="41" width="1" height="3" fill="#68430E" />
<rect x="51" y="41" width="1" height="1" fill="#251E14" />
<rect x="52" y="41" width="1" height="1" fill="#394A54" />
<rect x="53" y="41" width="1" height="1" fill="#3F353E" />
<rect x="54" y="41" width="1" height="1" fill="#394A54" />
<rect x="19" y="42" width="1" height="1" fill="#3F353E" />
<rect x="20" y="42" width="1" height="1" fill="#394A54" />
<rect x="21" y="42" width="1" height="1" fill="#251E14" />
<rect x="22" y="42" width="1" height="3" fill="#68430E" />
<rect x="24" y="42" width="3" height="1" fill="#251E14" />
<rect x="27" y="42" width="3" height="1" fill="#7A8C76" />
<rect x="30" y="42" width="1" height="2" fill="#251E14" />
<rect x="43" y="42" width="1" height="2" fill="#251E14" />
<rect x="44" y="42" width="3" height="1" fill="#7A8C76" />
<rect x="47" y="42" width="3" height="1" fill="#251E14" />
<rect x="51" y="42" width="1" height="3" fill="#68430E" />
<rect x="52" y="42" width="1" height="1" fill="#251E14" />
<rect x="53" y="42" width="1" height="1" fill="#394A54" />
<rect x="54" y="42" width="1" height="1" fill="#3F353E" />
<rect x="19" y="43" width="1" height="1" fill="#394A54" />
<rect x="20" y="43" width="1" height="1" fill="#251E14" />
<rect x="21" y="43" width="1" height="1" fill="#68430E" />
<rect x="24" y="43" width="1" height="1" fill="#251E14" />
<rect x="25" y="43" width="2" height="1" fill="#7A8C76" />
<rect x="27" y="43" width="1" height="3" fill="#251E14" />
<rect x="28" y="43" width="1" height="3" fill="#7A8C76" />
<rect x="29" y="43" width="1" height="5" fill="#68430E" />
<rect x="31" y="43" width="1" height="1" fill="#251E14" />
<rect x="42" y="43" width="1" height="1" fill="#251E14" />
<rect x="44" y="43" width="1" height="5" fill="#68430E" />
<rect x="45" y="43" width="1" height="3" fill="#7A8C76" />
<rect x="46" y="43" width="1" height="3" fill="#251E14" />
<rect x="47" y="43" width="2" height="1" fill="#7A8C76" />
<rect x="49" y="43" width="1" height="1" fill="#251E14" />
<rect x="52" y="43" width="1" height="1" fill="#68430E" />
<rect x="53" y="43" width="1" height="1" fill="#251E14" />
<rect x="54" y="43" width="1" height="1" fill="#394A54" />
<rect x="14" y="44" width="2" height="1" fill="#251E14" />
<rect x="16" y="44" width="1" height="1" fill="#4C3D2A" />
<rect x="19" y="44" width="1" height="1" fill="#251E14" />
<rect x="20" y="44" width="1" height="1" fill="#68430E" />
<rect x="21" y="44" width="1" height="1" fill="#C5570A" />
<rect x="23" y="44" width="1" height="2" fill="#251E14" />
<rect x="24" y="44" width="1" height="2" fill="#7A8C76" />
<rect x="25" y="44" width="2" height="2" fill="#68430E" />
<rect x="30" y="44" width="1" height="8" fill="#33321E" />
<rect x="31" y="44" width="1" height="7" fill="#221910" />
<rect x="42" y="44" width="1" height="7" fill="#221910" />
<rect x="43" y="44" width="1" height="8" fill="#33321E" />
<rect x="47" y="44" width="2" height="2" fill="#68430E" />
<rect x="49" y="44" width="1" height="2" fill="#7A8C76" />
<rect x="50" y="44" width="1" height="2" fill="#251E14" />
<rect x="52" y="44" width="1" height="1" fill="#C5570A" />
<rect x="53" y="44" width="1" height="1" fill="#68430E" />
<rect x="54" y="44" width="1" height="1" fill="#251E14" />
<rect x="57" y="44" width="1" height="1" fill="#4C3D2A" />
<rect x="58" y="44" width="2" height="1" fill="#251E14" />
<rect x="14" y="45" width="1" height="3" fill="#A8967E" />
<rect x="15" y="45" width="1" height="2" fill="#565946" />
<rect x="16" y="45" width="3" height="1" fill="#251E14" />
<rect x="19" y="45" width="1" height="2" fill="#565946" />
<rect x="20" y="45" width="1" height="1" fill="#C5570A" />
<rect x="21" y="45" width="1" height="1" fill="#22212F" />
<rect x="22" y="45" width="1" height="1" fill="#C5570A" />
<rect x="35" y="45" width="1" height="4" fill="#A8967E" />
<rect x="38" y="45" width="1" height="4" fill="#A8967E" />
<rect x="51" y="45" width="1" height="1" fill="#C5570A" />
<rect x="52" y="45" width="1" height="1" fill="#22212F" />
<rect x="53" y="45" width="1" height="1" fill="#C5570A" />
<rect x="54" y="45" width="1" height="2" fill="#565946" />
<rect x="55" y="45" width="3" height="1" fill="#251E14" />
<rect x="58" y="45" width="1" height="2" fill="#565946" />
<rect x="59" y="45" width="1" height="3" fill="#A8967E" />
<rect x="16" y="46" width="3" height="2" fill="#565946" />
<rect x="20" y="46" width="1" height="1" fill="#33321E" />
<rect x="21" y="46" width="1" height="1" fill="#C5570A" />
<rect x="22" y="46" width="2" height="1" fill="#7A8C76" />
<rect x="24" y="46" width="2" height="1" fill="#68430E" />
<rect x="26" y="46" width="1" height="4" fill="#251E14" />
<rect x="27" y="46" width="1" height="4" fill="#7A8C76" />
<rect x="28" y="46" width="1" height="2" fill="#68430E" />
<rect x="45" y="46" width="1" height="2" fill="#68430E" />
<rect x="46" y="46" width="1" height="4" fill="#7A8C76" />
<rect x="47" y="46" width="1" height="4" fill="#251E14" />
<rect x="48" y="46" width="2" height="1" fill="#68430E" />
<rect x="50" y="46" width="2" height="1" fill="#7A8C76" />
<rect x="52" y="46" width="1" height="1" fill="#C5570A" />
<rect x="53" y="46" width="1" height="1" fill="#33321E" />
<rect x="55" y="46" width="3" height="2" fill="#565946" />
<rect x="15" y="47" width="1" height="2" fill="#A8967E" />
<rect x="19" y="47" width="1" height="1" fill="#33321E" />
<rect x="20" y="47" width="1" height="2" fill="#565946" />
<rect x="21" y="47" width="2" height="1" fill="#7A8C76" />
<rect x="23" y="47" width="2" height="1" fill="#C5570A" />
<rect x="25" y="47" width="1" height="2" fill="#68430E" />
<rect x="48" y="47" width="1" height="2" fill="#68430E" />
<rect x="49" y="47" width="2" height="1" fill="#C5570A" />
<rect x="51" y="47" width="2" height="1" fill="#7A8C76" />
<rect x="53" y="47" width="1" height="2" fill="#565946" />
<rect x="54" y="47" width="1" height="1" fill="#33321E" />
<rect x="58" y="47" width="1" height="2" fill="#A8967E" />
<rect x="16" y="48" width="1" height="2" fill="#A8967E" />
<rect x="17" y="48" width="1" height="1" fill="#565946" />
<rect x="18" y="48" width="1" height="1" fill="#33321E" />
<rect x="19" y="48" width="1" height="2" fill="#565946" />
<rect x="21" y="48" width="1" height="2" fill="#7A8C76" />
<rect x="22" y="48" width="1" height="1" fill="#565946" />
<rect x="23" y="48" width="1" height="1" fill="#22212F" />
<rect x="24" y="48" width="1" height="1" fill="#C5570A" />
<rect x="28" y="48" width="2" height="1" fill="#C5570A" />
<rect x="34" y="48" width="1" height="3" fill="#A8967E" />
<rect x="39" y="48" width="1" height="3" fill="#A8967E" />
<rect x="44" y="48" width="2" height="1" fill="#C5570A" />
<rect x="49" y="48" width="1" height="1" fill="#C5570A" />
<rect x="50" y="48" width="1" height="1" fill="#22212F" />
<rect x="51" y="48" width="1" height="1" fill="#565946" />
<rect x="52" y="48" width="1" height="2" fill="#7A8C76" />
<rect x="54" y="48" width="1" height="2" fill="#565946" />
<rect x="55" y="48" width="1" height="1" fill="#33321E" />
<rect x="56" y="48" width="1" height="1" fill="#565946" />
<rect x="57" y="48" width="1" height="2" fill="#A8967E" />
<rect x="17" y="49" width="1" height="2" fill="#A8967E" />
<rect x="18" y="49" width="1" height="1" fill="#565946" />
<rect x="20" y="49" width="1" height="2" fill="#7A8C76" />
<rect x="22" y="49" width="1" height="1" fill="#33321E" />
<rect x="23" y="49" width="3" height="3" fill="#565946" />
<rect x="28" y="49" width="1" height="1" fill="#22212F" />
<rect x="29" y="49" width="1" height="1" fill="#C5570A" />
<rect x="44" y="49" width="1" height="1" fill="#C5570A" />
<rect x="45" y="49" width="1" height="1" fill="#22212F" />
<rect x="48" y="49" width="3" height="3" fill="#565946" />
<rect x="51" y="49" width="1" height="1" fill="#33321E" />
<rect x="53" y="49" width="1" height="2" fill="#7A8C76" />
<rect x="55" y="49" width="1" height="1" fill="#565946" />
<rect x="56" y="49" width="1" height="2" fill="#A8967E" />
<rect x="18" y="50" width="2" height="1" fill="#A8967E" />
<rect x="21" y="50" width="1" height="2" fill="#33321E" />
<rect x="22" y="50" width="1" height="2" fill="#565946" />
<rect x="26" y="50" width="1" height="1" fill="#7A8C76" />
<rect x="27" y="50" width="1" height="1" fill="#33321E" />
<rect x="28" y="50" width="2" height="1" fill="#565946" />
<rect x="33" y="50" width="1" height="2" fill="#A8967E" />
<rect x="40" y="50" width="1" height="2" fill="#A8967E" />
<rect x="44" y="50" width="2" height="1" fill="#565946" />
<rect x="46" y="50" width="1" height="1" fill="#33321E" />
<rect x="47" y="50" width="1" height="1" fill="#7A8C76" />
<rect x="51" y="50" width="1" height="2" fill="#565946" />
<rect x="52" y="50" width="1" height="2" fill="#33321E" />
<rect x="54" y="50" width="2" height="1" fill="#A8967E" />
<rect x="19" y="51" width="2" height="1" fill="#A8967E" />
<rect x="26" y="51" width="1" height="1" fill="#33321E" />
<rect x="27" y="51" width="2" height="1" fill="#7A8C76" />
<rect x="29" y="51" width="1" height="1" fill="#565946" />
<rect x="31" y="51" width="2" height="1" fill="#A8967E" />
<rect x="41" y="51" width="2" height="1" fill="#A8967E" />
<rect x="44" y="51" width="1" height="1" fill="#565946" />
<rect x="45" y="51" width="2" height="1" fill="#7A8C76" />
<rect x="47" y="51" width="1" height="1" fill="#33321E" />
<rect x="53" y="51" width="2" height="1" fill="#A8967E" />
<rect x="20" y="52" width="12" height="1" fill="#A8967E" />
<rect x="42" y="52" width="12" height="1" fill="#A8967E" />
</svg>