<?xml version="1.0" encoding="UTF-8" ?>
<svg version="1.1" width="75" height="75" xmlns="http://www.w3.org/2000/svg" shape-rendering="crispEdges">
<rect x="25" y="12" width="2" height="2" fill="#250C00" />
<rect x="49" y="12" width="2" height="2" fill="#250C00" />
<rect x="27" y="14" width="1" height="1" fill="#250C00" />
<rect x="48" y="14" width="1" height="1" fill="#250C00" />
<rect x="28" y="15" width="1" height="1" fill="#250C00" />
<rect x="47" y="15" width="1" height="1" fill="#250C00" />
<rect x="29" y="16" width="1" height="1" fill="#250C00" />
<rect x="46" y="16" width="1" height="1" fill="#250C00" />
<rect x="30" y="17" width="1" height="1" fill="#250C00" />
<rect x="45" y="17" width="1" height="1" fill="#250C00" />
<rect x="31" y="18" width="1" height="1" fill="#250C00" />
<rect x="44" y="18" width="1" height="1" fill="#250C00" />
<rect x="32" y="19" width="1" height="2" fill="#250C00" />
<rect x="43" y="19" width="1" height="2" fill="#250C00" />
<rect x="33" y="21" width="1" height="1" fill="#250C00" />
<rect x="42" y="21" width="1" height="1" fill="#250C00" />
<rect x="34" y="22" width="1" height="1" fill="#250C00" />
<rect x="41" y="22" width="1" height="1" fill="#250C00" />
<rect x="35" y="23" width="1" height="1" fill="#250C00" />
<rect x="40" y="23" width="1" height="1" fill="#250C00" />
<rect x="36" y="24" width="1" height="1" fill="#250C00" />
<rect x="39" y="24" width="1" height="1" fill="#250C00" />
<rect x="37" y="25" width="2" height="29" fill="#BE7C25" />
<rect x="36" y="26" width="1" height="28" fill="#BE7C25" />
<rect x="39" y="26" width="1" height="28" fill="#BE7C25" />
<rect x="17" y="27" width="1" height="6" fill="#FB9212" />
<rect x="18" y="27" width="2" height="1" fill="#250C00" />
<rect x="20" y="27" width="1" height="1" fill="#FB9212" />
<rect x="21" y="27" width="2" height="3" fill="#250C00" />
<rect x="23" y="27" width="6" height="2" fill="#FB9212" />
<rect x="35" y="27" width="1" height="26" fill="#BE7C25" />
<rect x="40" y="27" width="1" height="26" fill="#BE7C25" />
<rect x="47" y="27" width="6" height="2" fill="#FB9212" />
<rect x="53" y="27" width="2" height="3" fill="#250C00" />
<rect x="55" y="27" width="1" height="1" fill="#FB9212" />
<rect x="56" y="27" width="2" height="1" fill="#250C00" />
<rect x="58" y="27" width="1" height="6" fill="#FB9212" />
<rect x="11" y="28" width="1" height="1" fill="#250C00" />
<rect x="12" y="28" width="2" height="6" fill="#FB9212" />
<rect x="14" y="28" width="2" height="3" fill="#250C00" />
<rect x="16" y="28" width="1" height="5" fill="#FB9212" />
<rect x="18" y="28" width="1" height="4" fill="#250C00" />
<rect x="19" y="28" width="1" height="6" fill="#FB9212" />
<rect x="20" y="28" width="1" height="4" fill="#250C00" />
<rect x="29" y="28" width="2" height="7" fill="#FB9212" />
<rect x="45" y="28" width="2" height="7" fill="#FB9212" />
<rect x="55" y="28" width="1" height="4" fill="#250C00" />
<rect x="56" y="28" width="1" height="6" fill="#FB9212" />
<rect x="57" y="28" width="1" height="4" fill="#250C00" />
<rect x="59" y="28" width="1" height="5" fill="#FB9212" />
<rect x="60" y="28" width="2" height="3" fill="#250C00" />
<rect x="62" y="28" width="2" height="6" fill="#FB9212" />
<rect x="64" y="28" width="1" height="1" fill="#250C00" />
<rect x="7" y="29" width="4" height="1" fill="#250C00" />
<rect x="11" y="29" width="1" height="8" fill="#FB9212" />
<rect x="23" y="29" width="2" height="1" fill="#FB9212" />
<rect x="25" y="29" width="3" height="1" fill="#250C00" />
<rect x="28" y="29" width="1" height="1" fill="#FB9212" />
<rect x="31" y="29" width="2" height="3" fill="#FB9212" />
<rect x="43" y="29" width="2" height="3" fill="#FB9212" />
<rect x="47" y="29" width="1" height="1" fill="#FB9212" />
<rect x="48" y="29" width="3" height="1" fill="#250C00" />
<rect x="51" y="29" width="2" height="1" fill="#FB9212" />
<rect x="64" y="29" width="1" height="8" fill="#FB9212" />
<rect x="65" y="29" width="4" height="1" fill="#250C00" />
<rect x="7" y="30" width="1" height="2" fill="#250C00" />
<rect x="8" y="30" width="3" height="2" fill="#FB9212" />
<rect x="21" y="30" width="1" height="3" fill="#250C00" />
<rect x="22" y="30" width="2" height="6" fill="#FB9212" />
<rect x="24" y="30" width="1" height="3" fill="#250C00" />
<rect x="25" y="30" width="3" height="3" fill="#FB9212" />
<rect x="28" y="30" width="1" height="3" fill="#250C00" />
<rect x="33" y="30" width="1" height="1" fill="#FB9212" />
<rect x="34" y="30" width="1" height="21" fill="#BE7C25" />
<rect x="41" y="30" width="1" height="21" fill="#BE7C25" />
<rect x="42" y="30" width="1" height="1" fill="#FB9212" />
<rect x="47" y="30" width="1" height="3" fill="#250C00" />
<rect x="48" y="30" width="3" height="3" fill="#FB9212" />
<rect x="51" y="30" width="1" height="3" fill="#250C00" />
<rect x="52" y="30" width="2" height="6" fill="#FB9212" />
<rect x="54" y="30" width="1" height="3" fill="#250C00" />
<rect x="65" y="30" width="3" height="2" fill="#FB9212" />
<rect x="68" y="30" width="1" height="2" fill="#250C00" />
<rect x="5" y="31" width="2" height="1" fill="#250C00" />
<rect x="14" y="31" width="1" height="1" fill="#250C00" />
<rect x="15" y="31" width="1" height="5" fill="#FB9212" />
<rect x="33" y="31" width="1" height="18" fill="#BE7C25" />
<rect x="42" y="31" width="1" height="18" fill="#BE7C25" />
<rect x="60" y="31" width="1" height="5" fill="#FB9212" />
<rect x="61" y="31" width="1" height="1" fill="#250C00" />
<rect x="69" y="31" width="2" height="1" fill="#250C00" />
<rect x="3" y="32" width="3" height="1" fill="#250C00" />
<rect x="6" y="32" width="3" height="1" fill="#FB9212" />
<rect x="9" y="32" width="2" height="2" fill="#250C00" />
<rect x="14" y="32" width="1" height="5" fill="#FB9212" />
<rect x="18" y="32" width="1" height="7" fill="#FB9212" />
<rect x="20" y="32" width="1" height="2" fill="#FB9212" />
<rect x="31" y="32" width="1" height="1" fill="#FB9212" />
<rect x="32" y="32" width="1" height="14" fill="#BE7C25" />
<rect x="43" y="32" width="1" height="14" fill="#BE7C25" />
<rect x="44" y="32" width="1" height="1" fill="#FB9212" />
<rect x="55" y="32" width="1" height="2" fill="#FB9212" />
<rect x="57" y="32" width="1" height="7" fill="#FB9212" />
<rect x="61" y="32" width="1" height="5" fill="#FB9212" />
<rect x="65" y="32" width="2" height="2" fill="#250C00" />
<rect x="67" y="32" width="3" height="1" fill="#FB9212" />
<rect x="70" y="32" width="3" height="1" fill="#250C00" />
<rect x="2" y="33" width="2" height="2" fill="#250C00" />
<rect x="4" y="33" width="2" height="1" fill="#FB9212" />
<rect x="6" y="33" width="1" height="1" fill="#250C00" />
<rect x="7" y="33" width="2" height="1" fill="#FB9212" />
<rect x="16" y="33" width="2" height="1" fill="#250C00" />
<rect x="21" y="33" width="1" height="2" fill="#FB9212" />
<rect x="24" y="33" width="1" height="2" fill="#FB9212" />
<rect x="25" y="33" width="3" height="1" fill="#250C00" />
<rect x="28" y="33" width="1" height="3" fill="#FB9212" />
<rect x="31" y="33" width="1" height="8" fill="#BE7C25" />
<rect x="44" y="33" width="1" height="8" fill="#BE7C25" />
<rect x="47" y="33" width="1" height="3" fill="#FB9212" />
<rect x="48" y="33" width="3" height="1" fill="#250C00" />
<rect x="51" y="33" width="1" height="2" fill="#FB9212" />
<rect x="54" y="33" width="1" height="2" fill="#FB9212" />
<rect x="58" y="33" width="2" height="1" fill="#250C00" />
<rect x="67" y="33" width="2" height="1" fill="#FB9212" />
<rect x="69" y="33" width="1" height="1" fill="#250C00" />
<rect x="70" y="33" width="2" height="1" fill="#FB9212" />
<rect x="72" y="33" width="2" height="2" fill="#250C00" />
<rect x="4" y="34" width="1" height="4" fill="#250C00" />
<rect x="5" y="34" width="2" height="2" fill="#FB9212" />
<rect x="7" y="34" width="1" height="2" fill="#250C00" />
<rect x="8" y="34" width="3" height="1" fill="#FB9212" />
<rect x="12" y="34" width="2" height="2" fill="#250C00" />
<rect x="16" y="34" width="2" height="2" fill="#FB9212" />
<rect x="19" y="34" width="2" height="1" fill="#250C00" />
<rect x="25" y="34" width="1" height="2" fill="#250C00" />
<rect x="26" y="34" width="2" height="3" fill="#FB9212" />
<rect x="48" y="34" width="2" height="3" fill="#FB9212" />
<rect x="50" y="34" width="1" height="2" fill="#250C00" />
<rect x="55" y="34" width="2" height="1" fill="#250C00" />
<rect x="58" y="34" width="2" height="2" fill="#FB9212" />
<rect x="62" y="34" width="2" height="2" fill="#250C00" />
<rect x="65" y="34" width="3" height="1" fill="#FB9212" />
<rect x="68" y="34" width="1" height="2" fill="#250C00" />
<rect x="69" y="34" width="2" height="2" fill="#FB9212" />
<rect x="71" y="34" width="1" height="4" fill="#250C00" />
<rect x="3" y="35" width="1" height="2" fill="#250C00" />
<rect x="8" y="35" width="1" height="2" fill="#250C00" />
<rect x="9" y="35" width="2" height="5" fill="#FB9212" />
<rect x="19" y="35" width="1" height="4" fill="#FB9212" />
<rect x="20" y="35" width="2" height="1" fill="#250C00" />
<rect x="24" y="35" width="1" height="2" fill="#250C00" />
<rect x="29" y="35" width="1" height="1" fill="#FB9212" />
<rect x="30" y="35" width="1" height="1" fill="#250C00" />
<rect x="45" y="35" width="1" height="1" fill="#250C00" />
<rect x="46" y="35" width="1" height="1" fill="#FB9212" />
<rect x="51" y="35" width="1" height="2" fill="#250C00" />
<rect x="54" y="35" width="2" height="1" fill="#250C00" />
<rect x="56" y="35" width="1" height="4" fill="#FB9212" />
<rect x="65" y="35" width="2" height="5" fill="#FB9212" />
<rect x="67" y="35" width="1" height="2" fill="#250C00" />
<rect x="72" y="35" width="1" height="2" fill="#250C00" />
<rect x="5" y="36" width="1" height="3" fill="#250C00" />
<rect x="6" y="36" width="2" height="1" fill="#FB9212" />
<rect x="12" y="36" width="2" height="2" fill="#FB9212" />
<rect x="15" y="36" width="3" height="2" fill="#250C00" />
<rect x="20" y="36" width="1" height="1" fill="#250C00" />
<rect x="21" y="36" width="2" height="4" fill="#FB9212" />
<rect x="23" y="36" width="1" height="2" fill="#250C00" />
<rect x="25" y="36" width="1" height="2" fill="#FB9212" />
<rect x="28" y="36" width="2" height="1" fill="#250C00" />
<rect x="30" y="36" width="1" height="11" fill="#FB9212" />
<rect x="45" y="36" width="1" height="11" fill="#FB9212" />
<rect x="46" y="36" width="2" height="1" fill="#250C00" />
<rect x="50" y="36" width="1" height="2" fill="#FB9212" />
<rect x="52" y="36" width="1" height="2" fill="#250C00" />
<rect x="53" y="36" width="2" height="4" fill="#FB9212" />
<rect x="55" y="36" width="1" height="1" fill="#250C00" />
<rect x="58" y="36" width="3" height="2" fill="#250C00" />
<rect x="62" y="36" width="2" height="2" fill="#FB9212" />
<rect x="68" y="36" width="2" height="1" fill="#FB9212" />
<rect x="70" y="36" width="1" height="3" fill="#250C00" />
<rect x="74" y="36" width="1" height="1" fill="#818284" />
<rect x="6" y="37" width="1" height="3" fill="#250C00" />
<rect x="7" y="37" width="2" height="1" fill="#FB9212" />
<rect x="11" y="37" width="1" height="2" fill="#250C00" />
<rect x="14" y="37" width="1" height="1" fill="#250C00" />
<rect x="20" y="37" width="1" height="5" fill="#FB9212" />
<rect x="24" y="37" width="1" height="2" fill="#FB9212" />
<rect x="26" y="37" width="1" height="1" fill="#FB9212" />
<rect x="27" y="37" width="1" height="1" fill="#250C00" />
<rect x="28" y="37" width="2" height="5" fill="#FB9212" />
<rect x="46" y="37" width="2" height="5" fill="#FB9212" />
<rect x="48" y="37" width="1" height="1" fill="#250C00" />
<rect x="49" y="37" width="1" height="1" fill="#FB9212" />
<rect x="51" y="37" width="1" height="2" fill="#FB9212" />
<rect x="55" y="37" width="1" height="5" fill="#FB9212" />
<rect x="61" y="37" width="1" height="1" fill="#250C00" />
<rect x="64" y="37" width="1" height="2" fill="#250C00" />
<rect x="67" y="37" width="2" height="1" fill="#FB9212" />
<rect x="69" y="37" width="1" height="3" fill="#250C00" />
<rect x="7" y="38" width="1" height="3" fill="#250C00" />
<rect x="8" y="38" width="1" height="1" fill="#FB9212" />
<rect x="12" y="38" width="1" height="2" fill="#250C00" />
<rect x="13" y="38" width="2" height="3" fill="#FB9212" />
<rect x="15" y="38" width="1" height="1" fill="#250C00" />
<rect x="16" y="38" width="2" height="2" fill="#FB9212" />
<rect x="23" y="38" width="1" height="2" fill="#FB9212" />
<rect x="25" y="38" width="2" height="1" fill="#250C00" />
<rect x="27" y="38" width="1" height="3" fill="#FB9212" />
<rect x="48" y="38" width="1" height="3" fill="#FB9212" />
<rect x="49" y="38" width="2" height="1" fill="#250C00" />
<rect x="52" y="38" width="1" height="2" fill="#FB9212" />
<rect x="58" y="38" width="2" height="2" fill="#FB9212" />
<rect x="60" y="38" width="1" height="1" fill="#250C00" />
<rect x="61" y="38" width="2" height="3" fill="#FB9212" />
<rect x="63" y="38" width="1" height="2" fill="#250C00" />
<rect x="67" y="38" width="1" height="1" fill="#FB9212" />
<rect x="68" y="38" width="1" height="3" fill="#250C00" />
<rect x="8" y="39" width="1" height="3" fill="#250C00" />
<rect x="11" y="39" width="1" height="3" fill="#FB9212" />
<rect x="15" y="39" width="1" height="3" fill="#FB9212" />
<rect x="18" y="39" width="2" height="2" fill="#250C00" />
<rect x="24" y="39" width="1" height="1" fill="#250C00" />
<rect x="25" y="39" width="2" height="1" fill="#FB9212" />
<rect x="49" y="39" width="2" height="1" fill="#FB9212" />
<rect x="51" y="39" width="1" height="1" fill="#250C00" />
<rect x="56" y="39" width="2" height="2" fill="#250C00" />
<rect x="60" y="39" width="1" height="3" fill="#FB9212" />
<rect x="64" y="39" width="1" height="3" fill="#FB9212" />
<rect x="67" y="39" width="1" height="3" fill="#250C00" />
<rect x="9" y="40" width="1" height="3" fill="#250C00" />
<rect x="10" y="40" width="1" height="1" fill="#FB9212" />
<rect x="12" y="40" width="1" height="3" fill="#FB9212" />
<rect x="16" y="40" width="1" height="5" fill="#FB9212" />
<rect x="17" y="40" width="1" height="1" fill="#250C00" />
<rect x="21" y="40" width="1" height="1" fill="#FB9212" />
<rect x="22" y="40" width="2" height="1" fill="#250C00" />
<rect x="24" y="40" width="2" height="6" fill="#FB9212" />
<rect x="26" y="40" width="1" height="2" fill="#250C00" />
<rect x="49" y="40" width="1" height="2" fill="#250C00" />
<rect x="50" y="40" width="2" height="6" fill="#FB9212" />
<rect x="52" y="40" width="2" height="1" fill="#250C00" />
<rect x="54" y="40" width="1" height="1" fill="#FB9212" />
<rect x="58" y="40" width="1" height="1" fill="#250C00" />
<rect x="59" y="40" width="1" height="5" fill="#FB9212" />
<rect x="63" y="40" width="1" height="3" fill="#FB9212" />
<rect x="65" y="40" width="1" height="1" fill="#FB9212" />
<rect x="66" y="40" width="1" height="3" fill="#250C00" />
<rect x="10" y="41" width="1" height="3" fill="#250C00" />
<rect x="13" y="41" width="1" height="3" fill="#FB9212" />
<rect x="14" y="41" width="1" height="2" fill="#250C00" />
<rect x="17" y="41" width="1" height="4" fill="#FB9212" />
<rect x="18" y="41" width="1" height="1" fill="#250C00" />
<rect x="19" y="41" width="1" height="2" fill="#FB9212" />
<rect x="21" y="41" width="1" height="1" fill="#250C00" />
<rect x="22" y="41" width="2" height="1" fill="#FB9212" />
<rect x="27" y="41" width="1" height="2" fill="#250C00" />
<rect x="31" y="41" width="1" height="7" fill="#FB9212" />
<rect x="44" y="41" width="1" height="7" fill="#FB9212" />
<rect x="48" y="41" width="1" height="2" fill="#250C00" />
<rect x="52" y="41" width="2" height="1" fill="#FB9212" />
<rect x="54" y="41" width="1" height="1" fill="#250C00" />
<rect x="56" y="41" width="1" height="2" fill="#FB9212" />
<rect x="57" y="41" width="1" height="1" fill="#250C00" />
<rect x="58" y="41" width="1" height="4" fill="#FB9212" />
<rect x="61" y="41" width="1" height="2" fill="#250C00" />
<rect x="62" y="41" width="1" height="3" fill="#FB9212" />
<rect x="65" y="41" width="1" height="3" fill="#250C00" />
<rect x="11" y="42" width="1" height="3" fill="#250C00" />
<rect x="15" y="42" width="1" height="2" fill="#250C00" />
<rect x="18" y="42" width="1" height="2" fill="#FB9212" />
<rect x="20" y="42" width="1" height="1" fill="#250C00" />
<rect x="21" y="42" width="2" height="1" fill="#FB9212" />
<rect x="23" y="42" width="1" height="1" fill="#250C00" />
<rect x="26" y="42" width="1" height="7" fill="#FB9212" />
<rect x="28" y="42" width="1" height="1" fill="#250C00" />
<rect x="29" y="42" width="1" height="8" fill="#FB9212" />
<rect x="46" y="42" width="1" height="8" fill="#FB9212" />
<rect x="47" y="42" width="1" height="1" fill="#250C00" />
<rect x="49" y="42" width="1" height="7" fill="#FB9212" />
<rect x="52" y="42" width="1" height="1" fill="#250C00" />
<rect x="53" y="42" width="2" height="1" fill="#FB9212" />
<rect x="55" y="42" width="1" height="1" fill="#250C00" />
<rect x="57" y="42" width="1" height="2" fill="#FB9212" />
<rect x="60" y="42" width="1" height="2" fill="#250C00" />
<rect x="64" y="42" width="1" height="3" fill="#250C00" />
<rect x="12" y="43" width="1" height="3" fill="#250C00" />
<rect x="14" y="43" width="1" height="2" fill="#FB9212" />
<rect x="19" y="43" width="1" height="1" fill="#250C00" />
<rect x="20" y="43" width="2" height="6" fill="#FB9212" />
<rect x="22" y="43" width="1" height="1" fill="#250C00" />
<rect x="23" y="43" width="1" height="2" fill="#FB9212" />
<rect x="27" y="43" width="2" height="2" fill="#FB9212" />
<rect x="47" y="43" width="2" height="2" fill="#FB9212" />
<rect x="52" y="43" width="1" height="2" fill="#FB9212" />
<rect x="53" y="43" width="1" height="1" fill="#250C00" />
<rect x="54" y="43" width="2" height="6" fill="#FB9212" />
<rect x="56" y="43" width="1" height="1" fill="#250C00" />
<rect x="61" y="43" width="1" height="2" fill="#FB9212" />
<rect x="63" y="43" width="1" height="3" fill="#250C00" />
<rect x="13" y="44" width="1" height="3" fill="#250C00" />
<rect x="15" y="44" width="1" height="2" fill="#FB9212" />
<rect x="18" y="44" width="1" height="1" fill="#250C00" />
<rect x="19" y="44" width="1" height="2" fill="#FB9212" />
<rect x="22" y="44" width="1" height="5" fill="#FB9212" />
<rect x="53" y="44" width="1" height="5" fill="#FB9212" />
<rect x="56" y="44" width="1" height="2" fill="#FB9212" />
<rect x="57" y="44" width="1" height="1" fill="#250C00" />
<rect x="60" y="44" width="1" height="2" fill="#FB9212" />
<rect x="62" y="44" width="1" height="3" fill="#250C00" />
<rect x="14" y="45" width="1" height="2" fill="#250C00" />
<rect x="16" y="45" width="2" height="1" fill="#250C00" />
<rect x="18" y="45" width="1" height="4" fill="#FB9212" />
<rect x="23" y="45" width="1" height="2" fill="#250C00" />
<rect x="27" y="45" width="2" height="1" fill="#250C00" />
<rect x="47" y="45" width="2" height="1" fill="#250C00" />
<rect x="52" y="45" width="1" height="2" fill="#250C00" />
<rect x="57" y="45" width="1" height="4" fill="#FB9212" />
<rect x="58" y="45" width="2" height="1" fill="#250C00" />
<rect x="61" y="45" width="1" height="2" fill="#250C00" />
<rect x="15" y="46" width="1" height="3" fill="#250C00" />
<rect x="16" y="46" width="2" height="1" fill="#FB9212" />
<rect x="19" y="46" width="1" height="2" fill="#250C00" />
<rect x="24" y="46" width="1" height="1" fill="#250C00" />
<rect x="25" y="46" width="1" height="3" fill="#FB9212" />
<rect x="27" y="46" width="1" height="8" fill="#FB9212" />
<rect x="28" y="46" width="1" height="1" fill="#250C00" />
<rect x="32" y="46" width="1" height="7" fill="#FB9212" />
<rect x="43" y="46" width="1" height="7" fill="#FB9212" />
<rect x="47" y="46" width="1" height="1" fill="#250C00" />
<rect x="48" y="46" width="1" height="8" fill="#FB9212" />
<rect x="50" y="46" width="1" height="3" fill="#FB9212" />
<rect x="51" y="46" width="1" height="1" fill="#250C00" />
<rect x="56" y="46" width="1" height="2" fill="#250C00" />
<rect x="58" y="46" width="2" height="1" fill="#FB9212" />
<rect x="60" y="46" width="1" height="3" fill="#250C00" />
<rect x="16" y="47" width="1" height="3" fill="#250C00" />
<rect x="17" y="47" width="1" height="1" fill="#FB9212" />
<rect x="23" y="47" width="2" height="3" fill="#FB9212" />
<rect x="28" y="47" width="1" height="6" fill="#FB9212" />
<rect x="30" y="47" width="1" height="1" fill="#250C00" />
<rect x="45" y="47" width="1" height="1" fill="#250C00" />
<rect x="47" y="47" width="1" height="6" fill="#FB9212" />
<rect x="51" y="47" width="2" height="3" fill="#FB9212" />
<rect x="58" y="47" width="1" height="1" fill="#FB9212" />
<rect x="59" y="47" width="1" height="3" fill="#250C00" />
<rect x="17" y="48" width="1" height="3" fill="#250C00" />
<rect x="19" y="48" width="1" height="2" fill="#FB9212" />
<rect x="30" y="48" width="1" height="2" fill="#FB9212" />
<rect x="31" y="48" width="1" height="1" fill="#250C00" />
<rect x="44" y="48" width="1" height="1" fill="#250C00" />
<rect x="45" y="48" width="1" height="2" fill="#FB9212" />
<rect x="56" y="48" width="1" height="2" fill="#FB9212" />
<rect x="58" y="48" width="1" height="3" fill="#250C00" />
<rect x="18" y="49" width="1" height="3" fill="#250C00" />
<rect x="20" y="49" width="1" height="3" fill="#FB9212" />
<rect x="21" y="49" width="2" height="1" fill="#250C00" />
<rect x="25" y="49" width="2" height="2" fill="#250C00" />
<rect x="31" y="49" width="1" height="5" fill="#FB9212" />
<rect x="33" y="49" width="1" height="5" fill="#FB9212" />
<rect x="42" y="49" width="1" height="5" fill="#FB9212" />
<rect x="44" y="49" width="1" height="5" fill="#FB9212" />
<rect x="49" y="49" width="2" height="2" fill="#250C00" />
<rect x="53" y="49" width="2" height="1" fill="#250C00" />
<rect x="55" y="49" width="1" height="3" fill="#FB9212" />
<rect x="57" y="49" width="1" height="3" fill="#250C00" />
<rect x="19" y="50" width="1" height="3" fill="#250C00" />
<rect x="21" y="50" width="1" height="3" fill="#FB9212" />
<rect x="22" y="50" width="2" height="1" fill="#250C00" />
<rect x="24" y="50" width="1" height="5" fill="#FB9212" />
<rect x="29" y="50" width="2" height="2" fill="#250C00" />
<rect x="45" y="50" width="2" height="2" fill="#250C00" />
<rect x="51" y="50" width="1" height="5" fill="#FB9212" />
<rect x="52" y="50" width="2" height="1" fill="#250C00" />
<rect x="54" y="50" width="1" height="3" fill="#FB9212" />
<rect x="56" y="50" width="1" height="3" fill="#250C00" />
<rect x="22" y="51" width="1" height="2" fill="#FB9212" />
<rect x="23" y="51" width="1" height="1" fill="#250C00" />
<rect x="25" y="51" width="2" height="4" fill="#FB9212" />
<rect x="34" y="51" width="1" height="5" fill="#FB9212" />
<rect x="41" y="51" width="1" height="5" fill="#FB9212" />
<rect x="49" y="51" width="2" height="4" fill="#FB9212" />
<rect x="52" y="51" width="1" height="1" fill="#250C00" />
<rect x="53" y="51" width="1" height="2" fill="#FB9212" />
<rect x="20" y="52" width="1" height="2" fill="#250C00" />
<rect x="23" y="52" width="1" height="2" fill="#FB9212" />
<rect x="29" y="52" width="2" height="2" fill="#FB9212" />
<rect x="45" y="52" width="2" height="2" fill="#FB9212" />
<rect x="52" y="52" width="1" height="2" fill="#FB9212" />
<rect x="55" y="52" width="1" height="2" fill="#250C00" />
<rect x="21" y="53" width="2" height="2" fill="#250C00" />
<rect x="28" y="53" width="1" height="1" fill="#250C00" />
<rect x="32" y="53" width="1" height="1" fill="#250C00" />
<rect x="35" y="53" width="1" height="2" fill="#FB9212" />
<rect x="40" y="53" width="1" height="2" fill="#FB9212" />
<rect x="43" y="53" width="1" height="1" fill="#250C00" />
<rect x="47" y="53" width="1" height="1" fill="#250C00" />
<rect x="53" y="53" width="2" height="2" fill="#250C00" />
<rect x="23" y="54" width="1" height="2" fill="#250C00" />
<rect x="27" y="54" width="1" height="1" fill="#250C00" />
<rect x="28" y="54" width="1" height="2" fill="#FB9212" />
<rect x="29" y="54" width="1" height="1" fill="#250C00" />
<rect x="30" y="54" width="1" height="2" fill="#FB9212" />
<rect x="31" y="54" width="1" height="1" fill="#250C00" />
<rect x="32" y="54" width="1" height="2" fill="#FB9212" />
<rect x="33" y="54" width="1" height="1" fill="#250C00" />
<rect x="36" y="54" width="4" height="1" fill="#250C00" />
<rect x="42" y="54" width="1" height="1" fill="#250C00" />
<rect x="43" y="54" width="1" height="2" fill="#FB9212" />
<rect x="44" y="54" width="1" height="1" fill="#250C00" />
<rect x="45" y="54" width="1" height="2" fill="#FB9212" />
<rect x="46" y="54" width="1" height="1" fill="#250C00" />
<rect x="47" y="54" width="1" height="2" fill="#FB9212" />
<rect x="48" y="54" width="1" height="1" fill="#250C00" />
<rect x="52" y="54" width="1" height="2" fill="#250C00" />
<rect x="22" y="55" width="1" height="1" fill="#250C00" />
<rect x="24" y="55" width="2" height="2" fill="#250C00" />
<rect x="26" y="55" width="2" height="1" fill="#FB9212" />
<rect x="29" y="55" width="1" height="1" fill="#FB9212" />
<rect x="31" y="55" width="1" height="1" fill="#FB9212" />
<rect x="33" y="55" width="1" height="1" fill="#FB9212" />
<rect x="35" y="55" width="2" height="2" fill="#250C00" />
<rect x="39" y="55" width="2" height="2" fill="#250C00" />
<rect x="42" y="55" width="1" height="1" fill="#FB9212" />
<rect x="44" y="55" width="1" height="1" fill="#FB9212" />
<rect x="46" y="55" width="1" height="1" fill="#FB9212" />
<rect x="48" y="55" width="2" height="1" fill="#FB9212" />
<rect x="50" y="55" width="2" height="2" fill="#250C00" />
<rect x="53" y="55" width="1" height="1" fill="#250C00" />
<rect x="26" y="56" width="9" height="1" fill="#250C00" />
<rect x="41" y="56" width="9" height="1" fill="#250C00" />
</svg>