<?xml version="1.0" encoding="UTF-8" ?>
<svg version="1.1" width="75" height="75" xmlns="http://www.w3.org/2000/svg" shape-rendering="crispEdges">
<rect x="27" y="21" width="1" height="1" fill="#0C0200" />
<rect x="48" y="21" width="1" height="1" fill="#0C0200" />
<rect x="28" y="22" width="1" height="1" fill="#0C0200" />
<rect x="47" y="22" width="1" height="1" fill="#0C0200" />
<rect x="29" y="23" width="1" height="1" fill="#0C0200" />
<rect x="46" y="23" width="1" height="1" fill="#0C0200" />
<rect x="30" y="24" width="1" height="1" fill="#0C0200" />
<rect x="45" y="24" width="1" height="1" fill="#0C0200" />
<rect x="31" y="25" width="1" height="1" fill="#0C0200" />
<rect x="44" y="25" width="1" height="1" fill="#0C0200" />
<rect x="32" y="26" width="1" height="1" fill="#0C0200" />
<rect x="43" y="26" width="1" height="1" fill="#0C0200" />
<rect x="33" y="27" width="1" height="1" fill="#0C0200" />
<rect x="42" y="27" width="1" height="1" fill="#0C0200" />
<rect x="34" y="28" width="1" height="1" fill="#0C0200" />
<rect x="41" y="28" width="1" height="1" fill="#0C0200" />
<rect x="35" y="29" width="1" height="1" fill="#0C0200" />
<rect x="40" y="29" width="1" height="1" fill="#0C0200" />
<rect x="36" y="30" width="1" height="1" fill="#0C0200" />
<rect x="39" y="30" width="1" height="1" fill="#0C0200" />
<rect x="37" y="31" width="2" height="10" fill="#0C0200" />
<rect x="11" y="32" width="8" height="1" fill="#0C0200" />
<rect x="19" y="32" width="3" height="5" fill="#970000" />
<rect x="22" y="32" width="1" height="2" fill="#0C0200" />
<rect x="36" y="32" width="1" height="9" fill="#0C0200" />
<rect x="39" y="32" width="1" height="9" fill="#0C0200" />
<rect x="53" y="32" width="1" height="2" fill="#0C0200" />
<rect x="54" y="32" width="3" height="5" fill="#970000" />
<rect x="57" y="32" width="8" height="1" fill="#0C0200" />
<rect x="8" y="33" width="10" height="2" fill="#0C0200" />
<rect x="18" y="33" width="1" height="11" fill="#970000" />
<rect x="23" y="33" width="2" height="11" fill="#0C0200" />
<rect x="27" y="33" width="3" height="10" fill="#0C0200" />
<rect x="46" y="33" width="3" height="10" fill="#0C0200" />
<rect x="51" y="33" width="2" height="11" fill="#0C0200" />
<rect x="57" y="33" width="1" height="11" fill="#970000" />
<rect x="58" y="33" width="10" height="2" fill="#0C0200" />
<rect x="7" y="34" width="1" height="9" fill="#0C0200" />
<rect x="22" y="34" width="1" height="1" fill="#970000" />
<rect x="25" y="34" width="2" height="9" fill="#0C0200" />
<rect x="30" y="34" width="3" height="8" fill="#0C0200" />
<rect x="35" y="34" width="1" height="8" fill="#0C0200" />
<rect x="40" y="34" width="1" height="8" fill="#0C0200" />
<rect x="43" y="34" width="3" height="8" fill="#0C0200" />
<rect x="49" y="34" width="2" height="9" fill="#0C0200" />
<rect x="53" y="34" width="1" height="1" fill="#970000" />
<rect x="68" y="34" width="1" height="9" fill="#0C0200" />
<rect x="6" y="35" width="1" height="7" fill="#0C0200" />
<rect x="8" y="35" width="9" height="2" fill="#0C0200" />
<rect x="17" y="35" width="1" height="10" fill="#970000" />
<rect x="22" y="35" width="1" height="17" fill="#0C0200" />
<rect x="33" y="35" width="2" height="7" fill="#0C0200" />
<rect x="41" y="35" width="2" height="7" fill="#0C0200" />
<rect x="53" y="35" width="1" height="17" fill="#0C0200" />
<rect x="58" y="35" width="1" height="10" fill="#970000" />
<rect x="59" y="35" width="9" height="2" fill="#0C0200" />
<rect x="69" y="35" width="1" height="7" fill="#0C0200" />
<rect x="5" y="36" width="1" height="5" fill="#0C0200" />
<rect x="70" y="36" width="1" height="5" fill="#0C0200" />
<rect x="8" y="37" width="7" height="7" fill="#0C0200" />
<rect x="15" y="37" width="2" height="4" fill="#970000" />
<rect x="19" y="37" width="2" height="5" fill="#970000" />
<rect x="21" y="37" width="1" height="2" fill="#0C0200" />
<rect x="54" y="37" width="1" height="2" fill="#0C0200" />
<rect x="55" y="37" width="2" height="5" fill="#970000" />
<rect x="59" y="37" width="2" height="4" fill="#970000" />
<rect x="61" y="37" width="7" height="7" fill="#0C0200" />
<rect x="4" y="38" width="1" height="1" fill="#0C0200" />
<rect x="71" y="38" width="1" height="1" fill="#0C0200" />
<rect x="21" y="39" width="1" height="2" fill="#970000" />
<rect x="54" y="39" width="1" height="2" fill="#970000" />
<rect x="15" y="41" width="1" height="3" fill="#0C0200" />
<rect x="16" y="41" width="1" height="5" fill="#970000" />
<rect x="21" y="41" width="1" height="10" fill="#0C0200" />
<rect x="36" y="41" width="4" height="1" fill="#F2F270" />
<rect x="54" y="41" width="1" height="10" fill="#0C0200" />
<rect x="59" y="41" width="1" height="5" fill="#970000" />
<rect x="60" y="41" width="1" height="3" fill="#0C0200" />
<rect x="19" y="42" width="1" height="1" fill="#970000" />
<rect x="20" y="42" width="1" height="8" fill="#0C0200" />
<rect x="30" y="42" width="7" height="1" fill="#F2F270" />
<rect x="37" y="42" width="2" height="6" fill="#0C0200" />
<rect x="39" y="42" width="7" height="1" fill="#F2F270" />
<rect x="55" y="42" width="1" height="8" fill="#0C0200" />
<rect x="56" y="42" width="1" height="1" fill="#970000" />
<rect x="19" y="43" width="1" height="6" fill="#0C0200" />
<rect x="25" y="43" width="11" height="1" fill="#F2F270" />
<rect x="36" y="43" width="1" height="8" fill="#0C0200" />
<rect x="39" y="43" width="1" height="8" fill="#0C0200" />
<rect x="40" y="43" width="11" height="1" fill="#F2F270" />
<rect x="56" y="43" width="1" height="6" fill="#0C0200" />
<rect x="9" y="44" width="6" height="1" fill="#0C0200" />
<rect x="15" y="44" width="1" height="2" fill="#970000" />
<rect x="18" y="44" width="1" height="3" fill="#0C0200" />
<rect x="23" y="44" width="1" height="8" fill="#0C0200" />
<rect x="24" y="44" width="8" height="1" fill="#F2F270" />
<rect x="32" y="44" width="4" height="8" fill="#0C0200" />
<rect x="40" y="44" width="4" height="8" fill="#0C0200" />
<rect x="44" y="44" width="8" height="1" fill="#F2F270" />
<rect x="52" y="44" width="1" height="8" fill="#0C0200" />
<rect x="57" y="44" width="1" height="3" fill="#0C0200" />
<rect x="60" y="44" width="1" height="2" fill="#970000" />
<rect x="61" y="44" width="6" height="1" fill="#0C0200" />
<rect x="11" y="45" width="1" height="1" fill="#0C0200" />
<rect x="13" y="45" width="2" height="1" fill="#0C0200" />
<rect x="17" y="45" width="1" height="2" fill="#0C0200" />
<rect x="24" y="45" width="8" height="7" fill="#0C0200" />
<rect x="44" y="45" width="8" height="7" fill="#0C0200" />
<rect x="58" y="45" width="1" height="2" fill="#0C0200" />
<rect x="61" y="45" width="2" height="1" fill="#0C0200" />
<rect x="64" y="45" width="1" height="1" fill="#0C0200" />
<rect x="14" y="46" width="3" height="1" fill="#0C0200" />
<rect x="59" y="46" width="3" height="1" fill="#0C0200" />
<rect x="24" y="52" width="4" height="1" fill="#0C0200" />
<rect x="28" y="52" width="1" height="1" fill="#0D0200" />
<rect x="29" y="52" width="5" height="1" fill="#0C0200" />
<rect x="42" y="52" width="5" height="1" fill="#0C0200" />
<rect x="48" y="52" width="4" height="1" fill="#0C0200" />
</svg>