<?xml version="1.0" encoding="UTF-8" ?>
<svg version="1.1" width="75" height="75" xmlns="http://www.w3.org/2000/svg" shape-rendering="crispEdges">
<rect x="4" y="14" width="6" height="4" fill="#68482F" />
<rect x="64" y="14" width="6" height="4" fill="#68482F" />
<rect x="3" y="15" width="1" height="18" fill="#68482F" />
<rect x="10" y="15" width="3" height="2" fill="#68482F" />
<rect x="61" y="15" width="3" height="2" fill="#68482F" />
<rect x="70" y="15" width="1" height="18" fill="#68482F" />
<rect x="2" y="16" width="1" height="6" fill="#68482F" />
<rect x="13" y="16" width="3" height="5" fill="#68482F" />
<rect x="27" y="16" width="2" height="2" fill="#5C3C27" />
<rect x="45" y="16" width="2" height="2" fill="#5C3C27" />
<rect x="58" y="16" width="3" height="5" fill="#68482F" />
<rect x="71" y="16" width="1" height="6" fill="#68482F" />
<rect x="10" y="17" width="1" height="1" fill="#FFFBD8" />
<rect x="11" y="17" width="2" height="5" fill="#68482F" />
<rect x="16" y="17" width="2" height="2" fill="#68482F" />
<rect x="56" y="17" width="2" height="2" fill="#68482F" />
<rect x="61" y="17" width="2" height="5" fill="#68482F" />
<rect x="63" y="17" width="1" height="1" fill="#FFFBD8" />
<rect x="4" y="18" width="5" height="2" fill="#68482F" />
<rect x="9" y="18" width="1" height="1" fill="#FFFBD8" />
<rect x="10" y="18" width="1" height="2" fill="#68482F" />
<rect x="18" y="18" width="2" height="1" fill="#68482F" />
<rect x="29" y="18" width="1" height="1" fill="#5C3C27" />
<rect x="44" y="18" width="1" height="1" fill="#5C3C27" />
<rect x="54" y="18" width="2" height="1" fill="#68482F" />
<rect x="63" y="18" width="1" height="2" fill="#68482F" />
<rect x="64" y="18" width="1" height="1" fill="#FFFBD8" />
<rect x="65" y="18" width="5" height="2" fill="#68482F" />
<rect x="1" y="19" width="1" height="2" fill="#68482F" />
<rect x="9" y="19" width="1" height="1" fill="#68482F" />
<rect x="16" y="19" width="1" height="1" fill="#68482F" />
<rect x="17" y="19" width="2" height="4" fill="#FFFBD8" />
<rect x="19" y="19" width="2" height="1" fill="#68482F" />
<rect x="30" y="19" width="1" height="2" fill="#5C3C27" />
<rect x="43" y="19" width="1" height="2" fill="#5C3C27" />
<rect x="53" y="19" width="2" height="1" fill="#68482F" />
<rect x="55" y="19" width="2" height="4" fill="#FFFBD8" />
<rect x="57" y="19" width="1" height="1" fill="#68482F" />
<rect x="64" y="19" width="1" height="1" fill="#68482F" />
<rect x="72" y="19" width="1" height="2" fill="#68482F" />
<rect x="4" y="20" width="2" height="16" fill="#68482F" />
<rect x="6" y="20" width="2" height="2" fill="#CA7928" />
<rect x="8" y="20" width="1" height="2" fill="#191718" />
<rect x="9" y="20" width="1" height="1" fill="#51455D" />
<rect x="10" y="20" width="1" height="2" fill="#191718" />
<rect x="16" y="20" width="1" height="3" fill="#FFFBD8" />
<rect x="19" y="20" width="1" height="3" fill="#FFFBD8" />
<rect x="20" y="20" width="3" height="1" fill="#68482F" />
<rect x="51" y="20" width="3" height="1" fill="#68482F" />
<rect x="54" y="20" width="1" height="3" fill="#FFFBD8" />
<rect x="57" y="20" width="1" height="3" fill="#FFFBD8" />
<rect x="63" y="20" width="1" height="2" fill="#191718" />
<rect x="64" y="20" width="1" height="1" fill="#51455D" />
<rect x="65" y="20" width="1" height="2" fill="#191718" />
<rect x="66" y="20" width="2" height="2" fill="#CA7928" />
<rect x="68" y="20" width="2" height="16" fill="#68482F" />
<rect x="9" y="21" width="1" height="1" fill="#B7AEC1" />
<rect x="13" y="21" width="1" height="1" fill="#68482F" />
<rect x="14" y="21" width="2" height="6" fill="#FFFBD8" />
<rect x="20" y="21" width="2" height="2" fill="#3D2618" />
<rect x="22" y="21" width="2" height="3" fill="#68482F" />
<rect x="31" y="21" width="1" height="2" fill="#5C3C27" />
<rect x="42" y="21" width="1" height="2" fill="#5C3C27" />
<rect x="50" y="21" width="2" height="3" fill="#68482F" />
<rect x="52" y="21" width="2" height="2" fill="#3D2618" />
<rect x="58" y="21" width="2" height="6" fill="#FFFBD8" />
<rect x="60" y="21" width="1" height="1" fill="#68482F" />
<rect x="64" y="21" width="1" height="1" fill="#B7AEC1" />
<rect x="6" y="22" width="1" height="6" fill="#68482F" />
<rect x="7" y="22" width="4" height="1" fill="#CA7928" />
<rect x="11" y="22" width="3" height="5" fill="#FFFBD8" />
<rect x="24" y="22" width="2" height="1" fill="#68482F" />
<rect x="48" y="22" width="2" height="1" fill="#68482F" />
<rect x="60" y="22" width="3" height="5" fill="#FFFBD8" />
<rect x="63" y="22" width="4" height="1" fill="#CA7928" />
<rect x="67" y="22" width="1" height="6" fill="#68482F" />
<rect x="7" y="23" width="1" height="2" fill="#68482F" />
<rect x="8" y="23" width="1" height="1" fill="#CA7928" />
<rect x="9" y="23" width="2" height="4" fill="#FFFBD8" />
<rect x="16" y="23" width="5" height="1" fill="#3D2618" />
<rect x="21" y="23" width="1" height="3" fill="#68482F" />
<rect x="24" y="23" width="1" height="1" fill="#3D2618" />
<rect x="25" y="23" width="2" height="1" fill="#68482F" />
<rect x="32" y="23" width="1" height="2" fill="#5C3C27" />
<rect x="41" y="23" width="1" height="2" fill="#5C3C27" />
<rect x="47" y="23" width="2" height="1" fill="#68482F" />
<rect x="49" y="23" width="1" height="1" fill="#3D2618" />
<rect x="52" y="23" width="1" height="3" fill="#68482F" />
<rect x="53" y="23" width="5" height="1" fill="#3D2618" />
<rect x="63" y="23" width="2" height="4" fill="#FFFBD8" />
<rect x="65" y="23" width="1" height="1" fill="#CA7928" />
<rect x="66" y="23" width="1" height="2" fill="#68482F" />
<rect x="8" y="24" width="1" height="1" fill="#68482F" />
<rect x="16" y="24" width="4" height="1" fill="#3D2618" />
<rect x="20" y="24" width="1" height="15" fill="#68482F" />
<rect x="22" y="24" width="1" height="1" fill="#68482F" />
<rect x="23" y="24" width="1" height="1" fill="#3D2618" />
<rect x="24" y="24" width="1" height="3" fill="#CA7928" />
<rect x="25" y="24" width="1" height="1" fill="#3D2618" />
<rect x="26" y="24" width="2" height="1" fill="#68482F" />
<rect x="46" y="24" width="2" height="1" fill="#68482F" />
<rect x="48" y="24" width="1" height="1" fill="#3D2618" />
<rect x="49" y="24" width="1" height="3" fill="#CA7928" />
<rect x="50" y="24" width="1" height="1" fill="#3D2618" />
<rect x="51" y="24" width="1" height="1" fill="#68482F" />
<rect x="53" y="24" width="1" height="15" fill="#68482F" />
<rect x="54" y="24" width="4" height="1" fill="#3D2618" />
<rect x="65" y="24" width="1" height="1" fill="#68482F" />
<rect x="7" y="25" width="2" height="3" fill="#FFFBD8" />
<rect x="16" y="25" width="3" height="4" fill="#3D2618" />
<rect x="19" y="25" width="1" height="5" fill="#68482F" />
<rect x="22" y="25" width="1" height="2" fill="#3D2618" />
<rect x="23" y="25" width="1" height="4" fill="#CA7928" />
<rect x="25" y="25" width="1" height="2" fill="#CA7928" />
<rect x="26" y="25" width="1" height="2" fill="#3D2618" />
<rect x="27" y="25" width="2" height="3" fill="#68482F" />
<rect x="33" y="25" width="1" height="2" fill="#5C3C27" />
<rect x="40" y="25" width="1" height="2" fill="#5C3C27" />
<rect x="45" y="25" width="2" height="3" fill="#68482F" />
<rect x="47" y="25" width="1" height="2" fill="#3D2618" />
<rect x="48" y="25" width="1" height="2" fill="#CA7928" />
<rect x="50" y="25" width="1" height="4" fill="#CA7928" />
<rect x="51" y="25" width="1" height="2" fill="#3D2618" />
<rect x="54" y="25" width="1" height="5" fill="#68482F" />
<rect x="55" y="25" width="3" height="4" fill="#3D2618" />
<rect x="65" y="25" width="2" height="3" fill="#FFFBD8" />
<rect x="21" y="26" width="1" height="4" fill="#3D2618" />
<rect x="29" y="26" width="1" height="3" fill="#68482F" />
<rect x="44" y="26" width="1" height="3" fill="#68482F" />
<rect x="52" y="26" width="1" height="4" fill="#3D2618" />
<rect x="9" y="27" width="1" height="1" fill="#FFFBD8" />
<rect x="10" y="27" width="5" height="1" fill="#BE9867" />
<rect x="15" y="27" width="1" height="1" fill="#3D2618" />
<rect x="22" y="27" width="1" height="3" fill="#CA7928" />
<rect x="24" y="27" width="2" height="1" fill="#3D2618" />
<rect x="26" y="27" width="1" height="2" fill="#68482F" />
<rect x="34" y="27" width="1" height="2" fill="#5C3C27" />
<rect x="39" y="27" width="1" height="2" fill="#5C3C27" />
<rect x="47" y="27" width="1" height="2" fill="#68482F" />
<rect x="48" y="27" width="2" height="1" fill="#3D2618" />
<rect x="51" y="27" width="1" height="3" fill="#CA7928" />
<rect x="58" y="27" width="1" height="1" fill="#3D2618" />
<rect x="59" y="27" width="5" height="1" fill="#BE9867" />
<rect x="64" y="27" width="1" height="1" fill="#FFFBD8" />
<rect x="6" y="28" width="2" height="1" fill="#FFFBD8" />
<rect x="8" y="28" width="2" height="4" fill="#BE9867" />
<rect x="10" y="28" width="4" height="1" fill="#191718" />
<rect x="14" y="28" width="2" height="5" fill="#BE9867" />
<rect x="24" y="28" width="1" height="2" fill="#3D2618" />
<rect x="25" y="28" width="1" height="2" fill="#68482F" />
<rect x="27" y="28" width="2" height="1" fill="#3D2618" />
<rect x="30" y="28" width="1" height="19" fill="#68482F" />
<rect x="43" y="28" width="1" height="19" fill="#68482F" />
<rect x="45" y="28" width="2" height="1" fill="#3D2618" />
<rect x="48" y="28" width="1" height="2" fill="#68482F" />
<rect x="49" y="28" width="1" height="2" fill="#3D2618" />
<rect x="58" y="28" width="2" height="5" fill="#BE9867" />
<rect x="60" y="28" width="4" height="1" fill="#191718" />
<rect x="64" y="28" width="2" height="4" fill="#BE9867" />
<rect x="66" y="28" width="2" height="1" fill="#FFFBD8" />
<rect x="6" y="29" width="1" height="1" fill="#FFFBD8" />
<rect x="7" y="29" width="1" height="1" fill="#BE9867" />
<rect x="10" y="29" width="1" height="3" fill="#191718" />
<rect x="11" y="29" width="2" height="1" fill="#51455D" />
<rect x="13" y="29" width="1" height="3" fill="#191718" />
<rect x="16" y="29" width="1" height="6" fill="#BE9867" />
<rect x="17" y="29" width="2" height="2" fill="#3D2618" />
<rect x="23" y="29" width="1" height="2" fill="#3D2618" />
<rect x="26" y="29" width="1" height="1" fill="#3D2618" />
<rect x="27" y="29" width="2" height="2" fill="#CA7928" />
<rect x="29" y="29" width="1" height="2" fill="#3D2618" />
<rect x="31" y="29" width="1" height="17" fill="#68482F" />
<rect x="35" y="29" width="1" height="1" fill="#5C3C27" />
<rect x="38" y="29" width="1" height="1" fill="#5C3C27" />
<rect x="42" y="29" width="1" height="17" fill="#68482F" />
<rect x="44" y="29" width="1" height="2" fill="#3D2618" />
<rect x="45" y="29" width="2" height="2" fill="#CA7928" />
<rect x="47" y="29" width="1" height="1" fill="#3D2618" />
<rect x="50" y="29" width="1" height="2" fill="#3D2618" />
<rect x="55" y="29" width="2" height="2" fill="#3D2618" />
<rect x="57" y="29" width="1" height="6" fill="#BE9867" />
<rect x="60" y="29" width="1" height="3" fill="#191718" />
<rect x="61" y="29" width="2" height="1" fill="#51455D" />
<rect x="63" y="29" width="1" height="3" fill="#191718" />
<rect x="66" y="29" width="1" height="1" fill="#BE9867" />
<rect x="67" y="29" width="1" height="1" fill="#FFFBD8" />
<rect x="6" y="30" width="2" height="2" fill="#CA7928" />
<rect x="11" y="30" width="2" height="1" fill="#B7AEC1" />
<rect x="19" y="30" width="1" height="4" fill="#3D2618" />
<rect x="21" y="30" width="1" height="10" fill="#68482F" />
<rect x="22" y="30" width="1" height="1" fill="#3D2618" />
<rect x="24" y="30" width="1" height="27" fill="#68482F" />
<rect x="25" y="30" width="1" height="3" fill="#3D2618" />
<rect x="26" y="30" width="1" height="3" fill="#CA7928" />
<rect x="32" y="30" width="1" height="7" fill="#68482F" />
<rect x="36" y="30" width="2" height="25" fill="#5C3C27" />
<rect x="41" y="30" width="1" height="7" fill="#68482F" />
<rect x="47" y="30" width="1" height="3" fill="#CA7928" />
<rect x="48" y="30" width="1" height="3" fill="#3D2618" />
<rect x="49" y="30" width="1" height="27" fill="#68482F" />
<rect x="51" y="30" width="1" height="1" fill="#3D2618" />
<rect x="52" y="30" width="1" height="10" fill="#68482F" />
<rect x="54" y="30" width="1" height="4" fill="#3D2618" />
<rect x="61" y="30" width="2" height="1" fill="#B7AEC1" />
<rect x="66" y="30" width="2" height="2" fill="#CA7928" />
<rect x="11" y="31" width="2" height="1" fill="#191718" />
<rect x="17" y="31" width="1" height="3" fill="#BE9867" />
<rect x="18" y="31" width="1" height="4" fill="#3D2618" />
<rect x="22" y="31" width="2" height="11" fill="#68482F" />
<rect x="27" y="31" width="1" height="2" fill="#CA7928" />
<rect x="28" y="31" width="1" height="2" fill="#3D2618" />
<rect x="29" y="31" width="1" height="17" fill="#68482F" />
<rect x="35" y="31" width="1" height="23" fill="#5C3C27" />
<rect x="38" y="31" width="1" height="23" fill="#5C3C27" />
<rect x="44" y="31" width="1" height="17" fill="#68482F" />
<rect x="45" y="31" width="1" height="2" fill="#3D2618" />
<rect x="46" y="31" width="1" height="2" fill="#CA7928" />
<rect x="50" y="31" width="2" height="11" fill="#68482F" />
<rect x="55" y="31" width="1" height="4" fill="#3D2618" />
<rect x="56" y="31" width="1" height="3" fill="#BE9867" />
<rect x="61" y="31" width="2" height="1" fill="#191718" />
<rect x="6" y="32" width="1" height="5" fill="#68482F" />
<rect x="7" y="32" width="2" height="3" fill="#CA7928" />
<rect x="9" y="32" width="5" height="1" fill="#BE9867" />
<rect x="33" y="32" width="2" height="1" fill="#68482F" />
<rect x="39" y="32" width="2" height="1" fill="#68482F" />
<rect x="60" y="32" width="5" height="1" fill="#BE9867" />
<rect x="65" y="32" width="2" height="3" fill="#CA7928" />
<rect x="67" y="32" width="1" height="5" fill="#68482F" />
<rect x="9" y="33" width="1" height="3" fill="#CA7928" />
<rect x="10" y="33" width="4" height="1" fill="#BE9867" />
<rect x="14" y="33" width="1" height="1" fill="#3D2618" />
<rect x="15" y="33" width="1" height="2" fill="#BE9867" />
<rect x="25" y="33" width="1" height="22" fill="#68482F" />
<rect x="26" y="33" width="2" height="1" fill="#3D2618" />
<rect x="28" y="33" width="1" height="16" fill="#68482F" />
<rect x="33" y="33" width="1" height="1" fill="#68482F" />
<rect x="34" y="33" width="1" height="10" fill="#5C3C27" />
<rect x="39" y="33" width="1" height="10" fill="#5C3C27" />
<rect x="40" y="33" width="1" height="1" fill="#68482F" />
<rect x="45" y="33" width="1" height="16" fill="#68482F" />
<rect x="46" y="33" width="2" height="1" fill="#3D2618" />
<rect x="48" y="33" width="1" height="22" fill="#68482F" />
<rect x="58" y="33" width="1" height="2" fill="#BE9867" />
<rect x="59" y="33" width="1" height="1" fill="#3D2618" />
<rect x="60" y="33" width="4" height="1" fill="#BE9867" />
<rect x="64" y="33" width="1" height="3" fill="#CA7928" />
<rect x="10" y="34" width="4" height="1" fill="#3D2618" />
<rect x="14" y="34" width="1" height="2" fill="#BE9867" />
<rect x="17" y="34" width="1" height="2" fill="#3D2618" />
<rect x="19" y="34" width="1" height="5" fill="#68482F" />
<rect x="26" y="34" width="2" height="16" fill="#68482F" />
<rect x="33" y="34" width="1" height="10" fill="#5C3C27" />
<rect x="40" y="34" width="1" height="10" fill="#5C3C27" />
<rect x="46" y="34" width="2" height="16" fill="#68482F" />
<rect x="54" y="34" width="1" height="5" fill="#68482F" />
<rect x="56" y="34" width="1" height="2" fill="#3D2618" />
<rect x="59" y="34" width="1" height="2" fill="#BE9867" />
<rect x="60" y="34" width="4" height="1" fill="#3D2618" />
<rect x="7" y="35" width="1" height="3" fill="#68482F" />
<rect x="8" y="35" width="1" height="1" fill="#CA7928" />
<rect x="10" y="35" width="4" height="1" fill="#BE9867" />
<rect x="15" y="35" width="2" height="1" fill="#3D2618" />
<rect x="18" y="35" width="1" height="4" fill="#68482F" />
<rect x="55" y="35" width="1" height="4" fill="#68482F" />
<rect x="57" y="35" width="2" height="1" fill="#3D2618" />
<rect x="60" y="35" width="4" height="1" fill="#BE9867" />
<rect x="65" y="35" width="1" height="1" fill="#CA7928" />
<rect x="66" y="35" width="1" height="3" fill="#68482F" />
<rect x="5" y="36" width="1" height="1" fill="#68482F" />
<rect x="8" y="36" width="6" height="2" fill="#68482F" />
<rect x="14" y="36" width="2" height="1" fill="#3D2618" />
<rect x="16" y="36" width="2" height="3" fill="#68482F" />
<rect x="56" y="36" width="2" height="3" fill="#68482F" />
<rect x="58" y="36" width="2" height="1" fill="#3D2618" />
<rect x="60" y="36" width="6" height="2" fill="#68482F" />
<rect x="68" y="36" width="1" height="1" fill="#68482F" />
<rect x="14" y="37" width="2" height="2" fill="#68482F" />
<rect x="32" y="37" width="1" height="8" fill="#5C3C27" />
<rect x="41" y="37" width="1" height="8" fill="#5C3C27" />
<rect x="58" y="37" width="2" height="2" fill="#68482F" />
<rect x="12" y="38" width="2" height="3" fill="#68482F" />
<rect x="60" y="38" width="2" height="3" fill="#68482F" />
<rect x="10" y="39" width="2" height="4" fill="#68482F" />
<rect x="14" y="39" width="1" height="1" fill="#68482F" />
<rect x="15" y="39" width="6" height="1" fill="#3D2618" />
<rect x="53" y="39" width="6" height="1" fill="#3D2618" />
<rect x="59" y="39" width="1" height="1" fill="#68482F" />
<rect x="62" y="39" width="2" height="4" fill="#68482F" />
<rect x="9" y="40" width="1" height="6" fill="#68482F" />
<rect x="14" y="40" width="1" height="1" fill="#3D2618" />
<rect x="15" y="40" width="6" height="1" fill="#BE9867" />
<rect x="21" y="40" width="1" height="2" fill="#3D2618" />
<rect x="52" y="40" width="1" height="2" fill="#3D2618" />
<rect x="53" y="40" width="6" height="1" fill="#BE9867" />
<rect x="59" y="40" width="1" height="1" fill="#3D2618" />
<rect x="64" y="40" width="1" height="6" fill="#68482F" />
<rect x="8" y="41" width="1" height="14" fill="#68482F" />
<rect x="12" y="41" width="1" height="2" fill="#68482F" />
<rect x="13" y="41" width="1" height="7" fill="#3D2618" />
<rect x="14" y="41" width="2" height="1" fill="#BE9867" />
<rect x="16" y="41" width="4" height="1" fill="#AA5922" />
<rect x="20" y="41" width="1" height="6" fill="#BE9867" />
<rect x="53" y="41" width="1" height="6" fill="#BE9867" />
<rect x="54" y="41" width="4" height="1" fill="#AA5922" />
<rect x="58" y="41" width="2" height="1" fill="#BE9867" />
<rect x="60" y="41" width="1" height="7" fill="#3D2618" />
<rect x="61" y="41" width="1" height="2" fill="#68482F" />
<rect x="65" y="41" width="1" height="14" fill="#68482F" />
<rect x="14" y="42" width="1" height="5" fill="#BE9867" />
<rect x="15" y="42" width="1" height="1" fill="#AA5922" />
<rect x="16" y="42" width="3" height="1" fill="#BE9867" />
<rect x="19" y="42" width="1" height="4" fill="#AA5922" />
<rect x="21" y="42" width="1" height="3" fill="#BE9867" />
<rect x="22" y="42" width="1" height="3" fill="#3D2618" />
<rect x="23" y="42" width="1" height="20" fill="#68482F" />
<rect x="50" y="42" width="1" height="20" fill="#68482F" />
<rect x="51" y="42" width="1" height="3" fill="#3D2618" />
<rect x="52" y="42" width="1" height="3" fill="#BE9867" />
<rect x="54" y="42" width="1" height="4" fill="#AA5922" />
<rect x="55" y="42" width="3" height="1" fill="#BE9867" />
<rect x="58" y="42" width="1" height="1" fill="#AA5922" />
<rect x="59" y="42" width="1" height="5" fill="#BE9867" />
<rect x="7" y="43" width="1" height="11" fill="#68482F" />
<rect x="10" y="43" width="3" height="9" fill="#CA7928" />
<rect x="15" y="43" width="2" height="1" fill="#776068" />
<rect x="17" y="43" width="2" height="1" fill="#BE9867" />
<rect x="55" y="43" width="2" height="1" fill="#BE9867" />
<rect x="57" y="43" width="2" height="1" fill="#776068" />
<rect x="61" y="43" width="3" height="9" fill="#CA7928" />
<rect x="66" y="43" width="1" height="11" fill="#68482F" />
<rect x="15" y="44" width="2" height="2" fill="#1A1917" />
<rect x="17" y="44" width="2" height="1" fill="#776068" />
<rect x="55" y="44" width="2" height="1" fill="#776068" />
<rect x="57" y="44" width="2" height="2" fill="#1A1917" />
<rect x="17" y="45" width="1" height="1" fill="#1A1917" />
<rect x="18" y="45" width="1" height="1" fill="#776068" />
<rect x="21" y="45" width="1" height="2" fill="#3D2618" />
<rect x="22" y="45" width="1" height="18" fill="#68482F" />
<rect x="32" y="45" width="1" height="3" fill="#BE9867" />
<rect x="41" y="45" width="1" height="3" fill="#BE9867" />
<rect x="51" y="45" width="1" height="18" fill="#68482F" />
<rect x="52" y="45" width="1" height="2" fill="#3D2618" />
<rect x="55" y="45" width="1" height="1" fill="#776068" />
<rect x="56" y="45" width="1" height="1" fill="#1A1917" />
<rect x="9" y="46" width="1" height="3" fill="#CA7928" />
<rect x="15" y="46" width="1" height="2" fill="#BE9867" />
<rect x="16" y="46" width="1" height="1" fill="#1A1917" />
<rect x="17" y="46" width="2" height="1" fill="#AA5922" />
<rect x="19" y="46" width="1" height="2" fill="#BE9867" />
<rect x="31" y="46" width="1" height="6" fill="#BE9867" />
<rect x="42" y="46" width="1" height="6" fill="#BE9867" />
<rect x="54" y="46" width="1" height="2" fill="#BE9867" />
<rect x="55" y="46" width="2" height="1" fill="#AA5922" />
<rect x="57" y="46" width="1" height="1" fill="#1A1917" />
<rect x="58" y="46" width="1" height="2" fill="#BE9867" />
<rect x="64" y="46" width="1" height="3" fill="#CA7928" />
<rect x="14" y="47" width="1" height="1" fill="#3D2618" />
<rect x="16" y="47" width="3" height="1" fill="#BE9867" />
<rect x="20" y="47" width="1" height="1" fill="#3D2618" />
<rect x="21" y="47" width="1" height="5" fill="#68482F" />
<rect x="30" y="47" width="1" height="7" fill="#BE9867" />
<rect x="43" y="47" width="1" height="7" fill="#BE9867" />
<rect x="52" y="47" width="1" height="5" fill="#68482F" />
<rect x="53" y="47" width="1" height="1" fill="#3D2618" />
<rect x="55" y="47" width="3" height="1" fill="#BE9867" />
<rect x="59" y="47" width="1" height="1" fill="#3D2618" />
<rect x="13" y="48" width="2" height="8" fill="#CA7928" />
<rect x="15" y="48" width="5" height="1" fill="#3D2618" />
<rect x="20" y="48" width="1" height="3" fill="#68482F" />
<rect x="29" y="48" width="1" height="8" fill="#BE9867" />
<rect x="44" y="48" width="1" height="8" fill="#BE9867" />
<rect x="53" y="48" width="1" height="3" fill="#68482F" />
<rect x="54" y="48" width="5" height="1" fill="#3D2618" />
<rect x="59" y="48" width="2" height="8" fill="#CA7928" />
<rect x="9" y="49" width="1" height="8" fill="#68482F" />
<rect x="15" y="49" width="1" height="8" fill="#CA7928" />
<rect x="16" y="49" width="4" height="1" fill="#68482F" />
<rect x="28" y="49" width="1" height="9" fill="#BE9867" />
<rect x="45" y="49" width="1" height="9" fill="#BE9867" />
<rect x="54" y="49" width="4" height="1" fill="#68482F" />
<rect x="58" y="49" width="1" height="8" fill="#CA7928" />
<rect x="64" y="49" width="1" height="8" fill="#68482F" />
<rect x="16" y="50" width="1" height="2" fill="#CA7928" />
<rect x="17" y="50" width="3" height="1" fill="#68482F" />
<rect x="26" y="50" width="1" height="2" fill="#68482F" />
<rect x="27" y="50" width="1" height="9" fill="#BE9867" />
<rect x="46" y="50" width="1" height="9" fill="#BE9867" />
<rect x="47" y="50" width="1" height="2" fill="#68482F" />
<rect x="54" y="50" width="3" height="1" fill="#68482F" />
<rect x="57" y="50" width="1" height="2" fill="#CA7928" />
<rect x="17" y="51" width="4" height="1" fill="#3D2618" />
<rect x="53" y="51" width="4" height="1" fill="#3D2618" />
<rect x="10" y="52" width="1" height="6" fill="#68482F" />
<rect x="11" y="52" width="2" height="3" fill="#CA7928" />
<rect x="16" y="52" width="1" height="4" fill="#3D2618" />
<rect x="17" y="52" width="4" height="1" fill="#BE9867" />
<rect x="21" y="52" width="1" height="3" fill="#3D2618" />
<rect x="26" y="52" width="1" height="7" fill="#BE9867" />
<rect x="47" y="52" width="1" height="7" fill="#BE9867" />
<rect x="52" y="52" width="1" height="3" fill="#3D2618" />
<rect x="53" y="52" width="4" height="1" fill="#BE9867" />
<rect x="57" y="52" width="1" height="4" fill="#3D2618" />
<rect x="61" y="52" width="2" height="3" fill="#CA7928" />
<rect x="63" y="52" width="1" height="6" fill="#68482F" />
<rect x="17" y="53" width="1" height="3" fill="#BE9867" />
<rect x="18" y="53" width="1" height="1" fill="#776068" />
<rect x="19" y="53" width="1" height="1" fill="#AA5922" />
<rect x="20" y="53" width="1" height="2" fill="#BE9867" />
<rect x="53" y="53" width="1" height="2" fill="#BE9867" />
<rect x="54" y="53" width="1" height="1" fill="#AA5922" />
<rect x="55" y="53" width="1" height="1" fill="#776068" />
<rect x="56" y="53" width="1" height="3" fill="#BE9867" />
<rect x="18" y="54" width="1" height="1" fill="#1A1917" />
<rect x="19" y="54" width="1" height="1" fill="#776068" />
<rect x="54" y="54" width="1" height="1" fill="#776068" />
<rect x="55" y="54" width="1" height="1" fill="#1A1917" />
<rect x="11" y="55" width="2" height="5" fill="#68482F" />
<rect x="18" y="55" width="2" height="1" fill="#BE9867" />
<rect x="20" y="55" width="1" height="1" fill="#3D2618" />
<rect x="21" y="55" width="1" height="9" fill="#68482F" />
<rect x="25" y="55" width="1" height="5" fill="#BE9867" />
<rect x="48" y="55" width="1" height="5" fill="#BE9867" />
<rect x="52" y="55" width="1" height="9" fill="#68482F" />
<rect x="53" y="55" width="1" height="1" fill="#3D2618" />
<rect x="54" y="55" width="2" height="1" fill="#BE9867" />
<rect x="61" y="55" width="2" height="5" fill="#68482F" />
<rect x="13" y="56" width="1" height="5" fill="#68482F" />
<rect x="14" y="56" width="1" height="1" fill="#CA7928" />
<rect x="16" y="56" width="1" height="2" fill="#CA7928" />
<rect x="17" y="56" width="3" height="1" fill="#3D2618" />
<rect x="20" y="56" width="1" height="1" fill="#68482F" />
<rect x="53" y="56" width="1" height="1" fill="#68482F" />
<rect x="54" y="56" width="3" height="1" fill="#3D2618" />
<rect x="57" y="56" width="1" height="2" fill="#CA7928" />
<rect x="59" y="56" width="1" height="1" fill="#CA7928" />
<rect x="60" y="56" width="1" height="5" fill="#68482F" />
<rect x="14" y="57" width="2" height="5" fill="#68482F" />
<rect x="17" y="57" width="4" height="2" fill="#CA7928" />
<rect x="24" y="57" width="1" height="4" fill="#BE9867" />
<rect x="49" y="57" width="1" height="4" fill="#BE9867" />
<rect x="53" y="57" width="4" height="2" fill="#CA7928" />
<rect x="58" y="57" width="2" height="5" fill="#68482F" />
<rect x="16" y="58" width="1" height="5" fill="#68482F" />
<rect x="57" y="58" width="1" height="5" fill="#68482F" />
<rect x="17" y="59" width="2" height="4" fill="#68482F" />
<rect x="19" y="59" width="2" height="1" fill="#CA7928" />
<rect x="53" y="59" width="2" height="1" fill="#CA7928" />
<rect x="55" y="59" width="2" height="4" fill="#68482F" />
<rect x="19" y="60" width="2" height="4" fill="#68482F" />
<rect x="53" y="60" width="2" height="4" fill="#68482F" />
<rect x="15" y="62" width="1" height="1" fill="#68482F" />
<rect x="58" y="62" width="1" height="1" fill="#68482F" />
</svg>