<?xml version="1.0" encoding="UTF-8" ?>
<svg version="1.1" width="75" height="75" xmlns="http://www.w3.org/2000/svg" shape-rendering="crispEdges">
<rect x="15" y="19" width="2" height="1" fill="#DBD10D" />
<rect x="17" y="19" width="1" height="1" fill="#6A4616" />
<rect x="18" y="19" width="3" height="2" fill="#DBD10D" />
<rect x="53" y="19" width="3" height="2" fill="#DBD10D" />
<rect x="56" y="19" width="1" height="1" fill="#6A4616" />
<rect x="57" y="19" width="2" height="1" fill="#DBD10D" />
<rect x="15" y="20" width="1" height="1" fill="#B3A92D" />
<rect x="16" y="20" width="2" height="6" fill="#DBD10D" />
<rect x="21" y="20" width="1" height="5" fill="#DBD10D" />
<rect x="52" y="20" width="1" height="5" fill="#DBD10D" />
<rect x="56" y="20" width="1" height="7" fill="#DBD10D" />
<rect x="57" y="20" width="2" height="1" fill="#B3A92D" />
<rect x="14" y="21" width="1" height="1" fill="#6A4616" />
<rect x="15" y="21" width="1" height="1" fill="#DBD10D" />
<rect x="18" y="21" width="2" height="1" fill="#B3A92D" />
<rect x="20" y="21" width="1" height="1" fill="#DBD10D" />
<rect x="22" y="21" width="3" height="2" fill="#DBD10D" />
<rect x="49" y="21" width="3" height="2" fill="#DBD10D" />
<rect x="53" y="21" width="1" height="1" fill="#DBD10D" />
<rect x="54" y="21" width="2" height="1" fill="#B3A92D" />
<rect x="57" y="21" width="2" height="1" fill="#DBD10D" />
<rect x="59" y="21" width="1" height="1" fill="#6A4616" />
<rect x="14" y="22" width="1" height="1" fill="#DBD10D" />
<rect x="15" y="22" width="1" height="1" fill="#B3A92D" />
<rect x="18" y="22" width="2" height="13" fill="#DBD10D" />
<rect x="20" y="22" width="1" height="1" fill="#B3A92D" />
<rect x="48" y="22" width="1" height="2" fill="#DBD10D" />
<rect x="53" y="22" width="1" height="1" fill="#B3A92D" />
<rect x="54" y="22" width="2" height="13" fill="#DBD10D" />
<rect x="57" y="22" width="2" height="1" fill="#B3A92D" />
<rect x="59" y="22" width="1" height="1" fill="#DBD10D" />
<rect x="14" y="23" width="1" height="1" fill="#6A4616" />
<rect x="15" y="23" width="1" height="10" fill="#DBD10D" />
<rect x="20" y="23" width="1" height="1" fill="#DBD10D" />
<rect x="22" y="23" width="2" height="1" fill="#B3A92D" />
<rect x="24" y="23" width="3" height="2" fill="#DBD10D" />
<rect x="31" y="23" width="1" height="1" fill="#6A4616" />
<rect x="42" y="23" width="1" height="1" fill="#6A4616" />
<rect x="47" y="23" width="1" height="14" fill="#DBD10D" />
<rect x="49" y="23" width="1" height="3" fill="#DBD10D" />
<rect x="50" y="23" width="2" height="1" fill="#B3A92D" />
<rect x="53" y="23" width="1" height="1" fill="#DBD10D" />
<rect x="57" y="23" width="2" height="3" fill="#DBD10D" />
<rect x="59" y="23" width="1" height="1" fill="#6A4616" />
<rect x="14" y="24" width="1" height="2" fill="#DBD10D" />
<rect x="20" y="24" width="1" height="1" fill="#B3A92D" />
<rect x="22" y="24" width="2" height="4" fill="#DBD10D" />
<rect x="27" y="24" width="2" height="3" fill="#DBD10D" />
<rect x="41" y="24" width="1" height="1" fill="#6A4616" />
<rect x="45" y="24" width="2" height="3" fill="#DBD10D" />
<rect x="48" y="24" width="1" height="1" fill="#B3A92D" />
<rect x="50" y="24" width="2" height="4" fill="#DBD10D" />
<rect x="53" y="24" width="1" height="1" fill="#B3A92D" />
<rect x="59" y="24" width="1" height="2" fill="#DBD10D" />
<rect x="20" y="25" width="1" height="3" fill="#DBD10D" />
<rect x="21" y="25" width="1" height="1" fill="#B3A92D" />
<rect x="24" y="25" width="1" height="1" fill="#DBD10D" />
<rect x="25" y="25" width="1" height="1" fill="#B3A92D" />
<rect x="26" y="25" width="1" height="12" fill="#DBD10D" />
<rect x="32" y="25" width="1" height="1" fill="#6A4616" />
<rect x="48" y="25" width="1" height="1" fill="#DBD10D" />
<rect x="52" y="25" width="1" height="1" fill="#B3A92D" />
<rect x="53" y="25" width="1" height="3" fill="#DBD10D" />
<rect x="14" y="26" width="1" height="1" fill="#6A4616" />
<rect x="16" y="26" width="1" height="1" fill="#B3A92D" />
<rect x="17" y="26" width="1" height="1" fill="#DBD10D" />
<rect x="21" y="26" width="1" height="3" fill="#DBD10D" />
<rect x="24" y="26" width="1" height="2" fill="#B3A92D" />
<rect x="25" y="26" width="1" height="11" fill="#DBD10D" />
<rect x="29" y="26" width="2" height="2" fill="#DBD10D" />
<rect x="33" y="26" width="1" height="1" fill="#6A4616" />
<rect x="40" y="26" width="1" height="1" fill="#6A4616" />
<rect x="43" y="26" width="2" height="2" fill="#DBD10D" />
<rect x="48" y="26" width="1" height="2" fill="#6A4616" />
<rect x="49" y="26" width="1" height="2" fill="#B3A92D" />
<rect x="52" y="26" width="1" height="3" fill="#DBD10D" />
<rect x="57" y="26" width="1" height="1" fill="#B3A92D" />
<rect x="58" y="26" width="1" height="7" fill="#DBD10D" />
<rect x="59" y="26" width="1" height="1" fill="#6A4616" />
<rect x="14" y="27" width="1" height="1" fill="#DBD10D" />
<rect x="16" y="27" width="1" height="12" fill="#DBD10D" />
<rect x="17" y="27" width="1" height="1" fill="#B3A92D" />
<rect x="27" y="27" width="2" height="1" fill="#B3A92D" />
<rect x="31" y="27" width="1" height="3" fill="#DBD10D" />
<rect x="42" y="27" width="1" height="3" fill="#DBD10D" />
<rect x="45" y="27" width="2" height="1" fill="#B3A92D" />
<rect x="56" y="27" width="1" height="1" fill="#B3A92D" />
<rect x="57" y="27" width="1" height="12" fill="#DBD10D" />
<rect x="59" y="27" width="1" height="1" fill="#DBD10D" />
<rect x="14" y="28" width="1" height="2" fill="#6A4616" />
<rect x="17" y="28" width="1" height="7" fill="#DBD10D" />
<rect x="20" y="28" width="1" height="1" fill="#B3A92D" />
<rect x="22" y="28" width="1" height="3" fill="#B3A92D" />
<rect x="23" y="28" width="2" height="2" fill="#DBD10D" />
<rect x="27" y="28" width="2" height="3" fill="#DBD10D" />
<rect x="29" y="28" width="1" height="1" fill="#B3A92D" />
<rect x="30" y="28" width="1" height="1" fill="#DBD10D" />
<rect x="32" y="28" width="1" height="3" fill="#DBD10D" />
<rect x="35" y="28" width="1" height="2" fill="#6A4616" />
<rect x="38" y="28" width="1" height="2" fill="#6A4616" />
<rect x="41" y="28" width="1" height="6" fill="#DBD10D" />
<rect x="43" y="28" width="1" height="1" fill="#DBD10D" />
<rect x="44" y="28" width="1" height="1" fill="#B3A92D" />
<rect x="45" y="28" width="2" height="3" fill="#DBD10D" />
<rect x="48" y="28" width="3" height="2" fill="#DBD10D" />
<rect x="51" y="28" width="1" height="3" fill="#B3A92D" />
<rect x="53" y="28" width="1" height="1" fill="#B3A92D" />
<rect x="56" y="28" width="1" height="7" fill="#DBD10D" />
<rect x="59" y="28" width="1" height="2" fill="#6A4616" />
<rect x="20" y="29" width="1" height="1" fill="#DBD10D" />
<rect x="21" y="29" width="1" height="2" fill="#B3A92D" />
<rect x="29" y="29" width="1" height="20" fill="#DBD10D" />
<rect x="30" y="29" width="1" height="1" fill="#B3A92D" />
<rect x="33" y="29" width="1" height="2" fill="#DBD10D" />
<rect x="40" y="29" width="1" height="2" fill="#DBD10D" />
<rect x="43" y="29" width="1" height="1" fill="#B3A92D" />
<rect x="44" y="29" width="1" height="20" fill="#DBD10D" />
<rect x="52" y="29" width="1" height="2" fill="#B3A92D" />
<rect x="53" y="29" width="1" height="1" fill="#DBD10D" />
<rect x="14" y="30" width="1" height="1" fill="#DBD10D" />
<rect x="20" y="30" width="1" height="1" fill="#B3A92D" />
<rect x="23" y="30" width="2" height="1" fill="#B3A92D" />
<rect x="30" y="30" width="1" height="3" fill="#DBD10D" />
<rect x="31" y="30" width="1" height="1" fill="#B3A92D" />
<rect x="36" y="30" width="2" height="14" fill="#6A4616" />
<rect x="42" y="30" width="1" height="1" fill="#B3A92D" />
<rect x="43" y="30" width="1" height="3" fill="#DBD10D" />
<rect x="48" y="30" width="3" height="1" fill="#B3A92D" />
<rect x="53" y="30" width="1" height="1" fill="#B3A92D" />
<rect x="59" y="30" width="1" height="1" fill="#DBD10D" />
<rect x="14" y="31" width="1" height="1" fill="#6A4616" />
<rect x="20" y="31" width="5" height="5" fill="#DBD10D" />
<rect x="27" y="31" width="1" height="1" fill="#B3A92D" />
<rect x="28" y="31" width="1" height="1" fill="#DBD10D" />
<rect x="31" y="31" width="1" height="3" fill="#DBD10D" />
<rect x="32" y="31" width="2" height="1" fill="#B3A92D" />
<rect x="34" y="31" width="1" height="4" fill="#DBD10D" />
<rect x="39" y="31" width="1" height="4" fill="#DBD10D" />
<rect x="40" y="31" width="1" height="1" fill="#B3A92D" />
<rect x="42" y="31" width="1" height="3" fill="#DBD10D" />
<rect x="45" y="31" width="1" height="1" fill="#DBD10D" />
<rect x="46" y="31" width="1" height="1" fill="#B3A92D" />
<rect x="48" y="31" width="6" height="5" fill="#DBD10D" />
<rect x="59" y="31" width="1" height="1" fill="#6A4616" />
<rect x="14" y="32" width="1" height="1" fill="#DBD10D" />
<rect x="27" y="32" width="1" height="21" fill="#DBD10D" />
<rect x="28" y="32" width="1" height="1" fill="#B3A92D" />
<rect x="32" y="32" width="2" height="3" fill="#DBD10D" />
<rect x="35" y="32" width="1" height="1" fill="#DBD10D" />
<rect x="38" y="32" width="1" height="1" fill="#DBD10D" />
<rect x="40" y="32" width="1" height="3" fill="#DBD10D" />
<rect x="45" y="32" width="1" height="1" fill="#B3A92D" />
<rect x="46" y="32" width="1" height="21" fill="#DBD10D" />
<rect x="59" y="32" width="1" height="1" fill="#DBD10D" />
<rect x="14" y="33" width="2" height="1" fill="#6A4616" />
<rect x="28" y="33" width="1" height="9" fill="#DBD10D" />
<rect x="30" y="33" width="1" height="1" fill="#B3A92D" />
<rect x="35" y="33" width="1" height="1" fill="#B3A92D" />
<rect x="38" y="33" width="1" height="1" fill="#B3A92D" />
<rect x="43" y="33" width="1" height="1" fill="#B3A92D" />
<rect x="45" y="33" width="1" height="9" fill="#DBD10D" />
<rect x="58" y="33" width="2" height="1" fill="#6A4616" />
<rect x="14" y="34" width="1" height="1" fill="#B3A92D" />
<rect x="15" y="34" width="1" height="1" fill="#6A4616" />
<rect x="30" y="34" width="1" height="3" fill="#DBD10D" />
<rect x="31" y="34" width="1" height="1" fill="#B3A92D" />
<rect x="35" y="34" width="1" height="6" fill="#6A4616" />
<rect x="38" y="34" width="1" height="6" fill="#6A4616" />
<rect x="41" y="34" width="2" height="1" fill="#B3A92D" />
<rect x="43" y="34" width="1" height="3" fill="#DBD10D" />
<rect x="58" y="34" width="1" height="1" fill="#6A4616" />
<rect x="59" y="34" width="1" height="1" fill="#B3A92D" />
<rect x="15" y="35" width="1" height="2" fill="#DBD10D" />
<rect x="17" y="35" width="2" height="1" fill="#B3A92D" />
<rect x="19" y="35" width="1" height="1" fill="#DBD10D" />
<rect x="31" y="35" width="2" height="1" fill="#DBD10D" />
<rect x="33" y="35" width="2" height="1" fill="#B3A92D" />
<rect x="39" y="35" width="2" height="1" fill="#B3A92D" />
<rect x="41" y="35" width="2" height="1" fill="#DBD10D" />
<rect x="54" y="35" width="1" height="1" fill="#DBD10D" />
<rect x="55" y="35" width="2" height="1" fill="#B3A92D" />
<rect x="58" y="35" width="1" height="2" fill="#DBD10D" />
<rect x="17" y="36" width="2" height="3" fill="#DBD10D" />
<rect x="19" y="36" width="2" height="1" fill="#B3A92D" />
<rect x="21" y="36" width="4" height="1" fill="#DBD10D" />
<rect x="31" y="36" width="1" height="9" fill="#DBD10D" />
<rect x="32" y="36" width="1" height="1" fill="#B3A92D" />
<rect x="33" y="36" width="1" height="2" fill="#DBD10D" />
<rect x="34" y="36" width="1" height="4" fill="#B3A92D" />
<rect x="39" y="36" width="1" height="4" fill="#B3A92D" />
<rect x="40" y="36" width="1" height="2" fill="#DBD10D" />
<rect x="41" y="36" width="1" height="1" fill="#B3A92D" />
<rect x="42" y="36" width="1" height="9" fill="#DBD10D" />
<rect x="48" y="36" width="5" height="1" fill="#DBD10D" />
<rect x="53" y="36" width="2" height="1" fill="#B3A92D" />
<rect x="55" y="36" width="2" height="3" fill="#DBD10D" />
<rect x="19" y="37" width="3" height="2" fill="#DBD10D" />
<rect x="22" y="37" width="5" height="2" fill="#B3A92D" />
<rect x="30" y="37" width="1" height="1" fill="#B3A92D" />
<rect x="32" y="37" width="1" height="2" fill="#DBD10D" />
<rect x="41" y="37" width="1" height="6" fill="#DBD10D" />
<rect x="43" y="37" width="1" height="1" fill="#B3A92D" />
<rect x="47" y="37" width="5" height="2" fill="#B3A92D" />
<rect x="52" y="37" width="3" height="2" fill="#DBD10D" />
<rect x="15" y="38" width="1" height="2" fill="#6A4616" />
<rect x="30" y="38" width="1" height="3" fill="#DBD10D" />
<rect x="33" y="38" width="1" height="1" fill="#B3A92D" />
<rect x="40" y="38" width="1" height="1" fill="#B3A92D" />
<rect x="43" y="38" width="1" height="3" fill="#DBD10D" />
<rect x="58" y="38" width="1" height="2" fill="#6A4616" />
<rect x="16" y="39" width="6" height="1" fill="#B3A92D" />
<rect x="22" y="39" width="4" height="1" fill="#DBD10D" />
<rect x="26" y="39" width="1" height="1" fill="#B3A92D" />
<rect x="32" y="39" width="1" height="1" fill="#B3A92D" />
<rect x="33" y="39" width="1" height="2" fill="#DBD10D" />
<rect x="40" y="39" width="1" height="2" fill="#DBD10D" />
<rect x="47" y="39" width="1" height="1" fill="#B3A92D" />
<rect x="48" y="39" width="4" height="1" fill="#DBD10D" />
<rect x="52" y="39" width="5" height="1" fill="#B3A92D" />
<rect x="57" y="39" width="1" height="1" fill="#6A4616" />
<rect x="15" y="40" width="7" height="1" fill="#DBD10D" />
<rect x="22" y="40" width="2" height="1" fill="#B3A92D" />
<rect x="24" y="40" width="3" height="3" fill="#DBD10D" />
<rect x="32" y="40" width="1" height="2" fill="#DBD10D" />
<rect x="34" y="40" width="1" height="5" fill="#DBD10D" />
<rect x="35" y="40" width="1" height="2" fill="#B3A92D" />
<rect x="38" y="40" width="1" height="2" fill="#B3A92D" />
<rect x="39" y="40" width="1" height="5" fill="#DBD10D" />
<rect x="47" y="40" width="3" height="3" fill="#DBD10D" />
<rect x="50" y="40" width="2" height="1" fill="#B3A92D" />
<rect x="52" y="40" width="7" height="1" fill="#DBD10D" />
<rect x="15" y="41" width="5" height="1" fill="#DBD10D" />
<rect x="20" y="41" width="2" height="1" fill="#B3A92D" />
<rect x="22" y="41" width="2" height="5" fill="#DBD10D" />
<rect x="30" y="41" width="1" height="1" fill="#B3A92D" />
<rect x="33" y="41" width="1" height="1" fill="#B3A92D" />
<rect x="40" y="41" width="1" height="1" fill="#B3A92D" />
<rect x="43" y="41" width="1" height="1" fill="#B3A92D" />
<rect x="50" y="41" width="2" height="5" fill="#DBD10D" />
<rect x="52" y="41" width="2" height="1" fill="#B3A92D" />
<rect x="54" y="41" width="5" height="1" fill="#DBD10D" />
<rect x="16" y="42" width="1" height="1" fill="#DBD10D" />
<rect x="17" y="42" width="1" height="1" fill="#B3A92D" />
<rect x="18" y="42" width="4" height="3" fill="#DBD10D" />
<rect x="28" y="42" width="1" height="1" fill="#B3A92D" />
<rect x="30" y="42" width="1" height="5" fill="#DBD10D" />
<rect x="32" y="42" width="1" height="1" fill="#B3A92D" />
<rect x="33" y="42" width="1" height="5" fill="#DBD10D" />
<rect x="35" y="42" width="1" height="2" fill="#DBD10D" />
<rect x="38" y="42" width="1" height="2" fill="#DBD10D" />
<rect x="40" y="42" width="1" height="5" fill="#DBD10D" />
<rect x="43" y="42" width="1" height="5" fill="#DBD10D" />
<rect x="45" y="42" width="1" height="1" fill="#B3A92D" />
<rect x="52" y="42" width="4" height="3" fill="#DBD10D" />
<rect x="56" y="42" width="1" height="1" fill="#B3A92D" />
<rect x="57" y="42" width="1" height="1" fill="#6A4616" />
<rect x="16" y="43" width="1" height="1" fill="#6A4616" />
<rect x="17" y="43" width="1" height="2" fill="#DBD10D" />
<rect x="24" y="43" width="2" height="1" fill="#DBD10D" />
<rect x="26" y="43" width="1" height="2" fill="#B3A92D" />
<rect x="28" y="43" width="1" height="8" fill="#DBD10D" />
<rect x="32" y="43" width="1" height="6" fill="#DBD10D" />
<rect x="41" y="43" width="1" height="2" fill="#B3A92D" />
<rect x="45" y="43" width="1" height="8" fill="#DBD10D" />
<rect x="47" y="43" width="1" height="2" fill="#B3A92D" />
<rect x="48" y="43" width="2" height="1" fill="#DBD10D" />
<rect x="56" y="43" width="1" height="2" fill="#DBD10D" />
<rect x="16" y="44" width="1" height="1" fill="#DBD10D" />
<rect x="24" y="44" width="1" height="1" fill="#DBD10D" />
<rect x="25" y="44" width="1" height="3" fill="#B3A92D" />
<rect x="36" y="44" width="2" height="3" fill="#B3A92D" />
<rect x="48" y="44" width="1" height="1" fill="#B3A92D" />
<rect x="49" y="44" width="1" height="1" fill="#DBD10D" />
<rect x="17" y="45" width="1" height="1" fill="#6A4616" />
<rect x="18" y="45" width="4" height="1" fill="#B3A92D" />
<rect x="24" y="45" width="1" height="1" fill="#B3A92D" />
<rect x="26" y="45" width="1" height="9" fill="#DBD10D" />
<rect x="31" y="45" width="1" height="1" fill="#B3A92D" />
<rect x="41" y="45" width="1" height="5" fill="#DBD10D" />
<rect x="42" y="45" width="1" height="1" fill="#B3A92D" />
<rect x="47" y="45" width="2" height="2" fill="#DBD10D" />
<rect x="49" y="45" width="1" height="1" fill="#B3A92D" />
<rect x="52" y="45" width="4" height="1" fill="#B3A92D" />
<rect x="56" y="45" width="1" height="1" fill="#6A4616" />
<rect x="18" y="46" width="5" height="1" fill="#DBD10D" />
<rect x="23" y="46" width="1" height="1" fill="#B3A92D" />
<rect x="24" y="46" width="1" height="2" fill="#DBD10D" />
<rect x="31" y="46" width="1" height="4" fill="#DBD10D" />
<rect x="42" y="46" width="1" height="4" fill="#DBD10D" />
<rect x="49" y="46" width="1" height="2" fill="#DBD10D" />
<rect x="50" y="46" width="1" height="1" fill="#B3A92D" />
<rect x="51" y="46" width="5" height="1" fill="#DBD10D" />
<rect x="19" y="47" width="1" height="1" fill="#6A4616" />
<rect x="20" y="47" width="4" height="1" fill="#DBD10D" />
<rect x="25" y="47" width="1" height="7" fill="#DBD10D" />
<rect x="30" y="47" width="1" height="2" fill="#B3A92D" />
<rect x="43" y="47" width="1" height="2" fill="#B3A92D" />
<rect x="47" y="47" width="1" height="7" fill="#DBD10D" />
<rect x="48" y="47" width="1" height="1" fill="#B3A92D" />
<rect x="50" y="47" width="4" height="1" fill="#DBD10D" />
<rect x="54" y="47" width="1" height="1" fill="#6A4616" />
<rect x="20" y="48" width="2" height="1" fill="#B3A92D" />
<rect x="22" y="48" width="2" height="2" fill="#DBD10D" />
<rect x="24" y="48" width="1" height="1" fill="#B3A92D" />
<rect x="48" y="48" width="1" height="6" fill="#DBD10D" />
<rect x="49" y="48" width="1" height="1" fill="#B3A92D" />
<rect x="50" y="48" width="2" height="2" fill="#DBD10D" />
<rect x="52" y="48" width="2" height="1" fill="#B3A92D" />
<rect x="20" y="49" width="1" height="1" fill="#6A4616" />
<rect x="21" y="49" width="1" height="1" fill="#DBD10D" />
<rect x="24" y="49" width="1" height="4" fill="#DBD10D" />
<rect x="29" y="49" width="1" height="1" fill="#B3A92D" />
<rect x="30" y="49" width="1" height="2" fill="#DBD10D" />
<rect x="43" y="49" width="1" height="2" fill="#DBD10D" />
<rect x="44" y="49" width="1" height="1" fill="#B3A92D" />
<rect x="49" y="49" width="1" height="4" fill="#DBD10D" />
<rect x="52" y="49" width="1" height="1" fill="#DBD10D" />
<rect x="53" y="49" width="1" height="1" fill="#6A4616" />
<rect x="22" y="50" width="1" height="1" fill="#6A4616" />
<rect x="23" y="50" width="1" height="1" fill="#B3A92D" />
<rect x="29" y="50" width="1" height="2" fill="#DBD10D" />
<rect x="44" y="50" width="1" height="2" fill="#DBD10D" />
<rect x="50" y="50" width="1" height="1" fill="#B3A92D" />
<rect x="51" y="50" width="1" height="1" fill="#6A4616" />
<rect x="22" y="51" width="1" height="1" fill="#B3A92D" />
<rect x="23" y="51" width="1" height="1" fill="#6A4616" />
<rect x="28" y="51" width="1" height="1" fill="#B3A92D" />
<rect x="45" y="51" width="1" height="1" fill="#B3A92D" />
<rect x="50" y="51" width="1" height="1" fill="#6A4616" />
<rect x="51" y="51" width="1" height="1" fill="#B3A92D" />
</svg>