<?xml version="1.0" encoding="UTF-8" ?>
<svg version="1.1" width="75" height="75" xmlns="http://www.w3.org/2000/svg" shape-rendering="crispEdges">
<rect x="26" y="12" width="1" height="1" fill="#080703" />
<rect x="47" y="12" width="1" height="1" fill="#080703" />
<rect x="27" y="13" width="1" height="1" fill="#080703" />
<rect x="46" y="13" width="1" height="1" fill="#080703" />
<rect x="28" y="14" width="1" height="1" fill="#58350B" />
<rect x="45" y="14" width="1" height="1" fill="#58350B" />
<rect x="29" y="15" width="1" height="2" fill="#58350B" />
<rect x="44" y="15" width="1" height="2" fill="#58350B" />
<rect x="30" y="17" width="1" height="1" fill="#58350B" />
<rect x="43" y="17" width="1" height="1" fill="#58350B" />
<rect x="31" y="18" width="1" height="2" fill="#58350B" />
<rect x="42" y="18" width="1" height="2" fill="#58350B" />
<rect x="32" y="20" width="1" height="2" fill="#58350B" />
<rect x="41" y="20" width="1" height="2" fill="#58350B" />
<rect x="33" y="22" width="1" height="1" fill="#58350B" />
<rect x="40" y="22" width="1" height="1" fill="#58350B" />
<rect x="34" y="23" width="1" height="2" fill="#58350B" />
<rect x="39" y="23" width="1" height="2" fill="#58350B" />
<rect x="35" y="25" width="1" height="1" fill="#58350B" />
<rect x="38" y="25" width="1" height="1" fill="#58350B" />
<rect x="36" y="26" width="2" height="29" fill="#58350B" />
<rect x="13" y="28" width="1" height="1" fill="#883407" opacity="0.474510" />
<rect x="14" y="28" width="1" height="1" fill="#7E3308" opacity="0.650980" />
<rect x="15" y="28" width="1" height="1" fill="#080703" />
<rect x="16" y="28" width="1" height="1" fill="#A75F10" opacity="0.666667" />
<rect x="17" y="28" width="1" height="1" fill="#9B5911" opacity="0.666667" />
<rect x="18" y="28" width="1" height="1" fill="#6C400E" opacity="0.619608" />
<rect x="19" y="28" width="10" height="1" fill="#9C5D18" />
<rect x="35" y="28" width="1" height="2" fill="#9C5D18" />
<rect x="38" y="28" width="1" height="2" fill="#9C5D18" />
<rect x="45" y="28" width="10" height="1" fill="#9C5D18" />
<rect x="55" y="28" width="1" height="1" fill="#6C400E" opacity="0.619608" />
<rect x="56" y="28" width="1" height="1" fill="#9B5911" opacity="0.666667" />
<rect x="57" y="28" width="1" height="1" fill="#A75F10" opacity="0.666667" />
<rect x="58" y="28" width="1" height="1" fill="#080703" />
<rect x="59" y="28" width="1" height="1" fill="#7E3308" opacity="0.650980" />
<rect x="60" y="28" width="1" height="1" fill="#883407" opacity="0.474510" />
<rect x="9" y="29" width="1" height="1" fill="#A03C08" opacity="0.513725" />
<rect x="10" y="29" width="1" height="1" fill="#A63E08" opacity="0.650980" />
<rect x="11" y="29" width="1" height="1" fill="#A13C08" opacity="0.639216" />
<rect x="12" y="29" width="1" height="1" fill="#AF4109" opacity="0.737255" />
<rect x="13" y="29" width="1" height="1" fill="#953808" opacity="0.886275" />
<rect x="14" y="29" width="1" height="4" fill="#080703" />
<rect x="15" y="29" width="1" height="1" fill="#924D0C" />
<rect x="16" y="29" width="1" height="1" fill="#BB6910" />
<rect x="17" y="29" width="1" height="1" fill="#AA600F" opacity="0.925490" />
<rect x="18" y="29" width="2" height="1" fill="#080703" />
<rect x="20" y="29" width="2" height="1" fill="#E47E10" />
<rect x="22" y="29" width="2" height="1" fill="#080703" />
<rect x="24" y="29" width="1" height="2" fill="#E47E10" />
<rect x="25" y="29" width="2" height="1" fill="#080703" />
<rect x="27" y="29" width="1" height="1" fill="#E47E10" />
<rect x="28" y="29" width="3" height="1" fill="#9C5D18" />
<rect x="34" y="29" width="1" height="4" fill="#9C5D18" />
<rect x="39" y="29" width="1" height="4" fill="#9C5D18" />
<rect x="43" y="29" width="3" height="1" fill="#9C5D18" />
<rect x="46" y="29" width="1" height="1" fill="#E47E10" />
<rect x="47" y="29" width="2" height="1" fill="#080703" />
<rect x="49" y="29" width="1" height="2" fill="#E47E10" />
<rect x="50" y="29" width="2" height="1" fill="#080703" />
<rect x="52" y="29" width="2" height="1" fill="#E47E10" />
<rect x="54" y="29" width="2" height="1" fill="#080703" />
<rect x="56" y="29" width="1" height="1" fill="#AA600F" opacity="0.925490" />
<rect x="57" y="29" width="1" height="1" fill="#BB6910" />
<rect x="58" y="29" width="1" height="1" fill="#924D0C" />
<rect x="59" y="29" width="1" height="4" fill="#080703" />
<rect x="60" y="29" width="1" height="1" fill="#953808" opacity="0.886275" />
<rect x="61" y="29" width="1" height="1" fill="#AF4109" opacity="0.737255" />
<rect x="62" y="29" width="1" height="1" fill="#A13C08" opacity="0.639216" />
<rect x="63" y="29" width="1" height="1" fill="#A63E08" opacity="0.650980" />
<rect x="64" y="29" width="1" height="1" fill="#A03C08" opacity="0.513725" />
<rect x="6" y="30" width="1" height="1" fill="#C6490A" opacity="0.513725" />
<rect x="7" y="30" width="1" height="1" fill="#D14C0A" opacity="0.650980" />
<rect x="8" y="30" width="1" height="1" fill="#C24709" opacity="0.764706" />
<rect x="9" y="30" width="1" height="1" fill="#9B3A08" opacity="0.886275" />
<rect x="10" y="30" width="1" height="3" fill="#080703" />
<rect x="11" y="30" width="1" height="1" fill="#7D3007" opacity="0.886275" />
<rect x="12" y="30" width="1" height="1" fill="#913707" opacity="0.960784" />
<rect x="13" y="30" width="1" height="1" fill="#792F07" />
<rect x="15" y="30" width="1" height="1" fill="#844A0A" />
<rect x="16" y="30" width="1" height="1" fill="#C86F0F" />
<rect x="17" y="30" width="1" height="1" fill="#C16B0E" />
<rect x="18" y="30" width="1" height="1" fill="#774309" opacity="0.988235" />
<rect x="19" y="30" width="2" height="4" fill="#080703" />
<rect x="21" y="30" width="1" height="1" fill="#E47E10" />
<rect x="22" y="30" width="1" height="3" fill="#080703" />
<rect x="23" y="30" width="1" height="2" fill="#E47E10" />
<rect x="25" y="30" width="1" height="2" fill="#080703" />
<rect x="26" y="30" width="1" height="3" fill="#E47E10" />
<rect x="27" y="30" width="1" height="3" fill="#080703" />
<rect x="28" y="30" width="1" height="1" fill="#9C5D18" />
<rect x="29" y="30" width="1" height="1" fill="#AC6416" />
<rect x="30" y="30" width="2" height="1" fill="#9C5D18" />
<rect x="33" y="30" width="1" height="10" fill="#9C5D18" />
<rect x="35" y="30" width="1" height="16" fill="#58350B" />
<rect x="38" y="30" width="1" height="16" fill="#58350B" />
<rect x="40" y="30" width="1" height="10" fill="#9C5D18" />
<rect x="41" y="30" width="1" height="1" fill="#9E5C20" />
<rect x="42" y="30" width="2" height="1" fill="#9C5D18" />
<rect x="44" y="30" width="1" height="1" fill="#AC6416" />
<rect x="45" y="30" width="1" height="1" fill="#9C5D18" />
<rect x="46" y="30" width="1" height="3" fill="#080703" />
<rect x="47" y="30" width="1" height="3" fill="#E47E10" />
<rect x="48" y="30" width="1" height="2" fill="#080703" />
<rect x="50" y="30" width="1" height="2" fill="#E47E10" />
<rect x="51" y="30" width="1" height="3" fill="#080703" />
<rect x="52" y="30" width="1" height="1" fill="#E47E10" />
<rect x="53" y="30" width="2" height="4" fill="#080703" />
<rect x="55" y="30" width="1" height="1" fill="#774309" opacity="0.988235" />
<rect x="56" y="30" width="1" height="1" fill="#C16B0E" />
<rect x="57" y="30" width="1" height="1" fill="#C86F0F" />
<rect x="58" y="30" width="1" height="1" fill="#844A0A" />
<rect x="60" y="30" width="1" height="1" fill="#792F07" />
<rect x="61" y="30" width="1" height="1" fill="#913707" opacity="0.960784" />
<rect x="62" y="30" width="1" height="1" fill="#7D3007" opacity="0.886275" />
<rect x="63" y="30" width="1" height="3" fill="#080703" />
<rect x="64" y="30" width="1" height="1" fill="#9B3A08" opacity="0.886275" />
<rect x="65" y="30" width="1" height="1" fill="#C24709" opacity="0.764706" />
<rect x="66" y="30" width="1" height="1" fill="#D14C0A" opacity="0.650980" />
<rect x="67" y="30" width="1" height="1" fill="#C6490A" opacity="0.513725" />
<rect x="4" y="31" width="1" height="1" fill="#CD4B0A" opacity="0.443137" />
<rect x="5" y="31" width="1" height="1" fill="#AE4109" opacity="0.764706" />
<rect x="6" y="31" width="1" height="1" fill="#A13C08" opacity="0.847059" />
<rect x="7" y="31" width="1" height="1" fill="#9F3B08" opacity="0.858824" />
<rect x="8" y="31" width="1" height="1" fill="#AC4008" opacity="0.984314" />
<rect x="9" y="31" width="1" height="1" fill="#7A2E07" />
<rect x="11" y="31" width="1" height="1" fill="#7C3007" />
<rect x="12" y="31" width="1" height="1" fill="#AD4309" />
<rect x="13" y="31" width="1" height="1" fill="#080703" />
<rect x="15" y="31" width="1" height="1" fill="#613708" />
<rect x="16" y="31" width="1" height="1" fill="#92520B" />
<rect x="17" y="31" width="2" height="1" fill="#E47E10" />
<rect x="21" y="31" width="1" height="2" fill="#FCB326" />
<rect x="24" y="31" width="1" height="2" fill="#080703" />
<rect x="28" y="31" width="1" height="1" fill="#8A4F0D" />
<rect x="29" y="31" width="1" height="1" fill="#BC6B14" />
<rect x="30" y="31" width="1" height="1" fill="#AC6416" />
<rect x="31" y="31" width="2" height="5" fill="#9C5D18" />
<rect x="41" y="31" width="2" height="5" fill="#9C5D18" />
<rect x="43" y="31" width="1" height="1" fill="#AC6416" />
<rect x="44" y="31" width="1" height="1" fill="#BC6B14" />
<rect x="45" y="31" width="1" height="1" fill="#8A4F0D" />
<rect x="49" y="31" width="1" height="2" fill="#080703" />
<rect x="52" y="31" width="1" height="2" fill="#FCB326" />
<rect x="55" y="31" width="2" height="1" fill="#E47E10" />
<rect x="57" y="31" width="1" height="1" fill="#92520B" />
<rect x="58" y="31" width="1" height="1" fill="#613708" />
<rect x="60" y="31" width="1" height="1" fill="#080703" />
<rect x="61" y="31" width="1" height="1" fill="#AD4309" />
<rect x="62" y="31" width="1" height="1" fill="#7C3007" />
<rect x="64" y="31" width="1" height="1" fill="#7A2E07" />
<rect x="65" y="31" width="1" height="1" fill="#AC4008" opacity="0.984314" />
<rect x="66" y="31" width="1" height="1" fill="#9F3B08" opacity="0.858824" />
<rect x="67" y="31" width="1" height="1" fill="#A13C08" opacity="0.847059" />
<rect x="68" y="31" width="1" height="1" fill="#AE4109" opacity="0.764706" />
<rect x="69" y="31" width="1" height="1" fill="#CD4B0A" opacity="0.443137" />
<rect x="4" y="32" width="1" height="1" fill="#AA3F09" opacity="0.627451" />
<rect x="5" y="32" width="1" height="1" fill="#973908" />
<rect x="6" y="32" width="1" height="2" fill="#080703" />
<rect x="7" y="32" width="1" height="1" fill="#8C3507" />
<rect x="8" y="32" width="1" height="1" fill="#9B3A08" />
<rect x="9" y="32" width="1" height="1" fill="#782E07" />
<rect x="11" y="32" width="1" height="1" fill="#923808" />
<rect x="12" y="32" width="1" height="1" fill="#A54409" />
<rect x="13" y="32" width="1" height="1" fill="#813F09" />
<rect x="15" y="32" width="2" height="1" fill="#080703" />
<rect x="17" y="32" width="1" height="2" fill="#E47E10" />
<rect x="18" y="32" width="1" height="1" fill="#080703" />
<rect x="23" y="32" width="1" height="1" fill="#080703" />
<rect x="25" y="32" width="1" height="1" fill="#E47E10" />
<rect x="28" y="32" width="1" height="1" fill="#B3630D" />
<rect x="29" y="32" width="1" height="4" fill="#CC7312" />
<rect x="30" y="32" width="1" height="4" fill="#B46815" />
<rect x="43" y="32" width="1" height="4" fill="#B46815" />
<rect x="44" y="32" width="1" height="4" fill="#CC7312" />
<rect x="45" y="32" width="1" height="1" fill="#B3630D" />
<rect x="48" y="32" width="1" height="1" fill="#E47E10" />
<rect x="50" y="32" width="1" height="1" fill="#080703" />
<rect x="55" y="32" width="1" height="1" fill="#080703" />
<rect x="56" y="32" width="1" height="2" fill="#E47E10" />
<rect x="57" y="32" width="2" height="1" fill="#080703" />
<rect x="60" y="32" width="1" height="1" fill="#813F09" />
<rect x="61" y="32" width="1" height="1" fill="#A54409" />
<rect x="62" y="32" width="1" height="1" fill="#923808" />
<rect x="64" y="32" width="1" height="1" fill="#782E07" />
<rect x="65" y="32" width="1" height="1" fill="#9B3A08" />
<rect x="66" y="32" width="1" height="1" fill="#8C3507" />
<rect x="67" y="32" width="1" height="2" fill="#080703" />
<rect x="68" y="32" width="1" height="1" fill="#973908" />
<rect x="69" y="32" width="1" height="1" fill="#AA3F09" opacity="0.627451" />
<rect x="4" y="33" width="1" height="1" fill="#732C07" opacity="0.666667" />
<rect x="5" y="33" width="1" height="1" fill="#5A2306" />
<rect x="7" y="33" width="1" height="1" fill="#080703" />
<rect x="8" y="33" width="1" height="1" fill="#7E3007" />
<rect x="9" y="33" width="1" height="1" fill="#080703" />
<rect x="10" y="33" width="1" height="1" fill="#7A2F07" />
<rect x="11" y="33" width="1" height="1" fill="#843307" />
<rect x="12" y="33" width="1" height="1" fill="#6F3107" />
<rect x="13" y="33" width="1" height="3" fill="#080703" />
<rect x="14" y="33" width="1" height="1" fill="#79480B" />
<rect x="15" y="33" width="2" height="1" fill="#FCB326" />
<rect x="18" y="33" width="1" height="2" fill="#E47E10" />
<rect x="21" y="33" width="4" height="2" fill="#E47E10" />
<rect x="25" y="33" width="2" height="1" fill="#080703" />
<rect x="27" y="33" width="2" height="3" fill="#E47E10" />
<rect x="34" y="33" width="1" height="9" fill="#58350B" />
<rect x="39" y="33" width="1" height="9" fill="#58350B" />
<rect x="45" y="33" width="2" height="3" fill="#E47E10" />
<rect x="47" y="33" width="2" height="1" fill="#080703" />
<rect x="49" y="33" width="4" height="2" fill="#E47E10" />
<rect x="55" y="33" width="1" height="2" fill="#E47E10" />
<rect x="57" y="33" width="2" height="1" fill="#FCB326" />
<rect x="59" y="33" width="1" height="1" fill="#79480B" />
<rect x="60" y="33" width="1" height="3" fill="#080703" />
<rect x="61" y="33" width="1" height="1" fill="#6F3107" />
<rect x="62" y="33" width="1" height="1" fill="#843307" />
<rect x="63" y="33" width="1" height="1" fill="#7A2F07" />
<rect x="64" y="33" width="1" height="1" fill="#080703" />
<rect x="65" y="33" width="1" height="1" fill="#7E3007" />
<rect x="66" y="33" width="1" height="1" fill="#080703" />
<rect x="68" y="33" width="1" height="1" fill="#5A2306" />
<rect x="69" y="33" width="1" height="1" fill="#732C07" opacity="0.666667" />
<rect x="4" y="34" width="2" height="1" fill="#080703" />
<rect x="6" y="34" width="1" height="1" fill="#672806" />
<rect x="7" y="34" width="1" height="1" fill="#572205" />
<rect x="8" y="34" width="1" height="1" fill="#682806" />
<rect x="9" y="34" width="1" height="1" fill="#762D07" />
<rect x="10" y="34" width="1" height="1" fill="#823207" />
<rect x="11" y="34" width="2" height="1" fill="#080703" />
<rect x="14" y="34" width="1" height="1" fill="#945C10" />
<rect x="15" y="34" width="1" height="1" fill="#C17E17" />
<rect x="16" y="34" width="2" height="1" fill="#080703" />
<rect x="19" y="34" width="2" height="1" fill="#E47E10" />
<rect x="25" y="34" width="1" height="1" fill="#E47E10" />
<rect x="26" y="34" width="1" height="3" fill="#080703" />
<rect x="47" y="34" width="1" height="3" fill="#080703" />
<rect x="48" y="34" width="1" height="1" fill="#E47E10" />
<rect x="53" y="34" width="2" height="1" fill="#E47E10" />
<rect x="56" y="34" width="2" height="1" fill="#080703" />
<rect x="58" y="34" width="1" height="1" fill="#C17E17" />
<rect x="59" y="34" width="1" height="1" fill="#945C10" />
<rect x="61" y="34" width="2" height="1" fill="#080703" />
<rect x="63" y="34" width="1" height="1" fill="#823207" />
<rect x="64" y="34" width="1" height="1" fill="#762D07" />
<rect x="65" y="34" width="1" height="1" fill="#682806" />
<rect x="66" y="34" width="1" height="1" fill="#572205" />
<rect x="67" y="34" width="1" height="1" fill="#672806" />
<rect x="68" y="34" width="2" height="1" fill="#080703" />
<rect x="4" y="35" width="1" height="1" fill="#4F2005" opacity="0.666667" />
<rect x="5" y="35" width="1" height="1" fill="#3C1904" opacity="0.960784" />
<rect x="6" y="35" width="1" height="1" fill="#632706" />
<rect x="7" y="35" width="2" height="1" fill="#080703" />
<rect x="9" y="35" width="1" height="1" fill="#752D07" />
<rect x="10" y="35" width="1" height="2" fill="#080703" />
<rect x="11" y="35" width="1" height="1" fill="#803A08" />
<rect x="12" y="35" width="1" height="1" fill="#813F09" />
<rect x="14" y="35" width="1" height="1" fill="#AE7115" />
<rect x="15" y="35" width="2" height="2" fill="#FCB326" />
<rect x="17" y="35" width="2" height="2" fill="#080703" />
<rect x="19" y="35" width="1" height="1" fill="#E47E10" />
<rect x="20" y="35" width="2" height="1" fill="#080703" />
<rect x="22" y="35" width="1" height="1" fill="#FCB326" />
<rect x="23" y="35" width="2" height="2" fill="#E47E10" />
<rect x="25" y="35" width="1" height="1" fill="#080703" />
<rect x="48" y="35" width="1" height="1" fill="#080703" />
<rect x="49" y="35" width="2" height="2" fill="#E47E10" />
<rect x="51" y="35" width="1" height="1" fill="#FCB326" />
<rect x="52" y="35" width="2" height="1" fill="#080703" />
<rect x="54" y="35" width="1" height="1" fill="#E47E10" />
<rect x="55" y="35" width="2" height="2" fill="#080703" />
<rect x="57" y="35" width="2" height="2" fill="#FCB326" />
<rect x="59" y="35" width="1" height="1" fill="#AE7115" />
<rect x="61" y="35" width="1" height="1" fill="#813F09" />
<rect x="62" y="35" width="1" height="1" fill="#803A08" />
<rect x="63" y="35" width="1" height="2" fill="#080703" />
<rect x="64" y="35" width="1" height="1" fill="#752D07" />
<rect x="65" y="35" width="2" height="1" fill="#080703" />
<rect x="67" y="35" width="1" height="1" fill="#632706" />
<rect x="68" y="35" width="1" height="1" fill="#3C1904" opacity="0.960784" />
<rect x="69" y="35" width="1" height="1" fill="#4F2005" opacity="0.666667" />
<rect x="4" y="36" width="3" height="1" fill="#080703" />
<rect x="7" y="36" width="1" height="1" fill="#5F2606" />
<rect x="8" y="36" width="1" height="1" fill="#080703" />
<rect x="9" y="36" width="1" height="1" fill="#642B06" />
<rect x="11" y="36" width="1" height="1" fill="#B1540B" />
<rect x="12" y="36" width="1" height="1" fill="#924D0A" />
<rect x="13" y="36" width="1" height="1" fill="#9B5B0E" />
<rect x="14" y="36" width="1" height="1" fill="#FCB326" />
<rect x="19" y="36" width="1" height="3" fill="#FCB326" />
<rect x="20" y="36" width="1" height="1" fill="#E47E10" />
<rect x="21" y="36" width="1" height="4" fill="#080703" />
<rect x="22" y="36" width="1" height="3" fill="#E47E10" />
<rect x="25" y="36" width="1" height="1" fill="#E47E10" />
<rect x="27" y="36" width="1" height="2" fill="#080703" />
<rect x="28" y="36" width="1" height="3" fill="#E47E10" />
<rect x="29" y="36" width="1" height="1" fill="#D47611" />
<rect x="30" y="36" width="1" height="1" fill="#BC6B14" />
<rect x="31" y="36" width="1" height="1" fill="#A46017" />
<rect x="32" y="36" width="1" height="2" fill="#9C5D18" />
<rect x="41" y="36" width="1" height="2" fill="#9C5D18" />
<rect x="42" y="36" width="1" height="1" fill="#A46017" />
<rect x="43" y="36" width="1" height="1" fill="#BC6B14" />
<rect x="44" y="36" width="1" height="1" fill="#D47611" />
<rect x="45" y="36" width="1" height="3" fill="#E47E10" />
<rect x="46" y="36" width="1" height="2" fill="#080703" />
<rect x="48" y="36" width="1" height="1" fill="#E47E10" />
<rect x="51" y="36" width="1" height="3" fill="#E47E10" />
<rect x="52" y="36" width="1" height="4" fill="#080703" />
<rect x="53" y="36" width="1" height="1" fill="#E47E10" />
<rect x="54" y="36" width="1" height="3" fill="#FCB326" />
<rect x="59" y="36" width="1" height="1" fill="#FCB326" />
<rect x="60" y="36" width="1" height="1" fill="#9B5B0E" />
<rect x="61" y="36" width="1" height="1" fill="#924D0A" />
<rect x="62" y="36" width="1" height="1" fill="#B1540B" />
<rect x="64" y="36" width="1" height="1" fill="#642B06" />
<rect x="65" y="36" width="1" height="1" fill="#080703" />
<rect x="66" y="36" width="1" height="1" fill="#5F2606" />
<rect x="67" y="36" width="3" height="1" fill="#080703" />
<rect x="4" y="37" width="2" height="1" fill="#080703" />
<rect x="6" y="37" width="1" height="1" fill="#411B05" />
<rect x="7" y="37" width="1" height="3" fill="#080703" />
<rect x="8" y="37" width="1" height="1" fill="#984209" />
<rect x="9" y="37" width="1" height="1" fill="#B0500A" />
<rect x="10" y="37" width="1" height="1" fill="#C95D0C" />
<rect x="11" y="37" width="1" height="1" fill="#B7600C" />
<rect x="12" y="37" width="1" height="1" fill="#8D4C0A" />
<rect x="13" y="37" width="1" height="2" fill="#080703" />
<rect x="14" y="37" width="1" height="1" fill="#E47E10" />
<rect x="15" y="37" width="1" height="1" fill="#FCB326" />
<rect x="16" y="37" width="2" height="1" fill="#E47E10" />
<rect x="18" y="37" width="1" height="2" fill="#FCB326" />
<rect x="20" y="37" width="1" height="1" fill="#FCB326" />
<rect x="23" y="37" width="1" height="2" fill="#E47E10" />
<rect x="24" y="37" width="2" height="1" fill="#FCB326" />
<rect x="26" y="37" width="1" height="5" fill="#E47E10" />
<rect x="29" y="37" width="1" height="1" fill="#D67711" />
<rect x="30" y="37" width="1" height="1" fill="#C46F13" />
<rect x="31" y="37" width="1" height="1" fill="#AE6515" />
<rect x="42" y="37" width="1" height="1" fill="#AE6515" />
<rect x="43" y="37" width="1" height="1" fill="#C46F13" />
<rect x="44" y="37" width="1" height="1" fill="#D67711" />
<rect x="47" y="37" width="1" height="5" fill="#E47E10" />
<rect x="48" y="37" width="2" height="1" fill="#FCB326" />
<rect x="50" y="37" width="1" height="2" fill="#E47E10" />
<rect x="53" y="37" width="1" height="1" fill="#FCB326" />
<rect x="55" y="37" width="1" height="2" fill="#FCB326" />
<rect x="56" y="37" width="2" height="1" fill="#E47E10" />
<rect x="58" y="37" width="1" height="1" fill="#FCB326" />
<rect x="59" y="37" width="1" height="1" fill="#E47E10" />
<rect x="60" y="37" width="1" height="2" fill="#080703" />
<rect x="61" y="37" width="1" height="1" fill="#8D4C0A" />
<rect x="62" y="37" width="1" height="1" fill="#B7600C" />
<rect x="63" y="37" width="1" height="1" fill="#C95D0C" />
<rect x="64" y="37" width="1" height="1" fill="#B0500A" />
<rect x="65" y="37" width="1" height="1" fill="#984209" />
<rect x="66" y="37" width="1" height="3" fill="#080703" />
<rect x="67" y="37" width="1" height="1" fill="#411B05" />
<rect x="68" y="37" width="2" height="1" fill="#080703" />
<rect x="4" y="38" width="1" height="1" fill="#080703" />
<rect x="5" y="38" width="1" height="1" fill="#452B16" opacity="0.886275" />
<rect x="6" y="38" width="1" height="2" fill="#080703" />
<rect x="8" y="38" width="1" height="1" fill="#683207" />
<rect x="9" y="38" width="1" height="1" fill="#99470A" />
<rect x="10" y="38" width="1" height="1" fill="#994C0A" />
<rect x="11" y="38" width="1" height="1" fill="#8C4A0A" />
<rect x="12" y="38" width="1" height="1" fill="#E47E10" />
<rect x="14" y="38" width="1" height="1" fill="#080703" />
<rect x="15" y="38" width="1" height="5" fill="#E47E10" />
<rect x="16" y="38" width="2" height="2" fill="#080703" />
<rect x="20" y="38" width="1" height="2" fill="#E47E10" />
<rect x="24" y="38" width="2" height="1" fill="#E47E10" />
<rect x="27" y="38" width="1" height="4" fill="#E47E10" />
<rect x="29" y="38" width="1" height="1" fill="#C46D0F" />
<rect x="30" y="38" width="1" height="1" fill="#CC7312" />
<rect x="31" y="38" width="1" height="1" fill="#B56814" />
<rect x="32" y="38" width="1" height="1" fill="#A46017" />
<rect x="41" y="38" width="1" height="1" fill="#A46017" />
<rect x="42" y="38" width="1" height="1" fill="#B56814" />
<rect x="43" y="38" width="1" height="1" fill="#CC7312" />
<rect x="44" y="38" width="1" height="1" fill="#C46D0F" />
<rect x="46" y="38" width="1" height="4" fill="#E47E10" />
<rect x="48" y="38" width="2" height="1" fill="#E47E10" />
<rect x="53" y="38" width="1" height="2" fill="#E47E10" />
<rect x="56" y="38" width="2" height="2" fill="#080703" />
<rect x="58" y="38" width="1" height="5" fill="#E47E10" />
<rect x="59" y="38" width="1" height="1" fill="#080703" />
<rect x="61" y="38" width="1" height="1" fill="#E47E10" />
<rect x="62" y="38" width="1" height="1" fill="#8C4A0A" />
<rect x="63" y="38" width="1" height="1" fill="#994C0A" />
<rect x="64" y="38" width="1" height="1" fill="#99470A" />
<rect x="65" y="38" width="1" height="1" fill="#683207" />
<rect x="67" y="38" width="1" height="2" fill="#080703" />
<rect x="68" y="38" width="1" height="1" fill="#452B16" opacity="0.886275" />
<rect x="69" y="38" width="1" height="1" fill="#080703" />
<rect x="5" y="39" width="1" height="1" fill="#E0CB94" />
<rect x="8" y="39" width="5" height="1" fill="#080703" />
<rect x="13" y="39" width="2" height="4" fill="#E47E10" />
<rect x="18" y="39" width="2" height="2" fill="#E47E10" />
<rect x="22" y="39" width="3" height="1" fill="#080703" />
<rect x="25" y="39" width="1" height="4" fill="#E47E10" />
<rect x="28" y="39" width="1" height="6" fill="#080703" />
<rect x="29" y="39" width="1" height="2" fill="#E47E10" />
<rect x="30" y="39" width="1" height="1" fill="#D77811" />
<rect x="31" y="39" width="1" height="1" fill="#BF6D13" />
<rect x="32" y="39" width="1" height="1" fill="#AA6316" />
<rect x="41" y="39" width="1" height="1" fill="#AA6316" />
<rect x="42" y="39" width="1" height="1" fill="#BF6D13" />
<rect x="43" y="39" width="1" height="1" fill="#D77811" />
<rect x="44" y="39" width="1" height="2" fill="#E47E10" />
<rect x="45" y="39" width="1" height="6" fill="#080703" />
<rect x="48" y="39" width="1" height="4" fill="#E47E10" />
<rect x="49" y="39" width="3" height="1" fill="#080703" />
<rect x="54" y="39" width="2" height="2" fill="#E47E10" />
<rect x="59" y="39" width="2" height="4" fill="#E47E10" />
<rect x="61" y="39" width="5" height="1" fill="#080703" />
<rect x="68" y="39" width="1" height="1" fill="#E0CB94" />
<rect x="7" y="40" width="1" height="1" fill="#E0CB94" />
<rect x="8" y="40" width="3" height="1" fill="#080703" />
<rect x="11" y="40" width="1" height="1" fill="#FCB326" />
<rect x="12" y="40" width="1" height="3" fill="#080703" />
<rect x="16" y="40" width="2" height="3" fill="#E47E10" />
<rect x="20" y="40" width="1" height="2" fill="#FCB326" />
<rect x="21" y="40" width="1" height="1" fill="#E47E10" />
<rect x="22" y="40" width="1" height="1" fill="#080703" />
<rect x="23" y="40" width="2" height="2" fill="#E47E10" />
<rect x="30" y="40" width="1" height="1" fill="#C76E0F" />
<rect x="31" y="40" width="1" height="1" fill="#C77013" />
<rect x="32" y="40" width="1" height="1" fill="#AF6515" />
<rect x="33" y="40" width="1" height="1" fill="#895011" />
<rect x="40" y="40" width="1" height="1" fill="#895011" />
<rect x="41" y="40" width="1" height="1" fill="#AF6515" />
<rect x="42" y="40" width="1" height="1" fill="#C77013" />
<rect x="43" y="40" width="1" height="1" fill="#C76E0F" />
<rect x="49" y="40" width="2" height="2" fill="#E47E10" />
<rect x="51" y="40" width="1" height="1" fill="#080703" />
<rect x="52" y="40" width="1" height="1" fill="#E47E10" />
<rect x="53" y="40" width="1" height="2" fill="#FCB326" />
<rect x="56" y="40" width="2" height="3" fill="#E47E10" />
<rect x="61" y="40" width="1" height="3" fill="#080703" />
<rect x="62" y="40" width="1" height="1" fill="#FCB326" />
<rect x="63" y="40" width="3" height="1" fill="#080703" />
<rect x="66" y="40" width="1" height="1" fill="#E0CB94" />
<rect x="9" y="41" width="2" height="1" fill="#E47E10" />
<rect x="11" y="41" width="1" height="2" fill="#080703" />
<rect x="18" y="41" width="1" height="2" fill="#080703" />
<rect x="19" y="41" width="1" height="5" fill="#E47E10" />
<rect x="21" y="41" width="1" height="1" fill="#FCB326" />
<rect x="22" y="41" width="1" height="4" fill="#E47E10" />
<rect x="29" y="41" width="1" height="1" fill="#080703" />
<rect x="30" y="41" width="1" height="2" fill="#E47E10" />
<rect x="31" y="41" width="1" height="1" fill="#D47611" />
<rect x="32" y="41" width="1" height="1" fill="#BC6B14" />
<rect x="33" y="41" width="1" height="1" fill="#945612" />
<rect x="40" y="41" width="1" height="1" fill="#945612" />
<rect x="41" y="41" width="1" height="1" fill="#BC6B14" />
<rect x="42" y="41" width="1" height="1" fill="#D47611" />
<rect x="43" y="41" width="1" height="2" fill="#E47E10" />
<rect x="44" y="41" width="1" height="1" fill="#080703" />
<rect x="51" y="41" width="1" height="4" fill="#E47E10" />
<rect x="52" y="41" width="1" height="1" fill="#FCB326" />
<rect x="54" y="41" width="1" height="5" fill="#E47E10" />
<rect x="55" y="41" width="1" height="2" fill="#080703" />
<rect x="62" y="41" width="1" height="2" fill="#080703" />
<rect x="63" y="41" width="2" height="1" fill="#E47E10" />
<rect x="10" y="42" width="1" height="1" fill="#E47E10" />
<rect x="20" y="42" width="2" height="4" fill="#E47E10" />
<rect x="23" y="42" width="1" height="1" fill="#E47E10" />
<rect x="24" y="42" width="1" height="3" fill="#FCB326" />
<rect x="26" y="42" width="1" height="1" fill="#080703" />
<rect x="27" y="42" width="1" height="2" fill="#FCB326" />
<rect x="29" y="42" width="1" height="2" fill="#FCB326" />
<rect x="31" y="42" width="1" height="1" fill="#DE8013" />
<rect x="32" y="42" width="1" height="1" fill="#BF6D13" />
<rect x="33" y="42" width="1" height="1" fill="#A25E12" />
<rect x="34" y="42" width="1" height="1" fill="#9C5D18" />
<rect x="39" y="42" width="1" height="1" fill="#9C5D18" />
<rect x="40" y="42" width="1" height="1" fill="#A25E12" />
<rect x="41" y="42" width="1" height="1" fill="#BF6D13" />
<rect x="42" y="42" width="1" height="1" fill="#DE8013" />
<rect x="44" y="42" width="1" height="2" fill="#FCB326" />
<rect x="46" y="42" width="1" height="2" fill="#FCB326" />
<rect x="47" y="42" width="1" height="1" fill="#080703" />
<rect x="49" y="42" width="1" height="3" fill="#FCB326" />
<rect x="50" y="42" width="1" height="1" fill="#E47E10" />
<rect x="52" y="42" width="2" height="4" fill="#E47E10" />
<rect x="63" y="42" width="1" height="1" fill="#E47E10" />
<rect x="12" y="43" width="2" height="1" fill="#E47E10" />
<rect x="14" y="43" width="2" height="2" fill="#080703" />
<rect x="16" y="43" width="1" height="3" fill="#E47E10" />
<rect x="17" y="43" width="1" height="1" fill="#080703" />
<rect x="18" y="43" width="1" height="3" fill="#E47E10" />
<rect x="23" y="43" width="1" height="2" fill="#FCB326" />
<rect x="25" y="43" width="1" height="2" fill="#080703" />
<rect x="26" y="43" width="1" height="1" fill="#FCB326" />
<rect x="30" y="43" width="1" height="1" fill="#FCB326" />
<rect x="31" y="43" width="1" height="1" fill="#E08113" />
<rect x="32" y="43" width="1" height="1" fill="#CE7412" />
<rect x="33" y="43" width="1" height="1" fill="#B76914" />
<rect x="34" y="43" width="1" height="1" fill="#8E5312" />
<rect x="39" y="43" width="1" height="1" fill="#8E5312" />
<rect x="40" y="43" width="1" height="1" fill="#B76914" />
<rect x="41" y="43" width="1" height="1" fill="#CE7412" />
<rect x="42" y="43" width="1" height="1" fill="#E08113" />
<rect x="43" y="43" width="1" height="1" fill="#FCB326" />
<rect x="47" y="43" width="1" height="1" fill="#FCB326" />
<rect x="48" y="43" width="1" height="2" fill="#080703" />
<rect x="50" y="43" width="1" height="2" fill="#FCB326" />
<rect x="55" y="43" width="1" height="3" fill="#E47E10" />
<rect x="56" y="43" width="1" height="1" fill="#080703" />
<rect x="57" y="43" width="1" height="3" fill="#E47E10" />
<rect x="58" y="43" width="2" height="2" fill="#080703" />
<rect x="60" y="43" width="2" height="1" fill="#E47E10" />
<rect x="17" y="44" width="1" height="2" fill="#E47E10" />
<rect x="26" y="44" width="1" height="3" fill="#080703" />
<rect x="27" y="44" width="1" height="1" fill="#E47E10" />
<rect x="29" y="44" width="1" height="2" fill="#080703" />
<rect x="30" y="44" width="2" height="2" fill="#E47E10" />
<rect x="32" y="44" width="1" height="1" fill="#DA7911" />
<rect x="33" y="44" width="1" height="1" fill="#C26E13" />
<rect x="34" y="44" width="1" height="1" fill="#955711" />
<rect x="39" y="44" width="1" height="1" fill="#955711" />
<rect x="40" y="44" width="1" height="1" fill="#C26E13" />
<rect x="41" y="44" width="1" height="1" fill="#DA7911" />
<rect x="42" y="44" width="2" height="2" fill="#E47E10" />
<rect x="44" y="44" width="1" height="2" fill="#080703" />
<rect x="46" y="44" width="1" height="1" fill="#E47E10" />
<rect x="47" y="44" width="1" height="3" fill="#080703" />
<rect x="56" y="44" width="1" height="2" fill="#E47E10" />
<rect x="15" y="45" width="1" height="1" fill="#E47E10" />
<rect x="22" y="45" width="2" height="1" fill="#080703" />
<rect x="24" y="45" width="1" height="2" fill="#E47E10" />
<rect x="25" y="45" width="1" height="2" fill="#FCB326" />
<rect x="27" y="45" width="2" height="1" fill="#FCB326" />
<rect x="32" y="45" width="1" height="1" fill="#E47E10" />
<rect x="33" y="45" width="1" height="1" fill="#B36511" />
<rect x="34" y="45" width="1" height="1" fill="#9A5912" />
<rect x="39" y="45" width="1" height="1" fill="#9A5912" />
<rect x="40" y="45" width="1" height="1" fill="#B36511" />
<rect x="41" y="45" width="1" height="1" fill="#E47E10" />
<rect x="45" y="45" width="2" height="1" fill="#FCB326" />
<rect x="48" y="45" width="1" height="2" fill="#FCB326" />
<rect x="49" y="45" width="1" height="2" fill="#E47E10" />
<rect x="50" y="45" width="2" height="1" fill="#080703" />
<rect x="58" y="45" width="1" height="1" fill="#E47E10" />
<rect x="18" y="46" width="1" height="4" fill="#E0CB94" />
<rect x="19" y="46" width="4" height="1" fill="#080703" />
<rect x="23" y="46" width="1" height="3" fill="#E47E10" />
<rect x="27" y="46" width="1" height="1" fill="#FCB326" />
<rect x="28" y="46" width="2" height="1" fill="#E47E10" />
<rect x="30" y="46" width="3" height="1" fill="#080703" />
<rect x="33" y="46" width="1" height="1" fill="#B66610" />
<rect x="34" y="46" width="1" height="1" fill="#A55E11" />
<rect x="35" y="46" width="1" height="1" fill="#854E11" />
<rect x="38" y="46" width="1" height="1" fill="#854E11" />
<rect x="39" y="46" width="1" height="1" fill="#A55E11" />
<rect x="40" y="46" width="1" height="1" fill="#B66610" />
<rect x="41" y="46" width="3" height="1" fill="#080703" />
<rect x="44" y="46" width="2" height="1" fill="#E47E10" />
<rect x="46" y="46" width="1" height="1" fill="#FCB326" />
<rect x="50" y="46" width="1" height="3" fill="#E47E10" />
<rect x="51" y="46" width="4" height="1" fill="#080703" />
<rect x="55" y="46" width="1" height="4" fill="#E0CB94" />
<rect x="19" y="47" width="3" height="1" fill="#080703" />
<rect x="22" y="47" width="1" height="3" fill="#E47E10" />
<rect x="24" y="47" width="1" height="1" fill="#FCB326" />
<rect x="25" y="47" width="3" height="1" fill="#E47E10" />
<rect x="28" y="47" width="3" height="1" fill="#080703" />
<rect x="31" y="47" width="2" height="1" fill="#E47E10" />
<rect x="33" y="47" width="1" height="1" fill="#BF6F11" />
<rect x="34" y="47" width="1" height="1" fill="#BA6A12" />
<rect x="35" y="47" width="1" height="1" fill="#915410" />
<rect x="38" y="47" width="1" height="1" fill="#915410" />
<rect x="39" y="47" width="1" height="1" fill="#BA6A12" />
<rect x="40" y="47" width="1" height="1" fill="#BF6F11" />
<rect x="41" y="47" width="2" height="1" fill="#E47E10" />
<rect x="43" y="47" width="3" height="1" fill="#080703" />
<rect x="46" y="47" width="3" height="1" fill="#E47E10" />
<rect x="49" y="47" width="1" height="1" fill="#FCB326" />
<rect x="51" y="47" width="1" height="3" fill="#E47E10" />
<rect x="52" y="47" width="3" height="1" fill="#080703" />
<rect x="19" y="48" width="1" height="3" fill="#080703" />
<rect x="20" y="48" width="2" height="2" fill="#FCB326" />
<rect x="24" y="48" width="2" height="4" fill="#E47E10" />
<rect x="26" y="48" width="2" height="1" fill="#080703" />
<rect x="28" y="48" width="1" height="3" fill="#FCB326" />
<rect x="29" y="48" width="1" height="1" fill="#080703" />
<rect x="30" y="48" width="1" height="6" fill="#E47E10" />
<rect x="31" y="48" width="2" height="1" fill="#FCB326" />
<rect x="33" y="48" width="1" height="8" fill="#E47E10" />
<rect x="34" y="48" width="1" height="1" fill="#D37A14" />
<rect x="35" y="48" width="1" height="1" fill="#9C5D18" />
<rect x="38" y="48" width="1" height="1" fill="#9C5D18" />
<rect x="39" y="48" width="1" height="1" fill="#D37A14" />
<rect x="40" y="48" width="1" height="8" fill="#E47E10" />
<rect x="41" y="48" width="2" height="1" fill="#FCB326" />
<rect x="43" y="48" width="1" height="6" fill="#E47E10" />
<rect x="44" y="48" width="1" height="1" fill="#080703" />
<rect x="45" y="48" width="1" height="3" fill="#FCB326" />
<rect x="46" y="48" width="2" height="1" fill="#080703" />
<rect x="48" y="48" width="2" height="4" fill="#E47E10" />
<rect x="52" y="48" width="2" height="2" fill="#FCB326" />
<rect x="54" y="48" width="1" height="3" fill="#080703" />
<rect x="23" y="49" width="1" height="1" fill="#E67E01" />
<rect x="26" y="49" width="1" height="1" fill="#0E0B04" />
<rect x="27" y="49" width="1" height="5" fill="#E47E10" />
<rect x="29" y="49" width="1" height="1" fill="#FCB326" />
<rect x="31" y="49" width="1" height="2" fill="#080703" />
<rect x="32" y="49" width="1" height="1" fill="#E47E10" />
<rect x="34" y="49" width="1" height="2" fill="#FCB326" />
<rect x="35" y="49" width="1" height="1" fill="#B06D14" />
<rect x="38" y="49" width="1" height="1" fill="#B06D14" />
<rect x="39" y="49" width="1" height="2" fill="#FCB326" />
<rect x="41" y="49" width="1" height="1" fill="#E47E10" />
<rect x="42" y="49" width="1" height="2" fill="#080703" />
<rect x="44" y="49" width="1" height="1" fill="#FCB326" />
<rect x="46" y="49" width="1" height="5" fill="#E47E10" />
<rect x="47" y="49" width="1" height="1" fill="#0E0B04" />
<rect x="50" y="49" width="1" height="1" fill="#E67E01" />
<rect x="20" y="50" width="4" height="1" fill="#080703" />
<rect x="26" y="50" width="1" height="3" fill="#E47E10" />
<rect x="29" y="50" width="1" height="1" fill="#E47E10" />
<rect x="32" y="50" width="1" height="1" fill="#080703" />
<rect x="35" y="50" width="1" height="3" fill="#E47E10" />
<rect x="38" y="50" width="1" height="3" fill="#E47E10" />
<rect x="41" y="50" width="1" height="1" fill="#080703" />
<rect x="44" y="50" width="1" height="1" fill="#E47E10" />
<rect x="47" y="50" width="1" height="3" fill="#E47E10" />
<rect x="50" y="50" width="4" height="1" fill="#080703" />
<rect x="19" y="51" width="1" height="1" fill="#E0CB94" />
<rect x="20" y="51" width="2" height="2" fill="#080703" />
<rect x="22" y="51" width="1" height="2" fill="#FCB326" />
<rect x="23" y="51" width="1" height="1" fill="#E47E10" />
<rect x="28" y="51" width="2" height="1" fill="#080703" />
<rect x="31" y="51" width="2" height="1" fill="#E47E10" />
<rect x="34" y="51" width="1" height="3" fill="#E47E10" />
<rect x="39" y="51" width="1" height="3" fill="#E47E10" />
<rect x="41" y="51" width="2" height="1" fill="#E47E10" />
<rect x="44" y="51" width="2" height="1" fill="#080703" />
<rect x="50" y="51" width="1" height="1" fill="#E47E10" />
<rect x="51" y="51" width="1" height="2" fill="#FCB326" />
<rect x="52" y="51" width="2" height="2" fill="#080703" />
<rect x="54" y="51" width="1" height="1" fill="#E0CB94" />
<rect x="23" y="52" width="1" height="1" fill="#FCB326" />
<rect x="24" y="52" width="1" height="1" fill="#E47E10" />
<rect x="25" y="52" width="1" height="1" fill="#080703" />
<rect x="28" y="52" width="1" height="2" fill="#080703" />
<rect x="29" y="52" width="1" height="1" fill="#E47E10" />
<rect x="31" y="52" width="1" height="2" fill="#9C5D18" />
<rect x="32" y="52" width="1" height="1" fill="#080703" />
<rect x="41" y="52" width="1" height="1" fill="#080703" />
<rect x="42" y="52" width="1" height="2" fill="#9C5D18" />
<rect x="44" y="52" width="1" height="1" fill="#E47E10" />
<rect x="45" y="52" width="1" height="2" fill="#080703" />
<rect x="48" y="52" width="1" height="1" fill="#080703" />
<rect x="49" y="52" width="1" height="1" fill="#E47E10" />
<rect x="50" y="52" width="1" height="1" fill="#FCB326" />
<rect x="21" y="53" width="3" height="1" fill="#080703" />
<rect x="24" y="53" width="2" height="1" fill="#FCB326" />
<rect x="26" y="53" width="1" height="1" fill="#0E0B04" />
<rect x="29" y="53" width="1" height="1" fill="#080703" />
<rect x="32" y="53" width="1" height="2" fill="#FCB326" />
<rect x="35" y="53" width="1" height="1" fill="#FCB326" />
<rect x="38" y="53" width="1" height="1" fill="#FCB326" />
<rect x="41" y="53" width="1" height="2" fill="#FCB326" />
<rect x="44" y="53" width="1" height="1" fill="#080703" />
<rect x="47" y="53" width="1" height="1" fill="#0E0B04" />
<rect x="48" y="53" width="2" height="1" fill="#FCB326" />
<rect x="50" y="53" width="3" height="1" fill="#080703" />
<rect x="23" y="54" width="2" height="1" fill="#080703" />
<rect x="25" y="54" width="3" height="1" fill="#9C5D18" />
<rect x="28" y="54" width="2" height="1" fill="#FCB326" />
<rect x="30" y="54" width="1" height="1" fill="#9C5D18" />
<rect x="31" y="54" width="1" height="1" fill="#FCB326" />
<rect x="34" y="54" width="1" height="2" fill="#080703" />
<rect x="35" y="54" width="1" height="2" fill="#E47E10" />
<rect x="38" y="54" width="1" height="2" fill="#E47E10" />
<rect x="39" y="54" width="1" height="2" fill="#080703" />
<rect x="42" y="54" width="1" height="1" fill="#FCB326" />
<rect x="43" y="54" width="1" height="1" fill="#9C5D18" />
<rect x="44" y="54" width="2" height="1" fill="#FCB326" />
<rect x="46" y="54" width="3" height="1" fill="#9C5D18" />
<rect x="49" y="54" width="2" height="1" fill="#080703" />
<rect x="25" y="55" width="1" height="1" fill="#E0CB94" />
<rect x="26" y="55" width="5" height="1" fill="#080703" />
<rect x="31" y="55" width="1" height="1" fill="#9C5D18" />
<rect x="32" y="55" width="1" height="1" fill="#E67E01" />
<rect x="41" y="55" width="1" height="1" fill="#E67E01" />
<rect x="42" y="55" width="1" height="1" fill="#9C5D18" />
<rect x="43" y="55" width="5" height="1" fill="#080703" />
<rect x="48" y="55" width="1" height="1" fill="#E0CB94" />
<rect x="26" y="56" width="1" height="1" fill="#E0CB94" />
<rect x="27" y="56" width="5" height="1" fill="#080703" />
<rect x="32" y="56" width="2" height="1" fill="#E0CB94" />
<rect x="40" y="56" width="2" height="1" fill="#E0CB94" />
<rect x="42" y="56" width="5" height="1" fill="#080703" />
<rect x="47" y="56" width="1" height="1" fill="#E0CB94" />
</svg>